  0
SECTION
  2
HEADER
  9
$ORTHOMODE
 70
     0
  9
$REGENMODE
 70
     1
  9
$QTEXTMODE
 70
     0
  9
$DRAGMODE
 70
     2
  9
$LTSCALE
 40
 50.000
  9
$OSMODE
 70
     0
  9
$TEXTSIZE
 40
 5.000
  9
$TEXTSTYLE
  7
L100
  9
$CLAYER
  8
EMPTY
  9
$CELTYPE
  6
BYLAYER
  9
$CECOLOR
 62
   256
  9
$DIMSCALE
 40
 50.000
  9
$DIMPOST
  1
'
  9
$DIMAPOST
  1
m
  9
$LUNITS
 70
     2
  9
$LUPREC
 70
     2
  9
$AUNITS
 70
     1
  9
$AUPREC
 70
     4
  9
$MENU
  1
acad
  9
$LIMCHECK
 70
     0
  9
$BLIPMODE
 70
     0
  9
$SKPOLY
 70
     1
  9
$ANGBASE
 50
0.0
  9
$ANGDIR
 70
     0
  9
$PDMODE
 70
     0
  9
$PDSIZE
 40
0.0
  9
$COORDS
 70
     2
  9
$SPLINESEGS
 70
     4
  9
$UCSORG
 10
0.0
 20
0.0
 30
0.0
  9
$UCSXDIR
 10
1.0
 20
0.0
 30
0.0
  9
$UCSYDIR
 10
0.0
 20
1.0
 30
0.0
  9
$USERI1
 70
     0
  9
$USERI2
 70
     0
  9
$USERI3
 70
     0
  9
$USERI4
 70
     0
  9
$USERI5
 70
   0
  9
$USERR1
 40
1.0
  9
$USERR2
 40
 50.000
  9
$USERR3
 40
0.0
  9
$USERR4
 40
0.0
  9
$USERR5
 40
0.0
  9
$SNAPMODE
 70
     0
  9
$SNAPUNIT
 10
1.0
 20
1.0
  9
$SNAPBASE
 10
0.0
 20
0.0
  9
$GRIDMODE
 70
     0
  9
$GRIDUNIT
 10
 50.000
 20
 50.000
  0
ENDSEC
  0
SECTION
  2
TABLES
  0
TABLE
  2
VPORT
 70
     2
  0
VPORT
  2
*ACTIVE
 70
     0
 10
0.0
 20
0.0
 11
1.0
 21
1.0
 12
 2384776 
 22
 1222127 
 13
0.0
 23
0.0
 14
1.0
 24
1.0
 15
0.0
 25
0.0
 16
0.0
 26
0.0
 36
1.0
 17
0.0
 27
0.0
 37
0.0
 40
 1200 
 41
1.327
 42
50.0
 43
0.0
 44
0.0
 50
0.0
 51
 0 
 71
     8
 72
   100
 73
     1
 74
     1
 75
     0
 76
     0
 77
     0
 78
     1
  0
ENDTAB
  0
TABLE
  2
LTYPE
 70
    12
  0
LTYPE
  2
CONTINUOUS
 70
    64
  3
Solid line
 72
    65
 73
     0
 40
0.0
  0
LTYPE
  2
DASHED
 70
    64
  3
__ __ __ __ __ __ __ __ __ __ __ __ __ __ __
 72
    65
 73
     2
 40
0.3
 49
0.25
 49
-0.05
  0
LTYPE
  2
DIVIDE
 70
     0
  3
__ . . __ . . __ . . __ . . __ . . __ . . __
 72
    65
 73
     6
 40
0.35
 49
0.2
 49
-0.05
 49
0.0
 49
-0.05
 49
0.0
 49
-0.05
  0
LTYPE
  2
DIVIDED
 70
    64
  3
__ . . . __ . . . __ . . . __ . . . __ . . . __
 72
    65
 73
     8
 40
0.4
 49
0.2
 49
-0.05
 49
0.0
 49
-0.05
 49
0.0
 49
-0.05
 49
0.0
 49
-0.05
  0
LTYPE
  2
CENTER
 70
    64
  3
____ _ ____ _ ____ _ ____ _ ____ _ ____ _ ____
 72
    65
 73
     4
 40
1.0
 49
0.8
 49
-0.05
 49
0.1
 49
-0.05
  0
LTYPE
  2
HIDDEN
 70
    64
  3
_ _ _ _ _ _ _ _ _ _ _ _ _ _ _ _ _ _ _ _ _ _ _
 72
    65
 73
     2
 40
0.15
 49
0.1
 49
-0.05
  0
LTYPE
  2
DOT
 70
     0
  3
...............................................
 72
    65
 73
     2
 40
0.05
 49
0.0
 49
-0.05
  0
LTYPE
  2
PHANTOM
 70
     0
  3
_____ _ _ _____ _ _ _____ _ _ _____ _ _ ____
 72
    65
 73
     6
 40
1.0
 49
0.65
 49
-0.05
 49
0.1
 49
-0.05
 49
0.1
 49
-0.05
  0
LTYPE
  2
DASHDOT
 70
     0
  3
__ . __ . __ . __ . __ . __ . __ . __ . __ . __
 72
    65
 73
     4
 40
0.3
 49
0.2
 49
-0.05
 49
0.0
 49
-0.05
  0
LTYPE
  2
BORDER
 70
     0
  3
__ __ . __ __ . __ __ . __ __ . __ __ . __ __
 72
    65
 73
     6
 40
0.55
 49
0.2
 49
-0.05
 49
0.2
 49
-0.05
 49
0.0
 49
-0.05
  0
LTYPE
  2
LONGDASH
 70
     0
  3
____ _____ ______ _______
 72
    65
 73
     2
 40
1.0
 49
0.9
 49
-0.1
  0
LTYPE
  2
TOPO
 70
     0
  3
topo,- - - - - -
 72
    65
 73
     2
 40
0.05
 49
0.03
 49
-0.02
  0
ENDTAB
  0
TABLE
  2
LAYER
 70
   3 
  0
LAYER
  2
0
 70
    64
 62
     7
  6
CONTINUOUS
  0
LAYER
  2
EMPTY
 70
    64
 62
     7
  6
CONTINUOUS
  0
LAYER
  2
BOUNDARY
 70
    64
 62
     2
  6
CONTINUOUS
  0
ENDTAB
  0
TABLE
  2
STYLE
 70
 31 
  0
STYLE
  2
STANDARD
 70
     0
 40
0.0
 41
1.0
 50
0.0
 71
     0
 42
0.2
  3
txt
  4

  0
STYLE
  2
INSTEXT
 70
     0
 40
0.0
 41
1.0
 50
0.0
 71
     0
 42
0.2
  3
ROMANS
  4

  0
STYLE
  2
L40
 70
     0
 40
 2.000
 41
1.0
 50
0.0
 71
     0
 42
 2.000
  3
romans
  4

  0
STYLE
  2
L50
 70
     0
 40
 2.500
 41
1.0
 50
0.0
 71
     0
 42
 2.500
  3
romans
  4

  0
STYLE
  2
L60
 70
     0
 40
 3.000
 41
1.0
 50
0.0
 71
     0
 42
 3.000
  3
romans
  4

  0
STYLE
  2
L80
 70
     0
 40
 4.000
 41
1.0
 50
0.0
 71
     0
 42
 4.000
  3
romans
  4

  0
STYLE
  2
L100
 70
     0
 40
 5.000
 41
1.0
 50
0.0
 71
     0
 42
 5.000
  3
romans
  4

  0
STYLE
  2
L120
 70
     0
 40
 6.000
 41
1.0
 50
0.0
 71
     0
 42
 6.000
  3
romans
  4

  0
STYLE
  2
L140
 70
     0
 40
 7.000
 41
1.0
 50
0.0
 71
     0
 42
 7.000
  3
romans
  4

  0
STYLE
  2
L175
 70
     0
 40
 8.750
 41
1.0
 50
0.0
 71
     0
 42
 8.750
  3
romans
  4

  0
STYLE
  2
L200
 70
     0
 40
 10.000
 41
1.0
 50
0.0
 71
     0
 42
 10.000
  3
romans
  4

  0
STYLE
  2
L240
 70
     0
 40
 12.000
 41
1.0
 50
0.0
 71
     0
 42
 12.000
  3
romans
  4

  0
STYLE
  2
L290
 70
     0
 40
 14.500
 41
1.0
 50
0.0
 71
     0
 42
 14.500
  3
romans
  4

  0
STYLE
  2
L350
 70
     0
 40
 17.500
 41
1.0
 50
0.0
 71
     0
 42
 17.500
  3
romans
  4

  0
STYLE
  2
L425
 70
     0
 40
 21.250
 41
1.0
 50
0.0
 71
     0
 42
 21.250
  3
romans
  4

  0
STYLE
  2
L500
 70
     0
 40
 25.000
 41
1.0
 50
0.0
 71
     0
 42
 25.000
  3
romans
  4

  0
STYLE
  2
CG0000
 70
     0
 40
 5.000
 41
 1.0
 50
 0.0
 71
     0
 42
 5.000
  3
romans
  4

  0
STYLE
  2
CG0001
 70
     0
 40
 4.800
 41
 1.0
 50
 15.0
 71
     0
 42
 4.800
  3
romans
  4

  0
STYLE
  2
CG0002
 70
     0
 40
 4.000
 41
 1.0
 50
 15.0
 71
     0
 42
 4.000
  3
romans
  4

  0
STYLE
  2
CG0003
 70
     0
 40
 9.000
 41
 1.0
 50
 15.0
 71
     0
 42
 9.000
  3
romanc
  4

  0
STYLE
  2
CG0004
 70
     0
 40
 6.000
 41
 1.0
 50
 15.0
 71
     0
 42
 6.000
  3
romans
  4

  0
STYLE
  2
CG0005
 70
     0
 40
 7.000
 41
 1.0
 50
 15.0
 71
     0
 42
 7.000
  3
romans
  4

  0
STYLE
  2
CG0006
 70
     0
 40
 7.500
 41
 1.0
 50
 15.0
 71
     0
 42
 7.500
  3
romanc
  4

  0
STYLE
  2
CG0007
 70
     0
 40
 10.000
 41
 1.0
 50
 15.0
 71
     0
 42
 10.000
  3
romanc
  4

  0
STYLE
  2
CG0008
 70
     0
 40
 8.000
 41
 1.0
 50
 0.0
 71
     0
 42
 8.000
  3
romanc
  4

  0
STYLE
  2
CG0009
 70
     0
 40
 6.000
 41
 1.0
 50
 0.0
 71
     0
 42
 6.000
  3
romanc
  4

  0
STYLE
  2
CG0010
 70
     0
 40
 4.000
 41
 1.0
 50
 0.0
 71
     0
 42
 4.000
  3
romans
  4

  0
STYLE
  2
CG0011
 70
     0
 40
 161.811
 41
 1.0
 50
 0.0
 71
     0
 42
 161.811
  3
romand
  4

  0
STYLE
  2
CG0012
 70
     0
 40
 115.579
 41
 1.0
 50
 0.0
 71
     0
 42
 115.579
  3
romand
  4

  0
STYLE
  2
CG0013
 70
     0
 40
 2.678
 41
 1.0
 50
 0.0
 71
     0
 42
 2.678
  3
romans
  4

  0
STYLE
  2
CG0014
 70
     0
 40
 6.500
 41
 1.0
 50
 0.0
 71
     0
 42
 6.500
  3
romans
  4

  0
ENDTAB
  0
ENDSEC
  0
SECTION
  2
BLOCKS
  0
BLOCK
  8
0
  2
SYM1
 70
    64
 10
0.0
 20
0.0
  0
CIRCLE
  8
0
 10
0.0
 20
0.0
 40
0.5
  0
ENDBLK
  8
0
  0
BLOCK
  8
0
  2
SYM2
 70
    64
 10
0.0
 20
0.0
  0
POLYLINE
  8
0
 66
     1
  0
VERTEX
  8
0
 10
-0.5
 20
0.5
  0
VERTEX
  8
0
 10
0.5
 20
0.5
  0
VERTEX
  8
0
 10
0.5
 20
-0.5
  0
VERTEX
  8
0
 10
-0.5
 20
-0.5
  0
VERTEX
  8
0
 10
-0.5
 20
0.5
  0
SEQEND
  8
0
  0
ENDBLK
  8
0
  0
BLOCK
  8
0
  2
SYM4
 70
    64
 10
0.0
 20
0.0
  0
LINE
  8
0
 38
0.0
 10
-0.5
 20
0.0
 11
0.5
 21
0.0
  0
LINE
  8
0
 38
0.0
 10
0.0
 20
0.5
 11
0.0
 21
-0.5
  0
ENDBLK
  8
0
  0
BLOCK
  8
0
  2
SYM8
 70
    64
 10
0.0
 20
0.0
  0
LINE
  8
0
 38
0.0
 10
-0.5
 20
0.5
 11
0.5
 21
-0.5
  0
LINE
  8
0
 38
0.0
 10
-0.5
 20
-0.5
 11
0.5
 21
0.5
  0
ENDBLK
  8
0
  0
BLOCK
  8
0
  2
SYM16
 70
    64
 10
0.0
 20
0.0
  0
POLYLINE
  8
0
 66
     1
 70
     1
  0
VERTEX
  8
0
 10
0.0
 20
0.5
  0
VERTEX
  8
0
 10
-0.433013
 20
-0.25
  0
VERTEX
  8
0
 10
0.433013
 20
-0.25
  0
SEQEND
  8
0
  0
ENDBLK
  8
0
  0
BLOCK
  8
0
  2
SYM3
 70
    64
 10
0.0
 20
0.0
  0
INSERT
  8
0
  2
SYM1
 10
0.0
 20
0.0
  0
INSERT
  8
0
  2
SYM2
 10
0.0
 20
0.0
  0
ENDBLK
  8
0
  0
BLOCK
  8
0
  2
SYM5
 70
    64
 10
0.0
 20
0.0
  0
INSERT
  8
0
  2
SYM1
 10
0.0
 20
0.0
  0
INSERT
  8
0
  2
SYM4
 10
0.0
 20
0.0
  0
ENDBLK
  8
0
  0
BLOCK
  8
0
  2
SYM6
 70
    64
 10
0.0
 20
0.0
  0
INSERT
  8
0
  2
SYM4
 10
0.0
 20
0.0
  0
INSERT
  8
0
  2
SYM2
 10
0.0
 20
0.0
  0
ENDBLK
  8
0
  0
BLOCK
  8
0
  2
SYM7
 70
    64
 10
0.0
 20
0.0
  0
INSERT
  8
0
  2
SYM6
 10
0.0
 20
0.0
  0
INSERT
  8
0
  2
SYM1
 10
0.0
 20
0.0
  0
ENDBLK
  8
0
  0
BLOCK
  8
0
  2
SYM9
 70
    64
 10
0.0
 20
0.0
  0
CIRCLE
  8
0
 10
0.0
 20
0.0
 40
0.5
  0
LINE
  8
0
 38
0.0
 10
-0.353553
 20
0.353553
 11
0.353553
 21
-0.353553
  0
LINE
  8
0
 38
0.0
 10
-0.353553
 20
-0.353553
 11
0.353553
 21
0.353553
  0
ENDBLK
  8
0
  0
BLOCK
  8
0
  2
SYM10
 70
    64
 10
0.0
 20
0.0
  0
INSERT
  8
0
  2
SYM8
 10
0.0
 20
0.0
  0
INSERT
  8
0
  2
SYM2
 10
0.0
 20
0.0
  0
ENDBLK
  8
0
  0
BLOCK
  8
0
  2
SYM11
 70
    64
 10
0.0
 20
0.0
  0
INSERT
  8
0
  2
SYM10
 10
0.0
 20
0.0
  0
INSERT
  8
0
  2
SYM1
 10
0.0
 20
0.0
  0
ENDBLK
  8
0
  0
BLOCK
  8
0
  2
SYM12
 70
    64
 10
0.0
 20
0.0
  0
INSERT
  8
0
  2
SYM8
 10
0.0
 20
0.0
  0
INSERT
  8
0
  2
SYM4
 10
0.0
 20
0.0
  0
ENDBLK
  8
0
  0
BLOCK
  8
0
  2
SYM13
 70
    64
 10
0.0
 20
0.0
  0
LINE
  8
0
 38
0.0
 10
-0.353553
 20
-0.353553
 11
0.353553
 21
0.353553
  0
LINE
  8
0
 38
0.0
 10
-0.353553
 20
0.353553
 11
0.353553
 21
-0.353553
  0
INSERT
  8
0
  2
SYM4
 10
0.0
 20
0.0
  0
CIRCLE
  8
0
 10
0.0
 20
0.0
 40
0.5
  0
ENDBLK
  8
0
  0
BLOCK
  8
0
  2
SYM14
 70
    64
 10
0.0
 20
0.0
  0
INSERT
  8
0
  2
SYM12
 10
0.0
 20
0.0
  0
INSERT
  8
0
  2
SYM2
 10
0.0
 20
0.0
  0
ENDBLK
  8
0
  0
BLOCK
  8
0
  2
SYM15
 70
    64
 10
0.0
 20
0.0
  0
INSERT
  8
0
  2
SYM14
 10
0.0
 20
0.0
  0
INSERT
  8
0
  2
SYM1
 10
0.0
 20
0.0
  0
ENDBLK
  8
0
  0
BLOCK
  8
0
  2
SYM17
 70
    64
 10
0.0
 20
0.0
  0
INSERT
  8
0
  2
SYM1
 10
0.0
 20
0.0
  0
INSERT
  8
0
  2
SYM16
 10
0.0
 20
0.0
  0
ENDBLK
  8
0
  0
BLOCK
  8
0
  2
SYM18
 70
    64
 10
0.0
 20
0.0
  0
INSERT
  8
0
  2
SYM16
 10
0.0
 20
0.0
  0
INSERT
  8
0
  2
SYM2
 10
0.0
 20
0.099221
  0
ENDBLK
  8
0
  0
BLOCK
  8
0
  2
SYM19
 70
    64
 10
0.0
 20
0.0
  0
INSERT
  8
0
  2
SYM16
 10
0.0
 20
0.0
  0
INSERT
  8
0
  2
SYM1
 10
0.0
 20
0.0
  0
INSERT
  8
0
  2
SYM2
 10
0.0
 20
0.0
  0
ENDBLK
  8
0
  0
BLOCK
  8
0
  2
SYM20
 70
    64
 10
0.0
 20
0.0
  0
LINE
  8
0
 38
0.0
 10
0.0
 20
0.226745
 11
0.0
 21
-0.226745
  0
LINE
  8
0
 38
0.0
 10
-0.226745
 20
0.0
 11
0.226745
 21
0.0
  0
POLYLINE
  8
0
 66
     1
 70
     1
  0
VERTEX
  8
0
 10
0.0
 20
0.5
  0
VERTEX
  8
0
 10
-0.433013
 20
-0.25
  0
VERTEX
  8
0
 10
0.433013
 20
-0.25
  0
SEQEND
  8
0
  0
ENDBLK
  8
0
  0
BLOCK
  8
0
  2
SYM21
 70
    64
 10
0.0
 20
0.0
  0
INSERT
  8
0
  2
SYM20
 10
0.0
 20
0.0
  0
INSERT
  8
0
  2
SYM1
 10
0.0
 20
0.0
  0
ENDBLK
  8
0
  0
BLOCK
  8
0
  2
SYM22
 70
    64
 10
0.0
 20
0.0
  0
INSERT
  8
0
  2
SYM20
 10
0.0
 20
0.0
  0
INSERT
  8
0
  2
SYM2
 10
-0.0
 20
0.125105
  0
ENDBLK
  8
0
  0
BLOCK
  8
0
  2
SYM23
 70
    64
 10
0.0
 20
0.0
  0
INSERT
  8
0
  2
SYM20
 10
0.0
 20
0.0
  0
INSERT
  8
0
  2
SYM1
 10
0.0
 20
0.0
  0
INSERT
  8
0
  2
SYM2
 10
0.0
 20
0.0
  0
ENDBLK
  8
0
  0
BLOCK
  8
0
  2
SYM24
 70
    64
 10
0.0
 20
0.0
  0
LINE
  8
0
 38
0.0
 10
-0.166439
 20
0.166439
 11
0.166439
 21
-0.166439
  0
LINE
  8
0
 38
0.0
 10
-0.166439
 20
-0.166439
 11
0.166439
 21
0.166439
  0
POLYLINE
  8
0
 66
     1
 70
     1
  0
VERTEX
  8
0
 10
0.0
 20
0.5
  0
VERTEX
  8
0
 10
-0.433013
 20
-0.25
  0
VERTEX
  8
0
 10
0.433013
 20
-0.25
  0
SEQEND
  8
0
  0
ENDBLK
  8
0
  0
BLOCK
  8
0
  2
SYM25
 70
    64
 10
0.0
 20
0.0
  0
INSERT
  8
0
  2
SYM24
 10
0.0
 20
0.0
  0
INSERT
  8
0
  2
SYM1
 10
0.0
 20
0.0
  0
ENDBLK
  8
0
  0
BLOCK
  8
0
  2
SYM26
 70
    64
 10
0.0
 20
0.0
  0
INSERT
  8
0
  2
SYM24
 10
0.0
 20
0.0
  0
INSERT
  8
0
  2
SYM2
 10
0.0
 20
0.129419
  0
ENDBLK
  8
0
  0
BLOCK
  8
0
  2
SYM27
 70
    64
 10
0.0
 20
0.0
  0
INSERT
  8
0
  2
SYM24
 10
0.0
 20
0.0
  0
INSERT
  8
0
  2
SYM1
 10
0.0
 20
0.0
  0
INSERT
  8
0
  2
SYM2
 10
0.0
 20
0.0
  0
ENDBLK
  8
0
  0
BLOCK
  8
0
  2
SYM28
 70
    64
 10
0.0
 20
0.0
  0
INSERT
  8
0
  2
SYM24
 10
0.0
 20
0.0
  0
LINE
  8
0
 38
0.0
 10
0.0
 20
0.23538
 11
0.0
 21
-0.23538
  0
LINE
  8
0
 38
0.0
 10
-0.23538
 20
0.0
 11
0.23538
 21
0.0
  0
ENDBLK
  8
0
  0
BLOCK
  8
0
  2
SYM29
 70
    64
 10
0.0
 20
0.0
  0
INSERT
  8
0
  2
SYM28
 10
0.0
 20
0.0
  0
INSERT
  8
0
  2
SYM1
 10
0.0
 20
0.0
  0
ENDBLK
  8
0
  0
BLOCK
  8
0
  2
SYM30
 70
    64
 10
0.0
 20
0.0
  0
INSERT
  8
0
  2
SYM28
 10
0.0
 20
0.0
  0
INSERT
  8
0
  2
SYM2
 10
0.0
 20
0.125105
  0
ENDBLK
  8
0
  0
BLOCK
  8
0
  2
SYM31
 70
    64
 10
0.0
 20
0.0
  0
INSERT
  8
0
  2
SYM28
 10
0.0
 20
0.0
  0
INSERT
  8
0
  2
SYM1
 10
0.0
 20
0.0
  0
INSERT
  8
0
  2
SYM2
 10
0.0
 20
0.0
  0
ENDBLK
  8
0
  0
BLOCK
  8
0
  2
SYM33
 70
     0
 10
0.0
 20
0.0
  0
POINT
  8
0
 10
0.0
 20
0.0
  0
INSERT
  8
0
  2
SYM1
 10
0.0
 20
0.0
  0
ENDBLK
  8
0
  0
BLOCK
  8
0
  2
SYM34
 70
     0
 10
0.0
 20
0.0
  0
POINT
  8
0
 10
0.0
 20
0.0
  0
INSERT
  8
0
  2
SYM2
 10
0.0
 20
0.0
  0
ENDBLK
  8
0
  0
BLOCK
  8
0
  2
SYM35
 70
     0
 10
0.0
 20
0.0
  0
POINT
  8
0
 10
0.0
 20
0.0
  0
INSERT
  8
0
  2
SYM3
 10
0.0
 20
0.0
  0
ENDBLK
  8
0
  0
BLOCK
  8
0
  2
SYM36
 70
     0
 10
0.0
 20
0.0
  0
POINT
  8
0
 10
0.0
 20
0.0
  0
INSERT
  8
0
  2
SYM4
 10
0.0
 20
0.0
  0
ENDBLK
  8
0
  0
BLOCK
  8
0
  2
SYM37
 70
     0
 10
0.0
 20
0.0
  0
POINT
  8
0
 10
0.0
 20
0.0
  0
INSERT
  8
0
  2
SYM5
 10
0.0
 20
0.0
  0
ENDBLK
  8
0
  0
BLOCK
  8
0
  2
SYM38
 70
     0
 10
0.0
 20
0.0
  0
POINT
  8
0
 10
0.0
 20
0.0
  0
INSERT
  8
0
  2
SYM6
 10
0.0
 20
0.0
  0
ENDBLK
  8
0
  0
BLOCK
  8
0
  2
SYM39
 70
     0
 10
0.0
 20
0.0
  0
POINT
  8
0
 10
0.0
 20
0.0
  0
INSERT
  8
0
  2
SYM7
 10
0.0
 20
0.0
  0
ENDBLK
  8
0
  0
BLOCK
  8
0
  2
SYM40
 70
     0
 10
0.0
 20
0.0
  0
POINT
  8
0
 10
0.0
 20
0.0
  0
INSERT
  8
0
  2
SYM8
 10
0.0
 20
0.0
  0
ENDBLK
  8
0
  0
BLOCK
  8
0
  2
SYM41
 70
     0
 10
0.0
 20
0.0
  0
POINT
  8
0
 10
0.0
 20
0.0
  0
INSERT
  8
0
  2
SYM9
 10
0.0
 20
0.0
  0
ENDBLK
  8
0
  0
BLOCK
  8
0
  2
SYM42
 70
     0
 10
0.0
 20
0.0
  0
POINT
  8
0
 10
0.0
 20
0.0
  0
INSERT
  8
0
  2
SYM10
 10
0.0
 20
0.0
  0
ENDBLK
  8
0
  0
BLOCK
  8
0
  2
SYM43
 70
     0
 10
0.0
 20
0.0
  0
POINT
  8
0
 10
0.0
 20
0.0
  0
INSERT
  8
0
  2
SYM11
 10
0.0
 20
0.0
  0
ENDBLK
  8
0
  0
BLOCK
  8
0
  2
SYM44
 70
     0
 10
0.0
 20
0.0
  0
POINT
  8
0
 10
0.0
 20
0.0
  0
INSERT
  8
0
  2
SYM12
 10
0.0
 20
0.0
  0
ENDBLK
  8
0
  0
BLOCK
  8
0
  2
SYM45
 70
     0
 10
0.0
 20
0.0
  0
POINT
  8
0
 10
0.0
 20
0.0
  0
INSERT
  8
0
  2
SYM13
 10
0.0
 20
0.0
  0
ENDBLK
  8
0
  0
BLOCK
  8
0
  2
SYM46
 70
     0
 10
0.0
 20
0.0
  0
POINT
  8
0
 10
0.0
 20
0.0
  0
INSERT
  8
0
  2
SYM14
 10
0.0
 20
0.0
  0
ENDBLK
  8
0
  0
BLOCK
  8
0
  2
SYM47
 70
     0
 10
0.0
 20
0.0
  0
POINT
  8
0
 10
0.0
 20
0.0
  0
INSERT
  8
0
  2
SYM15
 10
0.0
 20
0.0
  0
ENDBLK
  8
0
  0
BLOCK
  8
0
  2
SYM48
 70
     0
 10
0.0
 20
0.0
  0
POINT
  8
0
 10
0.0
 20
0.0
  0
INSERT
  8
0
  2
SYM16
 10
0.0
 20
0.0
  0
ENDBLK
  8
0
  0
BLOCK
  8
0
  2
SYM49
 70
     0
 10
0.0
 20
0.0
  0
POINT
  8
0
 10
0.0
 20
0.0
  0
INSERT
  8
0
  2
SYM17
 10
0.0
 20
0.0
  0
ENDBLK
  8
0
  0
BLOCK
  8
0
  2
SYM50
 70
     0
 10
0.0
 20
0.0
  0
POINT
  8
0
 10
0.0
 20
0.0
  0
INSERT
  8
0
  2
SYM18
 10
0.0
 20
0.0
  0
ENDBLK
  8
0
  0
BLOCK
  8
0
  2
SYM51
 70
     0
 10
0.0
 20
0.0
  0
POINT
  8
0
 10
0.0
 20
0.0
  0
INSERT
  8
0
  2
SYM19
 10
0.0
 20
0.0
  0
ENDBLK
  8
0
  0
BLOCK
  8
0
  2
SYM52
 70
     0
 10
0.0
 20
0.0
  0
POINT
  8
0
 10
0.0
 20
0.0
  0
INSERT
  8
0
  2
SYM20
 10
0.0
 20
0.0
  0
ENDBLK
  8
0
  0
BLOCK
  8
0
  2
SYM53
 70
     0
 10
0.0
 20
0.0
  0
POINT
  8
0
 10
0.0
 20
0.0
  0
INSERT
  8
0
  2
SYM21
 10
0.0
 20
0.0
  0
ENDBLK
  8
0
  0
BLOCK
  8
0
  2
SYM54
 70
     0
 10
0.0
 20
0.0
  0
POINT
  8
0
 10
0.0
 20
0.0
  0
INSERT
  8
0
  2
SYM22
 10
0.0
 20
0.0
  0
ENDBLK
  8
0
  0
BLOCK
  8
0
  2
SYM55
 70
     0
 10
0.0
 20
0.0
  0
POINT
  8
0
 10
0.0
 20
0.0
  0
INSERT
  8
0
  2
SYM23
 10
0.0
 20
0.0
  0
ENDBLK
  8
0
  0
BLOCK
  8
0
  2
SYM56
 70
     0
 10
0.0
 20
0.0
  0
POINT
  8
0
 10
0.0
 20
0.0
  0
INSERT
  8
0
  2
SYM24
 10
0.0
 20
0.0
  0
ENDBLK
  8
0
  0
BLOCK
  8
0
  2
SYM57
 70
     0
 10
0.0
 20
0.0
  0
POINT
  8
0
 10
0.0
 20
0.0
  0
INSERT
  8
0
  2
SYM25
 10
0.0
 20
0.0
  0
ENDBLK
  8
0
  0
BLOCK
  8
0
  2
SYM58
 70
     0
 10
0.0
 20
0.0
  0
POINT
  8
0
 10
0.0
 20
0.0
  0
INSERT
  8
0
  2
SYM26
 10
0.0
 20
0.0
  0
ENDBLK
  8
0
  0
BLOCK
  8
0
  2
SYM59
 70
     0
 10
0.0
 20
0.0
  0
POINT
  8
0
 10
0.0
 20
0.0
  0
INSERT
  8
0
  2
SYM27
 10
0.0
 20
0.0
  0
ENDBLK
  8
0
  0
BLOCK
  8
0
  2
SYM60
 70
     0
 10
0.0
 20
0.0
  0
POINT
  8
0
 10
0.0
 20
0.0
  0
INSERT
  8
0
  2
SYM28
 10
0.0
 20
0.0
  0
ENDBLK
  8
0
  0
BLOCK
  8
0
  2
SYM61
 70
     0
 10
0.0
 20
0.0
  0
POINT
  8
0
 10
0.0
 20
0.0
  0
INSERT
  8
0
  2
SYM29
 10
0.0
 20
0.0
  0
ENDBLK
  8
0
  0
BLOCK
  8
0
  2
SYM62
 70
     0
 10
0.0
 20
0.0
  0
POINT
  8
0
 10
0.0
 20
0.0
  0
INSERT
  8
0
  2
SYM30
 10
0.0
 20
0.0
  0
ENDBLK
  8
0
  0
BLOCK
  8
0
  2
SYM63
 70
     0
 10
0.0
 20
0.0
  0
POINT
  8
0
 10
0.0
 20
0.0
  0
INSERT
  8
0
  2
SYM31
 10
0.0
 20
0.0
  0
ENDBLK
  8
0
  0
BLOCK
  8
0
  2
BLAKE
 70
    64
 10
1.000000
 20
1.000000
  0
CIRCLE
  8
BOUNDARY
  6
CONTINUOUS
 62
 4 
 10
0.996226
 20
1.003773
 40
0.903293
  0
CIRCLE
  8
BOUNDARY
  6
CONTINUOUS
 62
 6 
 10
0.996226
 20
1.003773
 40
0.824438
  0
TEXT
  8
BOUNDARY
 62
 4 
 10
0.525283
 20
1.373584
 40
0.160000
  1
G
 50
51.858995
  7
CG0008
  0
TEXT
  8
BOUNDARY
 62
 4 
 10
0.651995
 20
1.493725
 40
0.160000
  1
E
 50
35.091147
  7
CG0008
  0
TEXT
  8
BOUNDARY
 62
 4 
 10
0.793577
 20
1.567228
 40
0.160000
  1
O
 50
19.781372
  7
CG0008
  0
TEXT
  8
BOUNDARY
 62
 4 
 10
0.957141
 20
1.601285
 40
0.160000
  1
R
 50
3.742550
  7
CG0008
  0
TEXT
  8
BOUNDARY
 62
 4 
 10
1.123748
 20
1.588825
 40
0.160000
  1
G
 50
-12.296265
  7
CG0008
  0
TEXT
  8
BOUNDARY
 62
 4 
 10
1.287110
 20
1.527160
 40
0.160000
  1
I
 50
-29.064116
  7
CG0008
  0
TEXT
  8
BOUNDARY
 62
 4 
 10
1.357283
 20
1.481461
 40
0.160000
  1
A
 50
-37.083524
  7
CG0008
  0
TEXT
  8
BOUNDARY
 62
 1 
 10
0.621886
 20
1.207547
 40
0.100000
  1
R
 50
61.438121
  7
CG0000
  0
TEXT
  8
BOUNDARY
 62
 1 
 10
0.672912
 20
1.281481
 40
0.100000
  1
E
 50
49.339304
  7
CG0000
  0
TEXT
  8
BOUNDARY
 62
 1 
 10
0.731530
 20
1.337824
 40
0.100000
  1
G
 50
38.392759
  7
CG0000
  0
TEXT
  8
BOUNDARY
 62
 1 
 10
0.807426
 20
1.385883
 40
0.100000
  1
I
 50
26.293941
  7
CG0000
  0
TEXT
  8
BOUNDARY
 62
 1 
 10
0.838741
 20
1.399819
 40
0.100000
  1
S
 50
21.684866
  7
CG0000
  0
TEXT
  8
BOUNDARY
 62
 1 
 10
0.921028
 20
1.423296
 40
0.100000
  1
T
 50
10.162187
  7
CG0000
  0
TEXT
  8
BOUNDARY
 62
 1 
 10
0.989204
 20
1.429924
 40
0.100000
  1
E
 50
0.944041
  7
CG0000
  0
TEXT
  8
BOUNDARY
 62
 1 
 10
1.070255
 20
1.423503
 40
0.100000
  1
R
 50
-10.002504
  7
CG0000
  0
TEXT
  8
BOUNDARY
 62
 1 
 10
1.156585
 20
1.398664
 40
0.100000
  1
E
 50
-22.101327
  7
CG0000
  0
TEXT
  8
BOUNDARY
 62
 1 
 10
1.228654
 20
1.361028
 40
0.100000
  1
D
 50
-33.047872
  7
CG0000
  0
CIRCLE
  8
BOUNDARY
  6
CONTINUOUS
 62
 6 
 10
0.996226
 20
1.003773
 40
0.562522
  0
TEXT
  8
BOUNDARY
 62
 1 
 10
0.476981
 20
0.890566
 40
0.100000
  1
L
 50
-77.700655
  7
CG0000
  0
TEXT
  8
BOUNDARY
 62
 1 
 10
0.502636
 20
0.806795
 40
0.100000
  1
A
 50
-68.244377
  7
CG0000
  0
TEXT
  8
BOUNDARY
 62
 1 
 10
0.544401
 20
0.723977
 40
0.100000
  1
N
 50
-58.231852
  7
CG0000
  0
TEXT
  8
BOUNDARY
 62
 1 
 10
0.613975
 20
0.634564
 40
0.100000
  1
D
 50
-45.994316
  7
CG0000
  0
TEXT
  8
BOUNDARY
 62
 1 
 10
0.768162
 20
0.523754
 40
0.100000
  1
S
 50
-25.413007
  7
CG0000
  0
TEXT
  8
BOUNDARY
 62
 1 
 10
0.865068
 20
0.488769
 40
0.100000
  1
U
 50
-14.287977
  7
CG0000
  0
TEXT
  8
BOUNDARY
 62
 1 
 10
0.977211
 20
0.472670
 40
0.100000
  1
R
 50
-2.050441
  7
CG0000
  0
TEXT
  8
BOUNDARY
 62
 1 
 10
1.085136
 20
0.479820
 40
0.100000
  1
V
 50
9.630841
  7
CG0000
  0
TEXT
  8
BOUNDARY
 62
 1 
 10
1.174878
 20
0.503258
 40
0.100000
  1
E
 50
19.643372
  7
CG0000
  0
TEXT
  8
BOUNDARY
 62
 1 
 10
1.263650
 20
0.544517
 40
0.100000
  1
Y
 50
30.212155
  7
CG0000
  0
TEXT
  8
BOUNDARY
 62
 1 
 10
1.339425
 20
0.598007
 40
0.100000
  1
O
 50
40.224686
  7
CG0000
  0
TEXT
  8
BOUNDARY
 62
 1 
 10
1.417635
 20
0.679973
 40
0.100000
  1
R
 50
52.462216
  7
CG0000
  0
TEXT
  8
BOUNDARY
 62
 1 
 10
0.591698
 20
0.966037
 40
0.100000
  1
NO. 3244
 50
0.000000
  7
CG0000
  0
TEXT
  8
BOUNDARY
 62
 4 
 10
0.242960
 20
1.005396
 40
0.120000
  1
J
 50
269.876575
  7
CG0009
  0
TEXT
  8
BOUNDARY
 62
 4 
 10
0.249630
 20
0.903736
 40
0.120000
  1
O
 50
-82.368310
  7
CG0009
  0
TEXT
  8
BOUNDARY
 62
 4 
 10
0.284022
 20
0.758460
 40
0.120000
  1
N
 50
-70.994135
  7
CG0009
  0
TEXT
  8
BOUNDARY
 62
 4 
 10
0.349853
 20
0.616972
 40
0.120000
  1
A
 50
-59.102958
  7
CG0009
  0
TEXT
  8
BOUNDARY
 62
 4 
 10
0.429778
 20
0.507236
 40
0.120000
  1
T
 50
-48.762806
  7
CG0009
  0
TEXT
  8
BOUNDARY
 62
 4 
 10
0.522796
 20
0.417875
 40
0.120000
  1
H
 50
-38.939656
  7
CG0009
  0
TEXT
  8
BOUNDARY
 62
 4 
 10
0.659749
 20
0.329832
 40
0.120000
  1
A
 50
-26.531478
  7
CG0009
  0
TEXT
  8
BOUNDARY
 62
 4 
 10
0.786180
 20
0.280383
 40
0.120000
  1
N
 50
-16.191326
  7
CG0009
  0
TEXT
  8
BOUNDARY
 62
 4 
 10
1.048404
 20
0.252314
 40
0.120000
  1
B
 50
3.971981
  7
CG0009
  0
TEXT
  8
BOUNDARY
 62
 4 
 10
1.195578
 20
0.277363
 40
0.120000
  1
.
 50
15.346151
  7
CG0009
  0
TEXT
  8
BOUNDARY
 62
 4 
 10
1.358981
 20
0.343606
 40
0.120000
  1
P
 50
28.788347
  7
CG0009
  0
TEXT
  8
BOUNDARY
 62
 4 
 10
1.482052
 20
0.428112
 40
0.120000
  1
R
 50
40.162512
  7
CG0009
  0
TEXT
  8
BOUNDARY
 62
 4 
 10
1.586040
 20
0.535230
 40
0.120000
  1
I
 50
51.536685
  7
CG0009
  0
TEXT
  8
BOUNDARY
 62
 4 
 10
1.629567
 20
0.595984
 40
0.120000
  1
N
 50
57.223770
  7
CG0009
  0
TEXT
  8
BOUNDARY
 62
 4 
 10
1.700002
 20
0.735237
 40
0.120000
  1
C
 50
69.114948
  7
CG0009
  0
TEXT
  8
BOUNDARY
 62
 4 
 10
1.737986
 20
0.872608
 40
0.120000
  1
E
 50
79.972109
  7
CG0009
  0
ENDBLK
  8
0
  0
BLOCK
  8
0
  2
COURT
 70
    64
 10
1.500000
 20
1.500000
  0
LINE
  8
BOUNDARY
  6
CONTINUOUS
 62
 6 
 10
0.000000
 20
3.000000
 11
0.000000
 21
0.000000
  0
LINE
  8
BOUNDARY
  6
CONTINUOUS
 62
 6 
 10
0.000000
 20
0.000000
 11
2.998524
 21
0.000000
  0
LINE
  8
BOUNDARY
  6
CONTINUOUS
 62
 6 
 10
2.998524
 20
0.000000
 11
2.998524
 21
3.000000
  0
LINE
  8
BOUNDARY
  6
CONTINUOUS
 62
 6 
 10
2.998524
 20
3.000000
 11
0.000000
 21
3.000000
  0
TEXT
  8
BOUNDARY
 62
 6 
 10
0.202092
 20
0.353442
 40
0.080000
  1
BLOCK RESERVED FOR CLERK
 50
0.000000
  7
CG0010
  0
TEXT
  8
BOUNDARY
 62
 6 
 10
0.202092
 20
0.206299
 40
0.080000
  1
OF SUPERIOR COURT
 50
0.000000
  7
CG0010
  0
ENDBLK
  8
0
  0
BLOCK
  8
0
  2
DIG
 70
    64
 10
48.866604
 20
15.794445
  0
ARC
  8
BOUNDARY
  6
CONTINUOUS
 62
 6 
 10
13.513352
 20
14.044878
 40
0.125515
 50
-42.363613
 51
32.639613
  0
LINE
  8
BOUNDARY
  6
CONTINUOUS
 62
 6 
 10
13.606094
 20
13.960302
 11
9.304251
 21
9.243171
  0
LINE
  8
BOUNDARY
  6
CONTINUOUS
 62
 6 
 10
9.304251
 20
9.243171
 11
9.263249
 21
8.879488
  0
LINE
  8
BOUNDARY
  6
CONTINUOUS
 62
 6 
 10
9.263249
 20
8.879488
 11
9.273332
 21
8.563466
  0
ARC
  8
BOUNDARY
  6
CONTINUOUS
 62
 6 
 10
9.221625
 20
8.561816
 40
0.051733
 50
256.746690
 51
1.827490
  0
LINE
  8
BOUNDARY
  6
CONTINUOUS
 62
 6 
 10
9.209765
 20
8.511461
 11
8.995507
 21
8.561925
  0
ARC
  8
BOUNDARY
  6
CONTINUOUS
 62
 6 
 10
9.011680
 20
8.630591
 40
0.070545
 50
195.110063
 51
256.746690
  0
LINE
  8
BOUNDARY
  6
CONTINUOUS
 62
 6 
 10
8.943574
 20
8.612202
 11
8.842080
 21
8.988093
  0
LINE
  8
BOUNDARY
  6
CONTINUOUS
 62
 6 
 10
8.842080
 20
8.988093
 11
8.755589
 21
9.492482
  0
LINE
  8
BOUNDARY
  6
CONTINUOUS
 62
 6 
 10
8.755589
 20
9.492482
 11
8.719926
 21
9.922592
  0
LINE
  8
BOUNDARY
  6
CONTINUOUS
 62
 6 
 10
8.719926
 20
9.922592
 11
8.719768
 21
10.500395
  0
LINE
  8
BOUNDARY
  6
CONTINUOUS
 62
 6 
 10
8.719768
 20
10.500395
 11
13.109794
 21
14.632041
  0
ARC
  8
BOUNDARY
  6
CONTINUOUS
 62
 6 
 10
13.195817
 20
14.540640
 40
0.125515
 50
32.639613
 51
133.263301
  0
LINE
  8
BOUNDARY
  6
CONTINUOUS
 62
 6 
 10
13.301511
 20
14.608337
 11
13.619046
 21
14.112575
  0
ARC
  8
BOUNDARY
  6
CONTINUOUS
 62
 6 
 10
13.513352
 20
14.044878
 40
0.061512
 50
-42.363613
 51
32.639613
  0
LINE
  8
BOUNDARY
  6
CONTINUOUS
 62
 6 
 10
13.558803
 20
14.003429
 11
9.242976
 21
9.270964
  0
LINE
  8
BOUNDARY
  6
CONTINUOUS
 62
 6 
 10
9.242976
 20
9.270964
 11
9.199131
 21
8.882066
  0
LINE
  8
BOUNDARY
  6
CONTINUOUS
 62
 6 
 10
9.199131
 20
8.882066
 11
9.208851
 21
8.577430
  0
LINE
  8
BOUNDARY
  6
CONTINUOUS
 62
 6 
 10
9.208851
 20
8.577430
 11
9.010180
 21
8.624223
  0
ARC
  8
BOUNDARY
  6
CONTINUOUS
 62
 5 
 10
9.011680
 20
8.630591
 40
0.006542
 50
195.110063
 51
256.746690
  0
LINE
  8
BOUNDARY
  6
CONTINUOUS
 62
 6 
 10
9.005364
 20
8.628886
 11
8.904654
 21
9.001874
  0
LINE
  8
BOUNDARY
  6
CONTINUOUS
 62
 6 
 10
8.904654
 20
9.001874
 11
8.819143
 21
9.500550
  0
LINE
  8
BOUNDARY
  6
CONTINUOUS
 62
 6 
 10
8.819143
 20
9.500550
 11
8.783928
 21
9.925250
  0
LINE
  8
BOUNDARY
  6
CONTINUOUS
 62
 6 
 10
8.783928
 20
9.925250
 11
8.783779
 21
10.472748
  0
LINE
  8
BOUNDARY
  6
CONTINUOUS
 62
 6 
 10
8.783779
 20
10.472748
 11
13.153659
 21
14.585434
  0
ARC
  8
BOUNDARY
  6
CONTINUOUS
 62
 6 
 10
13.195817
 20
14.540640
 40
0.061512
 50
32.639613
 51
133.263301
  0
LINE
  8
BOUNDARY
  6
CONTINUOUS
 62
 6 
 10
13.247615
 20
14.573816
 11
13.565151
 21
14.078055
  0
LINE
  8
BOUNDARY
  6
CONTINUOUS
 62
 6 
 10
7.888570
 20
11.389819
 11
7.842785
 21
12.442461
  0
ARC
  8
BOUNDARY
  6
CONTINUOUS
 62
 6 
 10
16.468158
 20
12.817625
 40
8.633527
 50
164.703834
 51
182.490527
  0
ARC
  8
BOUNDARY
  6
CONTINUOUS
 62
 6 
 10
12.093211
 20
14.014160
 40
4.097906
 50
144.501457
 51
164.703834
  0
ARC
  8
BOUNDARY
  6
CONTINUOUS
 62
 6 
 10
10.979424
 20
14.808574
 40
2.729836
 50
117.829935
 51
144.501457
  0
LINE
  8
BOUNDARY
  6
CONTINUOUS
 62
 6 
 10
9.252420
 20
16.747200
 11
9.901394
 21
17.204470
  0
ARC
  8
BOUNDARY
  6
CONTINUOUS
 62
 6 
 10
10.013241
 20
17.411386
 40
0.235211
 50
241.606693
 51
-61.406375
  0
ARC
  8
BOUNDARY
  6
CONTINUOUS
 62
 6 
 10
11.067155
 20
15.477859
 40
1.966892
 50
111.345856
 51
118.593614
  0
ARC
  8
BOUNDARY
  6
CONTINUOUS
 62
 6 
 10
10.731865
 20
16.335804
 40
1.045758
 50
50.121868
 51
111.345856
  0
LINE
  8
BOUNDARY
  6
CONTINUOUS
 62
 6 
 10
11.402360
 20
17.138329
 11
13.015897
 21
15.409991
  0
ARC
  8
BOUNDARY
  6
CONTINUOUS
 62
 5 
 10
12.924149
 20
15.324338
 40
0.125515
 50
-46.736698
 51
43.032530
  0
LINE
  8
BOUNDARY
  6
CONTINUOUS
 62
 6 
 10
13.010171
 20
15.232936
 11
8.749234
 21
11.222781
  0
ARC
  8
BOUNDARY
  6
CONTINUOUS
 62
 6 
 10
8.684501
 20
11.291563
 40
0.094452
 50
184.353547
 51
-46.736698
  0
LINE
  8
BOUNDARY
  6
CONTINUOUS
 62
 6 
 10
8.590321
 20
11.284393
 11
8.480885
 21
12.721879
  0
ARC
  8
BOUNDARY
  6
CONTINUOUS
 62
 6 
 10
17.008701
 20
13.371103
 40
8.552492
 50
169.044549
 51
184.353547
  0
ARC
  8
BOUNDARY
  6
CONTINUOUS
 62
 6 
 10
11.946170
 20
14.351075
 40
3.395986
 50
140.347123
 51
169.044549
  0
ARC
  8
BOUNDARY
  6
CONTINUOUS
 62
 6 
 10
9.222359
 20
16.608646
 40
0.141777
 50
-39.652887
 51
77.758561
  0
LINE
  8
BOUNDARY
  6
CONTINUOUS
 62
 6 
 10
9.811949
 20
17.267880
 11
9.658737
 21
17.274033
  0
ARC
  8
BOUNDARY
  6
CONTINUOUS
 62
 6 
 10
11.399021
 20
14.358159
 40
3.395719
 50
120.830061
 51
163.035006
  0
ARC
  8
BOUNDARY
  6
CONTINUOUS
 62
 6 
 10
16.773085
 20
12.718733
 40
9.014285
 50
163.035006
 51
179.148259
  0
LINE
  8
BOUNDARY
  6
CONTINUOUS
 62
 6 
 10
7.759796
 20
12.852731
 11
7.738504
 21
11.420536
  0
ARC
  8
BOUNDARY
  6
CONTINUOUS
 62
 6 
 10
7.892792
 20
11.418242
 40
0.154305
 50
179.148259
 51
6.047957
  0
LINE
  8
BOUNDARY
  6
CONTINUOUS
 62
 6 
 10
8.046239
 20
11.434500
 11
7.958446
 21
12.263119
  0
ARC
  8
BOUNDARY
  6
CONTINUOUS
 62
 6 
 10
15.016907
 20
13.010966
 40
7.097967
 50
168.303015
 51
186.047952
  0
ARC
  8
BOUNDARY
  6
CONTINUOUS
 62
 6 
 10
15.755653
 20
12.858020
 40
7.852380
 50
161.199646
 51
168.303015
  0
ARC
  8
BOUNDARY
  6
CONTINUOUS
 62
 6 
 10
11.952887
 20
14.152614
 40
3.835290
 50
142.115128
 51
161.199646
  0
ARC
  8
BOUNDARY
  6
CONTINUOUS
 62
 6 
 10
11.662481
 20
14.378565
 40
3.467337
 50
137.575135
 51
142.115128
  0
ARC
  8
BOUNDARY
  6
CONTINUOUS
 62
 6 
 10
9.222359
 20
16.608646
 40
0.161667
 50
77.758561
 51
137.575135
  0
LINE
  8
BOUNDARY
  6
CONTINUOUS
 62
 6 
 10
9.352279
 20
16.753220
 11
9.906842
 21
17.143968
  0
ARC
  8
BOUNDARY
  6
CONTINUOUS
 62
 6 
 10
10.013241
 20
17.411386
 40
0.287807
 50
248.303589
 51
-61.406375
  0
ARC
  8
BOUNDARY
  6
CONTINUOUS
 62
 6 
 10
11.067155
 20
15.477859
 40
1.914296
 50
111.345856
 51
118.593614
  0
ARC
  8
BOUNDARY
  6
CONTINUOUS
 62
 6 
 10
10.731865
 20
16.335804
 40
0.993162
 50
50.307410
 51
111.345856
  0
LINE
  8
BOUNDARY
  6
CONTINUOUS
 62
 6 
 10
11.366167
 20
17.100024
 11
12.977451
 21
15.374099
  0
ARC
  8
BOUNDARY
  6
CONTINUOUS
 62
 5 
 10
12.924149
 20
15.324338
 40
0.072919
 50
-46.736698
 51
43.032530
  0
LINE
  8
BOUNDARY
  6
CONTINUOUS
 62
 6 
 10
12.974125
 20
15.271237
 11
8.713187
 21
11.261082
  0
ARC
  8
BOUNDARY
  6
CONTINUOUS
 62
 5 
 10
8.684501
 20
11.291563
 40
0.041856
 50
184.353547
 51
-46.736698
  0
LINE
  8
BOUNDARY
  6
CONTINUOUS
 62
 6 
 10
8.642765
 20
11.288386
 11
8.533329
 21
12.725871
  0
ARC
  8
BOUNDARY
  6
CONTINUOUS
 62
 6 
 10
17.008701
 20
13.371103
 40
8.499896
 50
169.044549
 51
184.353547
  0
ARC
  8
BOUNDARY
  6
CONTINUOUS
 62
 6 
 10
11.946170
 20
14.351075
 40
3.343390
 50
140.347123
 51
169.044549
  0
ARC
  8
BOUNDARY
  6
CONTINUOUS
 62
 6 
 10
9.222359
 20
16.608646
 40
0.194373
 50
-39.652887
 51
48.055840
  0
LINE
  8
BOUNDARY
  6
CONTINUOUS
 62
 6 
 10
9.329177
 20
16.910746
 11
9.743043
 21
17.192677
  0
CIRCLE
  8
BOUNDARY
  6
CONTINUOUS
 62
 6 
 10
15.794445
 20
15.794445
 40
15.794445
  0
CIRCLE
  8
BOUNDARY
  6
CONTINUOUS
 62
 6 
 10
15.794445
 20
15.794445
 40
12.829371
  0
CIRCLE
  8
BOUNDARY
  6
CONTINUOUS
 62
 6 
 10
15.794445
 20
15.794445
 40
13.060531
  0
CIRCLE
  8
BOUNDARY
  6
CONTINUOUS
 62
 6 
 10
15.794445
 20
15.794445
 40
13.291691
  0
CIRCLE
  8
BOUNDARY
  6
CONTINUOUS
 62
 6 
 10
15.794445
 20
15.794445
 40
13.522851
  0
CIRCLE
  8
BOUNDARY
  6
CONTINUOUS
 62
 6 
 10
15.794445
 20
15.794445
 40
13.754011
  0
CIRCLE
  8
BOUNDARY
  6
CONTINUOUS
 62
 6 
 10
15.794445
 20
15.794445
 40
13.985171
  0
CIRCLE
  8
BOUNDARY
  6
CONTINUOUS
 62
 6 
 10
15.794445
 20
15.794445
 40
15.563286
  0
CIRCLE
  8
BOUNDARY
  6
CONTINUOUS
 62
 6 
 10
15.794445
 20
15.794445
 40
15.332126
  0
CIRCLE
  8
BOUNDARY
  6
CONTINUOUS
 62
 6 
 10
15.794445
 20
15.794445
 40
15.100966
  0
CIRCLE
  8
BOUNDARY
  6
CONTINUOUS
 62
 6 
 10
15.794445
 20
15.794445
 40
14.869806
  0
CIRCLE
  8
BOUNDARY
  6
CONTINUOUS
 62
 6 
 10
15.794445
 20
15.794445
 40
14.638646
  0
CIRCLE
  8
BOUNDARY
  6
CONTINUOUS
 62
 6 
 10
15.794445
 20
15.794445
 40
14.407486
  0
CIRCLE
  8
BOUNDARY
  6
CONTINUOUS
 62
 6 
 10
15.794445
 20
15.794445
 40
14.216330
  0
LINE
  8
BOUNDARY
  6
CONTINUOUS
 62
 6 
 10
6.193340
 20
23.905844
 11
23.227858
 21
5.659339
  0
LINE
  8
BOUNDARY
  6
CONTINUOUS
 62
 6 
 10
8.159584
 20
25.741483
 11
25.194102
 21
7.494979
  0
LINE
  8
BOUNDARY
  6
CONTINUOUS
 62
 6 
 10
7.990613
 20
25.583737
 11
25.025132
 21
7.337233
  0
LINE
  8
BOUNDARY
  6
CONTINUOUS
 62
 6 
 10
6.362310
 20
24.063590
 11
23.396828
 21
5.817086
  0
LINE
  8
BOUNDARY
  6
CONTINUOUS
 62
 6 
 10
6.531280
 20
24.221337
 11
23.565799
 21
5.974833
  0
LINE
  8
BOUNDARY
  6
CONTINUOUS
 62
 6 
 10
7.821643
 20
25.425990
 11
24.856162
 21
7.179486
  0
LINE
  8
BOUNDARY
  6
CONTINUOUS
 62
 6 
 10
7.652673
 20
25.268244
 11
24.687191
 21
7.021739
  0
LINE
  8
BOUNDARY
  6
CONTINUOUS
 62
 6 
 10
7.483703
 20
25.110497
 11
24.518221
 21
6.863993
  0
LINE
  8
BOUNDARY
  6
CONTINUOUS
 62
 6 
 10
7.314733
 20
24.952750
 11
24.349251
 21
6.706246
  0
LINE
  8
BOUNDARY
  6
CONTINUOUS
 62
 6 
 10
7.145763
 20
24.795004
 11
24.180281
 21
6.548500
  0
LINE
  8
BOUNDARY
  6
CONTINUOUS
 62
 6 
 10
6.700250
 20
24.379083
 11
23.734769
 21
6.132579
  0
LINE
  8
BOUNDARY
  6
CONTINUOUS
 62
 6 
 10
6.869221
 20
24.536830
 11
23.903739
 21
6.290326
  0
LINE
  8
BOUNDARY
  6
CONTINUOUS
 62
 6 
 10
7.038191
 20
24.694577
 11
24.072709
 21
6.448072
  0
ARC
  8
BOUNDARY
  6
CONTINUOUS
 62
 6 
 10
5.701914
 20
11.911740
 40
0.133492
 50
174.118752
 51
0.093426
  0
LINE
  8
BOUNDARY
  6
CONTINUOUS
 62
 6 
 10
5.569125
 20
11.925419
 11
5.712487
 21
13.317451
  0
ARC
  8
BOUNDARY
  6
CONTINUOUS
 62
 6 
 10
15.165391
 20
12.343917
 40
9.502903
 50
162.927310
 51
174.119975
  0
ARC
  8
BOUNDARY
  6
CONTINUOUS
 62
 6 
 10
11.068637
 20
13.602107
 40
5.217294
 50
140.766942
 51
162.927310
  0
ARC
  8
BOUNDARY
  6
CONTINUOUS
 62
 6 
 10
12.234649
 20
13.405357
 40
6.272251
 50
146.119279
 51
166.538701
  0
ARC
  8
BOUNDARY
  6
CONTINUOUS
 62
 6 
 10
16.753445
 20
12.323718
 40
10.918697
 50
166.538701
 51
180.093662
  0
LINE
  8
BOUNDARY
  6
CONTINUOUS
 62
 6 
 10
5.834762
 20
12.305868
 11
5.835406
 21
11.911958
  0
ARC
  8
BOUNDARY
  6
CONTINUOUS
 62
 6 
 10
6.498302
 20
11.717717
 40
0.110712
 50
174.702680
 51
2.622122
  0
LINE
  8
BOUNDARY
  6
CONTINUOUS
 62
 6 
 10
6.608899
 20
11.722782
 11
6.563675
 21
12.710287
  0
ARC
  8
BOUNDARY
  6
CONTINUOUS
 62
 6 
 10
12.468150
 20
12.980692
 40
5.910664
 50
172.373127
 51
182.622127
  0
ARC
  8
BOUNDARY
  6
CONTINUOUS
 62
 6 
 10
19.451501
 20
12.045580
 40
12.956345
 50
168.032219
 51
172.373127
  0
ARC
  8
BOUNDARY
  6
CONTINUOUS
 62
 6 
 10
11.380168
 20
13.756452
 40
4.705678
 50
152.278275
 51
168.032219
  0
ARC
  8
BOUNDARY
  6
CONTINUOUS
 62
 6 
 10
15.820073
 20
11.423303
 40
9.721288
 50
144.723973
 51
152.278275
  0
ARC
  8
BOUNDARY
  6
CONTINUOUS
 62
 6 
 10
11.867829
 20
13.547452
 40
5.296492
 50
138.781206
 51
162.078230
  0
ARC
  8
BOUNDARY
  6
CONTINUOUS
 62
 6 
 10
13.359035
 20
13.065180
 40
6.863744
 50
162.078230
 51
178.743460
  0
ARC
  8
BOUNDARY
  6
CONTINUOUS
 62
 6 
 10
-5.143222
 20
13.471015
 40
11.642963
 50
-5.297309
 51
-1.256539
  0
LINE
  8
BOUNDARY
  6
CONTINUOUS
 62
 6 
 10
6.450014
 20
12.396090
 11
6.388062
 21
11.727938
  0
ARC
  8
BOUNDARY
  6
CONTINUOUS
 62
 6 
 10
7.218096
 20
11.578923
 40
0.125879
 50
175.356323
 51
0.878155
  0
LINE
  8
BOUNDARY
  6
CONTINUOUS
 62
 6 
 10
7.092630
 20
11.589114
 11
7.229602
 21
13.275438
  0
ARC
  8
BOUNDARY
  6
CONTINUOUS
 62
 6 
 10
16.335069
 20
12.535844
 40
9.135454
 50
158.493683
 51
175.356323
  0
ARC
  8
BOUNDARY
  6
CONTINUOUS
 62
 6 
 10
11.000072
 20
14.638035
 40
3.401224
 50
150.781431
 51
158.493683
  0
ARC
  8
BOUNDARY
  6
CONTINUOUS
 62
 5 
 10
11.339955
 20
14.678823
 40
3.683467
 50
153.917448
 51
160.976893
  0
ARC
  8
BOUNDARY
  6
CONTINUOUS
 62
 6 
 10
16.512011
 20
12.895609
 40
9.154300
 50
160.976893
 51
171.486282
  0
ARC
  8
BOUNDARY
  6
CONTINUOUS
 62
 6 
 10
18.933727
 20
12.533088
 40
11.603000
 50
171.486282
 51
180.878155
  0
LINE
  8
BOUNDARY
  6
CONTINUOUS
 62
 6 
 10
7.332090
 20
12.355260
 11
7.343960
 21
11.580852
  0
LINE
  8
BOUNDARY
  6
CONTINUOUS
 62
 6 
 10
5.836395
 20
9.818070
 11
5.872570
 21
9.363224
  0
LINE
  8
BOUNDARY
  6
CONTINUOUS
 62
 6 
 10
5.872570
 20
9.363224
 11
5.703959
 21
9.402937
  0
ARC
  8
BOUNDARY
  6
CONTINUOUS
 62
 5 
 10
5.705459
 20
9.409305
 40
0.006542
 50
186.276841
 51
256.746690
  0
LINE
  8
BOUNDARY
  6
CONTINUOUS
 62
 6 
 10
5.698956
 20
9.408589
 11
5.643399
 21
9.913692
  0
LINE
  8
BOUNDARY
  6
CONTINUOUS
 62
 6 
 10
5.643399
 20
9.913692
 11
5.558433
 21
10.131557
  0
LINE
  8
BOUNDARY
  6
CONTINUOUS
 62
 6 
 10
5.558433
 20
10.131557
 11
5.535304
 21
10.377613
  0
LINE
  8
BOUNDARY
  6
CONTINUOUS
 62
 6 
 10
5.535304
 20
10.377613
 11
5.633532
 21
10.652924
  0
LINE
  8
BOUNDARY
  6
CONTINUOUS
 62
 6 
 10
5.633532
 20
10.652924
 11
5.638986
 21
10.812398
  0
LINE
  8
BOUNDARY
  6
CONTINUOUS
 62
 6 
 10
5.638986
 20
10.812398
 11
5.731759
 21
10.792510
  0
ARC
  8
BOUNDARY
  6
CONTINUOUS
 62
 6 
 10
5.722785
 20
10.750648
 40
0.042813
 50
14.507988
 51
77.900368
  0
LINE
  8
BOUNDARY
  6
CONTINUOUS
 62
 6 
 10
5.764233
 20
10.761373
 11
5.900857
 21
10.233392
  0
LINE
  8
BOUNDARY
  6
CONTINUOUS
 62
 6 
 10
5.900857
 20
10.233392
 11
5.836395
 21
9.818070
  0
ARC
  8
BOUNDARY
  6
CONTINUOUS
 62
 5 
 10
6.522379
 20
9.216896
 40
0.006542
 50
182.545437
 51
256.746690
  0
LINE
  8
BOUNDARY
  6
CONTINUOUS
 62
 6 
 10
6.515843
 20
9.216605
 11
6.496503
 21
9.651656
  0
LINE
  8
BOUNDARY
  6
CONTINUOUS
 62
 6 
 10
6.496503
 20
9.651656
 11
6.418369
 21
9.976899
  0
LINE
  8
BOUNDARY
  6
CONTINUOUS
 62
 6 
 10
6.418369
 20
9.976899
 11
6.416364
 21
10.645748
  0
LINE
  8
BOUNDARY
  6
CONTINUOUS
 62
 6 
 10
6.416364
 20
10.645748
 11
6.464882
 21
10.635347
  0
ARC
  8
BOUNDARY
  6
CONTINUOUS
 62
 6 
 10
6.455908
 20
10.593485
 40
0.042813
 50
13.852885
 51
77.900368
  0
LINE
  8
BOUNDARY
  6
CONTINUOUS
 62
 6 
 10
6.497476
 20
10.603736
 11
6.560230
 21
10.349259
  0
LINE
  8
BOUNDARY
  6
CONTINUOUS
 62
 6 
 10
6.560230
 20
10.349259
 11
6.685695
 21
9.974046
  0
LINE
  8
BOUNDARY
  6
CONTINUOUS
 62
 6 
 10
6.685695
 20
9.974046
 11
6.654849
 21
9.717546
  0
LINE
  8
BOUNDARY
  6
CONTINUOUS
 62
 6 
 10
6.654849
 20
9.717546
 11
6.615003
 21
9.188359
  0
LINE
  8
BOUNDARY
  6
CONTINUOUS
 62
 6 
 10
6.615003
 20
9.188359
 11
6.520879
 21
9.210528
  0
LINE
  8
BOUNDARY
  6
CONTINUOUS
 62
 6 
 10
7.397609
 20
9.004032
 11
7.259826
 21
9.036484
  0
ARC
  8
BOUNDARY
  6
CONTINUOUS
 62
 5 
 10
7.261326
 20
9.042852
 40
0.006542
 50
185.549082
 51
256.746690
  0
LINE
  8
BOUNDARY
  6
CONTINUOUS
 62
 6 
 10
7.254814
 20
9.042219
 11
7.237937
 21
9.215941
  0
LINE
  8
BOUNDARY
  6
CONTINUOUS
 62
 6 
 10
7.237937
 20
9.215941
 11
7.180266
 21
9.341729
  0
LINE
  8
BOUNDARY
  6
CONTINUOUS
 62
 6 
 10
7.180266
 20
9.341729
 11
7.161598
 21
9.698634
  0
LINE
  8
BOUNDARY
  6
CONTINUOUS
 62
 6 
 10
7.161598
 20
9.698634
 11
7.064544
 21
9.861139
  0
LINE
  8
BOUNDARY
  6
CONTINUOUS
 62
 6 
 10
7.064544
 20
9.861139
 11
7.052620
 21
9.919346
  0
LINE
  8
BOUNDARY
  6
CONTINUOUS
 62
 6 
 10
7.052620
 20
9.919346
 11
7.125323
 21
10.178387
  0
LINE
  8
BOUNDARY
  6
CONTINUOUS
 62
 6 
 10
7.125323
 20
10.178387
 11
7.165725
 21
10.485104
  0
LINE
  8
BOUNDARY
  6
CONTINUOUS
 62
 6 
 10
7.165725
 20
10.485104
 11
7.253097
 21
10.466374
  0
ARC
  8
BOUNDARY
  6
CONTINUOUS
 62
 6 
 10
7.244122
 20
10.424511
 40
0.042813
 50
12.948224
 51
77.900368
  0
LINE
  8
BOUNDARY
  6
CONTINUOUS
 62
 6 
 10
7.285847
 20
10.434105
 11
7.453316
 21
9.705714
  0
LINE
  8
BOUNDARY
  6
CONTINUOUS
 62
 6 
 10
7.453316
 20
9.705714
 11
7.388883
 21
9.435592
  0
LINE
  8
BOUNDARY
  6
CONTINUOUS
 62
 6 
 10
7.388883
 20
9.435592
 11
7.397609
 21
9.004032
  0
LINE
  8
BOUNDARY
  6
CONTINUOUS
 62
 6 
 10
8.290713
 20
8.793679
 11
8.272475
 21
9.065103
  0
LINE
  8
BOUNDARY
  6
CONTINUOUS
 62
 6 
 10
8.272475
 20
9.065103
 11
8.355550
 21
9.441184
  0
LINE
  8
BOUNDARY
  6
CONTINUOUS
 62
 6 
 10
8.355550
 20
9.441184
 11
8.363293
 21
9.690657
  0
LINE
  8
BOUNDARY
  6
CONTINUOUS
 62
 6 
 10
8.363293
 20
9.690657
 11
8.126336
 21
10.260305
  0
ARC
  8
BOUNDARY
  6
CONTINUOUS
 62
 6 
 10
8.086806
 20
10.243861
 40
0.042813
 50
22.585932
 51
77.900368
  0
LINE
  8
BOUNDARY
  6
CONTINUOUS
 62
 6 
 10
8.095780
 20
10.285724
 11
7.991700
 21
10.308036
  0
LINE
  8
BOUNDARY
  6
CONTINUOUS
 62
 6 
 10
7.991700
 20
10.308036
 11
7.959283
 21
10.001629
  0
ARC
  8
BOUNDARY
  6
CONTINUOUS
 62
 6 
 10
13.352334
 20
10.365245
 40
5.405295
 50
183.857231
 51
189.936511
  0
LINE
  8
BOUNDARY
  6
CONTINUOUS
 62
 6 
 10
8.028121
 20
9.432525
 11
8.132807
 21
8.834945
  0
ARC
  8
BOUNDARY
  6
CONTINUOUS
 62
 5 
 10
8.139252
 20
8.836074
 40
0.006542
 50
189.936511
 51
256.746690
  0
LINE
  8
BOUNDARY
  6
CONTINUOUS
 62
 6 
 10
8.137752
 20
8.829706
 11
8.290713
 21
8.793679
  0
LINE
  8
BOUNDARY
  6
CONTINUOUS
 62
 6 
 10
5.698661
 20
11.918029
 11
5.760729
 21
13.038481
  0
ARC
  8
BOUNDARY
  6
CONTINUOUS
 62
 6 
 10
14.455219
 20
12.556844
 40
8.707819
 50
161.018843
 51
176.829307
  0
ARC
  8
BOUNDARY
  6
CONTINUOUS
 62
 6 
 10
11.506358
 20
13.571134
 40
5.589396
 50
137.040066
 51
161.018843
  0
LINE
  8
BOUNDARY
  6
CONTINUOUS
 62
 6 
 10
6.507179
 20
11.736717
 11
6.533909
 21
13.217571
  0
ARC
  8
BOUNDARY
  6
CONTINUOUS
 62
 6 
 10
13.158775
 20
13.097988
 40
6.625944
 50
158.491194
 51
178.965890
  0
ARC
  8
BOUNDARY
  6
CONTINUOUS
 62
 6 
 10
12.500908
 20
13.357245
 40
5.918835
 50
137.705576
 51
158.491194
  0
LINE
  8
BOUNDARY
  6
CONTINUOUS
 62
 6 
 10
7.214976
 20
11.504456
 11
7.291589
 21
13.112943
  0
ARC
  8
BOUNDARY
  6
CONTINUOUS
 62
 6 
 10
16.433358
 20
12.677515
 40
9.152132
 50
158.921527
 51
177.273030
  0
ARC
  8
BOUNDARY
  6
CONTINUOUS
 62
 6 
 10
11.424887
 20
14.607961
 40
3.784507
 50
133.500044
 51
158.921527
  0
LINE
  8
BOUNDARY
  6
CONTINUOUS
 62
 6 
 10
5.645996
 20
10.328884
 11
5.725825
 21
9.706678
  0
LINE
  8
BOUNDARY
  6
CONTINUOUS
 62
 6 
 10
5.725825
 20
9.706678
 11
5.773517
 21
10.303039
  0
LINE
  8
BOUNDARY
  6
CONTINUOUS
 62
 6 
 10
5.773517
 20
10.303039
 11
5.712480
 21
10.504671
  0
LINE
  8
BOUNDARY
  6
CONTINUOUS
 62
 6 
 10
5.712480
 20
10.504671
 11
5.672515
 21
10.312182
  0
LINE
  8
BOUNDARY
  6
CONTINUOUS
 62
 6 
 10
6.558144
 20
9.575957
 11
6.589953
 21
9.970326
  0
LINE
  8
BOUNDARY
  6
CONTINUOUS
 62
 6 
 10
6.589953
 20
9.970326
 11
6.521424
 21
10.232018
  0
LINE
  8
BOUNDARY
  6
CONTINUOUS
 62
 6 
 10
6.521424
 20
10.232018
 11
6.498724
 21
9.945862
  0
LINE
  8
BOUNDARY
  6
CONTINUOUS
 62
 6 
 10
7.285171
 20
9.343785
 11
7.300548
 21
9.653945
  0
LINE
  8
BOUNDARY
  6
CONTINUOUS
 62
 6 
 10
7.300548
 20
9.653945
 11
7.341018
 21
9.738267
  0
LINE
  8
BOUNDARY
  6
CONTINUOUS
 62
 6 
 10
7.341018
 20
9.738267
 11
7.237937
 21
10.192099
  0
LINE
  8
BOUNDARY
  6
CONTINUOUS
 62
 6 
 10
7.237937
 20
10.192099
 11
7.164714
 21
9.915322
  0
LINE
  8
BOUNDARY
  6
CONTINUOUS
 62
 6 
 10
7.164714
 20
9.915322
 11
7.232929
 21
9.720935
  0
LINE
  8
BOUNDARY
  6
CONTINUOUS
 62
 6 
 10
8.185941
 20
8.968199
 11
8.074155
 21
9.741694
  0
LINE
  8
BOUNDARY
  6
CONTINUOUS
 62
 6 
 10
8.074155
 20
9.741694
 11
8.079984
 21
10.037386
  0
LINE
  8
BOUNDARY
  6
CONTINUOUS
 62
 6 
 10
8.079984
 20
10.037386
 11
8.242843
 21
9.651139
  0
LINE
  8
BOUNDARY
  6
CONTINUOUS
 62
 6 
 10
8.242843
 20
9.651139
 11
8.267588
 21
9.499816
  0
LINE
  8
BOUNDARY
  6
CONTINUOUS
 62
 6 
 10
8.267588
 20
9.499816
 11
8.234643
 21
9.348224
  0
LINE
  8
BOUNDARY
  6
CONTINUOUS
 62
 6 
 10
8.234643
 20
9.348224
 11
8.148940
 21
9.684353
  0
TEXT
  8
BOUNDARY
 62
 6 
 10
43.179483
 20
24.825556
 40
3.236238
  1
IF YOU DIG GEORGIA...
 50
0.000000
  7
CG0011
  0
TEXT
  8
BOUNDARY
 62
 6 
 10
51.655344
 20
19.585933
 40
3.236238
  1
CALL US FIRST!
 50
0.000000
  7
CG0011
  0
TEXT
  8
BOUNDARY
 62
 6 
 10
44.148153
 20
9.525748
 40
2.311599
  1
UTILITIES PROTECTION CENTER
 50
0.000000
  7
CG0012
  0
TEXT
  8
BOUNDARY
 62
 6 
 10
54.275156
 20
4.087377
 40
3.236238
  1
IT'S THE LAW
 50
0.000000
  7
CG0011
  0
ARC
  8
BOUNDARY
  6
CONTINUOUS
 62
 6 
 10
10.013241
 20
17.411386
 40
0.235211
 50
211.659400
 51
241.606693
  0
ARC
  8
BOUNDARY
  6
CONTINUOUS
 62
 6 
 10
19.789626
 20
23.122029
 40
0.373630
 50
30.563267
 51
148.249361
  0
ARC
  8
BOUNDARY
  6
CONTINUOUS
 62
 6 
 10
19.789466
 20
23.003190
 40
0.619946
 50
42.650229
 51
143.090572
  0
LINE
  8
BOUNDARY
  6
CONTINUOUS
 62
 6 
 10
25.480992
 20
20.968253
 11
26.889551
 21
20.424749
  0
LINE
  8
BOUNDARY
  6
CONTINUOUS
 62
 6 
 10
26.889551
 20
20.424749
 11
26.753631
 21
20.651378
  0
LINE
  8
BOUNDARY
  6
CONTINUOUS
 62
 6 
 10
26.753631
 20
20.651378
 11
25.431867
 21
21.223201
  0
LINE
  8
BOUNDARY
  6
CONTINUOUS
 62
 6 
 10
22.414250
 20
22.678577
 11
21.074071
 21
23.474188
  0
LINE
  8
BOUNDARY
  6
CONTINUOUS
 62
 6 
 10
21.074071
 20
23.474188
 11
20.629218
 21
23.583194
  0
LINE
  8
BOUNDARY
  6
CONTINUOUS
 62
 6 
 10
20.629218
 20
23.583194
 11
20.255158
 21
23.512986
  0
LINE
  8
BOUNDARY
  6
CONTINUOUS
 62
 6 
 10
20.255158
 20
23.512986
 11
20.012930
 21
23.170054
  0
LINE
  8
BOUNDARY
  6
CONTINUOUS
 62
 6 
 10
20.012930
 20
23.170054
 11
19.951756
 21
22.952096
  0
LINE
  8
BOUNDARY
  6
CONTINUOUS
 62
 6 
 10
19.951756
 20
22.952096
 11
19.936858
 21
22.835083
  0
LINE
  8
BOUNDARY
  6
CONTINUOUS
 62
 6 
 10
19.936858
 20
22.835083
 11
19.937714
 21
22.651896
  0
LINE
  8
BOUNDARY
  6
CONTINUOUS
 62
 6 
 10
19.937714
 20
22.651896
 11
20.015591
 21
22.523467
  0
LINE
  8
BOUNDARY
  6
CONTINUOUS
 62
 6 
 10
20.015591
 20
22.523467
 11
20.271023
 21
22.419683
  0
LINE
  8
BOUNDARY
  6
CONTINUOUS
 62
 6 
 10
20.271023
 20
22.419683
 11
20.466352
 21
22.388066
  0
LINE
  8
BOUNDARY
  6
CONTINUOUS
 62
 6 
 10
20.466352
 20
22.388066
 11
20.708996
 21
22.337256
  0
LINE
  8
BOUNDARY
  6
CONTINUOUS
 62
 6 
 10
20.708996
 20
22.337256
 11
20.820010
 21
22.073775
  0
LINE
  8
BOUNDARY
  6
CONTINUOUS
 62
 6 
 10
20.820010
 20
22.073775
 11
21.020833
 21
21.891180
  0
LINE
  8
BOUNDARY
  6
CONTINUOUS
 62
 6 
 10
21.020833
 20
21.891180
 11
20.902628
 21
21.550143
  0
LINE
  8
BOUNDARY
  6
CONTINUOUS
 62
 6 
 10
20.902628
 20
21.550143
 11
20.631041
 21
21.449944
  0
LINE
  8
BOUNDARY
  6
CONTINUOUS
 62
 6 
 10
20.631041
 20
21.449944
 11
19.778347
 21
21.779891
  0
LINE
  8
BOUNDARY
  6
CONTINUOUS
 62
 6 
 10
19.778347
 20
21.779891
 11
19.448405
 21
22.026246
  0
LINE
  8
BOUNDARY
  6
CONTINUOUS
 62
 6 
 10
19.448405
 20
22.026246
 11
19.289021
 21
22.447892
  0
LINE
  8
BOUNDARY
  6
CONTINUOUS
 62
 6 
 10
19.289021
 20
22.447892
 11
19.314799
 21
22.996861
  0
LINE
  8
BOUNDARY
  6
CONTINUOUS
 62
 6 
 10
19.314799
 20
22.996861
 11
19.410806
 21
23.139094
  0
LINE
  8
BOUNDARY
  6
CONTINUOUS
 62
 6 
 10
19.410806
 20
23.139094
 11
19.202360
 21
23.488778
  0
LINE
  8
BOUNDARY
  6
CONTINUOUS
 62
 6 
 10
19.202360
 20
23.488778
 11
18.679779
 21
23.639827
  0
LINE
  8
BOUNDARY
  6
CONTINUOUS
 62
 6 
 10
18.679779
 20
23.639827
 11
18.215580
 21
23.498199
  0
LINE
  8
BOUNDARY
  6
CONTINUOUS
 62
 6 
 10
18.215580
 20
23.498199
 11
14.737941
 21
19.965008
  0
LINE
  8
BOUNDARY
  6
CONTINUOUS
 62
 6 
 10
14.737941
 20
19.965008
 11
16.402340
 21
18.182189
  0
LINE
  8
BOUNDARY
  6
CONTINUOUS
 62
 6 
 10
16.402340
 20
18.182189
 11
19.559834
 21
21.148177
  0
LINE
  8
BOUNDARY
  6
CONTINUOUS
 62
 6 
 10
19.559834
 20
21.148177
 11
27.901335
 21
16.950627
  0
LINE
  8
BOUNDARY
  6
CONTINUOUS
 62
 6 
 10
27.901335
 20
16.950627
 11
27.335950
 21
19.049608
  0
LINE
  8
BOUNDARY
  6
CONTINUOUS
 62
 6 
 10
27.335950
 20
19.049608
 11
21.909198
 21
21.350716
  0
LINE
  8
BOUNDARY
  6
CONTINUOUS
 62
 6 
 10
21.909198
 20
21.350716
 11
22.003471
 21
21.745937
  0
LINE
  8
BOUNDARY
  6
CONTINUOUS
 62
 6 
 10
22.003471
 20
21.745937
 11
23.044225
 21
21.779284
  0
LINE
  8
BOUNDARY
  6
CONTINUOUS
 62
 6 
 10
23.044225
 20
21.779284
 11
25.095796
 21
20.899406
  0
LINE
  8
BOUNDARY
  6
CONTINUOUS
 62
 6 
 10
25.095796
 20
20.899406
 11
25.480992
 21
20.968253
  0
LINE
  8
BOUNDARY
  6
CONTINUOUS
 62
 6 
 10
25.480992
 20
20.968253
 11
25.431867
 21
21.223201
  0
LINE
  8
BOUNDARY
  6
CONTINUOUS
 62
 6 
 10
25.431867
 20
21.223201
 11
25.230341
 21
21.505882
  0
LINE
  8
BOUNDARY
  6
CONTINUOUS
 62
 6 
 10
25.230341
 20
21.505882
 11
23.741913
 21
22.026059
  0
LINE
  8
BOUNDARY
  6
CONTINUOUS
 62
 6 
 10
23.741913
 20
22.026059
 11
23.309719
 21
22.351254
  0
LINE
  8
BOUNDARY
  6
CONTINUOUS
 62
 6 
 10
23.309719
 20
22.351254
 11
22.426999
 21
22.672537
  0
LINE
  8
BOUNDARY
  6
CONTINUOUS
 62
 6 
 10
25.465258
 20
21.082052
 11
26.789943
 21
20.555032
  0
ARC
  8
BOUNDARY
  6
CONTINUOUS
 62
 6 
 10
15.002452
 20
9.256690
 40
0.993753
 50
269.794220
 51
-37.946680
  0
ARC
  8
BOUNDARY
  6
CONTINUOUS
 62
 6 
 10
11.926204
 20
11.655511
 40
4.894733
 50
-37.946680
 51
-9.179806
  0
LINE
  8
BOUNDARY
  6
CONTINUOUS
 62
 5 
 10
16.758248
 20
10.874638
 11
17.043236
 21
10.873615
  0
LINE
  8
BOUNDARY
  6
CONTINUOUS
 62
 6 
 10
17.043236
 20
10.873615
 11
17.844683
 21
10.015146
  0
LINE
  8
BOUNDARY
  6
CONTINUOUS
 62
 6 
 10
17.844683
 20
10.015146
 11
17.838036
 21
8.164203
  0
ARC
  8
BOUNDARY
  6
CONTINUOUS
 62
 6 
 10
13.212050
 20
8.180816
 40
4.626015
 50
-15.459920
 51
-0.205768
  0
ARC
  8
BOUNDARY
  6
CONTINUOUS
 62
 6 
 10
13.647204
 20
8.060465
 40
4.174525
 50
-71.324014
 51
-15.459920
  0
ARC
  8
BOUNDARY
  6
CONTINUOUS
 62
 6 
 10
16.349073
 20
8.050762
 40
4.174525
 50
195.048394
 51
250.912478
  0
ARC
  8
BOUNDARY
  6
CONTINUOUS
 62
 6 
 10
16.785080
 20
8.167984
 40
4.626015
 50
179.794242
 51
195.048394
  0
LINE
  8
BOUNDARY
  6
CONTINUOUS
 62
 6 
 10
12.159094
 20
8.184598
 11
12.168814
 21
10.891120
  0
LINE
  8
BOUNDARY
  6
CONTINUOUS
 62
 6 
 10
12.168814
 20
10.891120
 11
13.258322
 21
10.887208
  0
ARC
  8
BOUNDARY
  6
CONTINUOUS
 62
 6 
 10
18.095850
 20
11.633354
 40
4.894733
 50
188.768270
 51
217.535154
  0
ARC
  8
BOUNDARY
  6
CONTINUOUS
 62
 6 
 10
15.002452
 20
9.256690
 40
0.993753
 50
217.535154
 51
269.794220
  0
LINE
  8
BOUNDARY
  6
CONTINUOUS
 62
 6 
 10
15.245815
 20
12.798920
 11
14.786299
 21
13.291131
  0
LINE
  8
BOUNDARY
  6
CONTINUOUS
 62
 6 
 10
14.786299
 20
13.291131
 11
14.783638
 21
12.550126
  0
ARC
  8
BOUNDARY
  6
CONTINUOUS
 62
 6 
 10
12.809623
 20
12.557216
 40
1.974027
 50
-53.357527
 51
-0.205768
  0
ARC
  8
BOUNDARY
  6
CONTINUOUS
 62
 6 
 10
18.095850
 20
11.633354
 40
4.160775
 50
189.127728
 51
217.535154
  0
ARC
  8
BOUNDARY
  6
CONTINUOUS
 62
 5 
 10
15.002452
 20
9.256690
 40
0.259795
 50
217.535154
 51
269.794220
  0
ARC
  8
BOUNDARY
  6
CONTINUOUS
 62
 6 
 10
15.002452
 20
9.256690
 40
0.259795
 50
269.794220
 51
-37.946680
  0
ARC
  8
BOUNDARY
  6
CONTINUOUS
 62
 6 
 10
11.926204
 20
11.655511
 40
4.160775
 50
-37.946680
 51
-9.539265
  0
ARC
  8
BOUNDARY
  6
CONTINUOUS
 62
 6 
 10
17.218930
 20
12.541380
 40
1.974027
 50
179.794242
 51
232.945990
  0
LINE
  8
BOUNDARY
  6
CONTINUOUS
 62
 6 
 10
15.244916
 20
12.548470
 11
15.245815
 21
12.798920
  0
LINE
  8
BOUNDARY
  6
CONTINUOUS
 62
 6 
 10
13.327369
 20
27.333683
 11
13.310867
 21
26.371437
  0
ARC
  8
BOUNDARY
  6
CONTINUOUS
 62
 6 
 10
13.997383
 20
26.323858
 40
0.688162
 50
176.035502
 51
247.200236
  0
ARC
  8
BOUNDARY
  6
CONTINUOUS
 62
 6 
 10
13.023113
 20
24.006133
 40
1.826007
 50
38.198250
 51
67.200244
  0
ARC
  8
BOUNDARY
  6
CONTINUOUS
 62
 6 
 10
12.985280
 20
23.976364
 40
1.874148
 50
-0.205768
 51
38.198250
  0
LINE
  8
BOUNDARY
  6
CONTINUOUS
 62
 6 
 10
14.859416
 20
23.969633
 11
14.845530
 21
20.102988
  0
LINE
  8
BOUNDARY
  6
CONTINUOUS
 62
 6 
 10
14.845530
 20
20.102988
 11
15.235778
 21
19.684975
  0
LINE
  8
BOUNDARY
  6
CONTINUOUS
 62
 6 
 10
15.235778
 20
19.684975
 11
15.251160
 21
23.968226
  0
ARC
  8
BOUNDARY
  6
CONTINUOUS
 62
 6 
 10
17.125296
 20
23.961496
 40
1.874148
 50
141.390223
 51
179.794242
  0
ARC
  8
BOUNDARY
  6
CONTINUOUS
 62
 6 
 10
17.087679
 20
23.991536
 40
1.826007
 50
112.388227
 51
141.390223
  0
ARC
  8
BOUNDARY
  6
CONTINUOUS
 62
 6 
 10
16.130081
 20
26.316199
 40
0.688162
 50
-67.611773
 51
3.552977
  0
LINE
  8
BOUNDARY
  6
CONTINUOUS
 62
 6 
 10
16.816921
 20
26.358846
 11
16.807331
 21
27.321185
  0
LINE
  8
BOUNDARY
  6
CONTINUOUS
 62
 6 
 10
16.807331
 20
27.321185
 11
13.327369
 21
27.333683
  0
LINE
  8
BOUNDARY
  6
CONTINUOUS
 62
 6 
 10
13.634311
 20
26.743732
 11
13.632889
 21
26.347529
  0
ARC
  8
BOUNDARY
  6
CONTINUOUS
 62
 6 
 10
14.593156
 20
26.344080
 40
0.960273
 50
179.794242
 51
227.817843
  0
ARC
  8
BOUNDARY
  6
CONTINUOUS
 62
 6 
 10
15.626747
 20
27.484686
 40
2.499524
 50
227.817843
 51
242.733800
  0
ARC
  8
BOUNDARY
  6
CONTINUOUS
 62
 6 
 10
14.200681
 20
24.717731
 40
0.613305
 50
20.173730
 51
62.733792
  0
ARC
  8
BOUNDARY
  6
CONTINUOUS
 62
 6 
 10
15.077412
 20
25.039848
 40
0.320727
 50
200.173730
 51
266.527354
  0
ARC
  8
BOUNDARY
  6
CONTINUOUS
 62
 6 
 10
15.040857
 20
25.039980
 40
0.320727
 50
-86.938880
 51
-20.585267
  0
ARC
  8
BOUNDARY
  6
CONTINUOUS
 62
 6 
 10
15.915252
 20
24.711573
 40
0.613305
 50
116.854662
 51
159.414732
  0
ARC
  8
BOUNDARY
  6
CONTINUOUS
 62
 6 
 10
14.509097
 20
27.488700
 40
2.499524
 50
-63.145326
 51
-48.229368
  0
ARC
  8
BOUNDARY
  6
CONTINUOUS
 62
 6 
 10
15.534469
 20
26.340700
 40
0.960273
 50
-48.229368
 51
-0.205768
  0
LINE
  8
BOUNDARY
  6
CONTINUOUS
 62
 6 
 10
16.494736
 20
26.337251
 11
16.496159
 21
26.733454
  0
LINE
  8
BOUNDARY
  6
CONTINUOUS
 62
 6 
 10
16.496159
 20
26.733454
 11
13.634311
 21
26.743732
  0
LINE
  8
BOUNDARY
  6
CONTINUOUS
 62
 6 
 10
13.487722
 20
26.891378
 11
13.485771
 21
26.348057
  0
ARC
  8
BOUNDARY
  6
CONTINUOUS
 62
 6 
 10
14.593156
 20
26.344080
 40
1.107391
 50
179.794242
 51
214.877514
  0
ARC
  8
BOUNDARY
  6
CONTINUOUS
 62
 6 
 10
15.534469
 20
26.340700
 40
1.107391
 50
-35.289051
 51
-0.205768
  0
LINE
  8
BOUNDARY
  6
CONTINUOUS
 62
 6 
 10
16.641853
 20
26.336723
 11
16.643805
 21
26.880043
  0
LINE
  8
BOUNDARY
  6
CONTINUOUS
 62
 6 
 10
16.643805
 20
26.880043
 11
13.487722
 21
26.891378
  0
LINE
  8
BOUNDARY
  6
CONTINUOUS
 62
 6 
 10
13.444324
 20
27.031449
 11
16.634456
 21
27.019993
  0
LINE
  8
BOUNDARY
  6
CONTINUOUS
 62
 6 
 10
16.697250
 20
27.199647
 11
13.431871
 21
27.211374
  0
LINE
  8
BOUNDARY
  6
CONTINUOUS
 62
 6 
 10
14.957131
 20
20.423678
 11
14.972238
 21
24.630306
  0
LINE
  8
BOUNDARY
  6
CONTINUOUS
 62
 6 
 10
15.121737
 20
20.527800
 11
15.136418
 21
24.615941
  0
LINE
  8
BOUNDARY
  6
CONTINUOUS
 62
 6 
 10
15.287910
 20
24.643040
 11
15.186011
 21
24.447610
  0
LINE
  8
BOUNDARY
  6
CONTINUOUS
 62
 6 
 10
14.830149
 20
24.732746
 11
14.944589
 21
24.421980
  0
TEXT
  8
BOUNDARY
 62
 6 
 10
65.833149
 20
14.346309
 40
3.236238
  1
811
 50
0.000000
  7
CG0011
  0
ENDBLK
  8
0
  0
BLOCK
  8
0
  2
GPSEQUIP
 70
    64
 10
2.000000
 20
2.000000
  0
TEXT
  8
BOUNDARY
 62
 6 
 10
0.248633
 20
2.786885
 40
0.080000
  1
TYPE OF GPS USED WAS REAL TIME KINEMEATIC (RTK).
 50
0.000000
  7
CG0002
  0
TEXT
  8
BOUNDARY
 62
 6 
 10
0.268524
 20
2.393442
 40
0.080000
  1
MADE BY LEICA AND IS GPS UNITS GS16 OR GS18T AND
 50
0.000000
  7
CG0002
  0
TEXT
  8
BOUNDARY
 62
 6 
 10
0.238688
 20
1.978142
 40
0.080000
  1
THE RELATIVE POSITION ACCURACY OF THIS SURVEY
 50
0.000000
  7
CG0002
  0
TEXT
  8
BOUNDARY
 62
 6 
 10
0.268524
 20
1.814207
 40
0.080000
  1
IS _______.
 50
0.000000
  7
CG0002
  0
TEXT
  8
BOUNDARY
 62
 6 
 10
0.238688
 20
3.497267
 40
0.080000
  1
ALL OR A PORTION OF THIS SURVEY WAS PERFORMED
 50
0.000000
  7
CG0002
  0
TEXT
  8
BOUNDARY
 62
 6 
 10
0.268524
 20
3.333333
 40
0.080000
  1
BY GPS.
 50
0.000000
  7
CG0002
  0
TEXT
  8
BOUNDARY
 62
 6 
 10
0.248633
 20
3.092896
 40
0.080000
  1
____% OF THIS SURVEY WAS PERFORMED BY GPS.
 50
0.000000
  7
CG0002
  0
TEXT
  8
BOUNDARY
 62
 6 
 10
0.278469
 20
2.229508
 40
0.080000
  1
ARE SINGLE FREQUENCY RECEIVERS.
 50
0.000000
  7
CG0002
  0
TEXT
  8
BOUNDARY
 62
 6 
 10
0.238688
 20
2.546448
 40
0.080000
  1
THE GPS EQUIPMENT USED TO PERFORM THIS SURVEY IS
 50
0.000000
  7
CG0002
  0
ENDBLK
  8
0
  0
BLOCK
  8
0
  2
GRIDNORT
 70
    64
 10
0.375000
 20
1.250000
  0
TEXT
  8
BOUNDARY
 10
0.226078
 20
1.144207
 40
0.053566
  1
NORTH
 50
0.000000
  7
CG0013
  0
LINE
  8
BOUNDARY
  6
CONTINUOUS
 62
 1 
 10
0.373890
 20
1.449102
 11
0.373890
 21
1.571061
  0
LINE
  8
BOUNDARY
  6
CONTINUOUS
 62
 1 
 10
0.373890
 20
1.571061
 11
0.282828
 21
1.497886
  0
LINE
  8
BOUNDARY
  6
CONTINUOUS
 62
 1 
 10
0.373890
 20
1.571061
 11
0.451943
 21
1.506016
  0
LINE
  8
BOUNDARY
  6
CONTINUOUS
 62
 1 
 10
0.451943
 20
1.506016
 11
0.386899
 21
2.481682
  0
LINE
  8
BOUNDARY
  6
CONTINUOUS
 62
 1 
 10
0.386899
 20
2.481682
 11
0.282828
 21
1.497886
  0
LINE
  8
BOUNDARY
  6
CONTINUOUS
 62
 1 
 10
0.371212
 20
0.909090
 11
0.265151
 21
0.823863
  0
LINE
  8
BOUNDARY
  6
CONTINUOUS
 62
 1 
 10
0.371212
 20
0.909090
 11
0.484848
 21
0.823863
  0
LINE
  8
BOUNDARY
  6
CONTINUOUS
 62
 1 
 10
0.484848
 20
0.823863
 11
0.484848
 21
0.056818
  0
LINE
  8
BOUNDARY
  6
CONTINUOUS
 62
 1 
 10
0.484848
 20
0.056818
 11
0.371212
 21
0.208333
  0
LINE
  8
BOUNDARY
  6
CONTINUOUS
 62
 1 
 10
0.371212
 20
0.208333
 11
0.272727
 21
0.056818
  0
LINE
  8
BOUNDARY
  6
CONTINUOUS
 62
 1 
 10
0.272727
 20
0.056818
 11
0.272727
 21
0.823863
  0
CIRCLE
  8
BOUNDARY
  6
CONTINUOUS
 62
 1 
 10
0.364325
 20
1.189738
 40
0.149219
  0
LINE
  8
BOUNDARY
  6
CONTINUOUS
 62
 1 
 10
0.373507
 20
0.914256
 11
0.373507
 21
0.994605
  0
LINE
  8
BOUNDARY
  6
CONTINUOUS
 62
 1 
 10
0.522727
 20
1.183712
 11
0.651515
 21
1.183712
  0
LINE
  8
BOUNDARY
  6
CONTINUOUS
 62
 1 
 10
0.212121
 20
1.183712
 11
0.083333
 21
1.183712
  0
TEXT
  8
BOUNDARY
 62
 6 
 10
0.232412
 20
1.341302
 40
0.080000
  1
G
 50
38.703991
  7
CG0010
  0
TEXT
  8
BOUNDARY
 62
 6 
 10
0.293319
 20
1.375129
 40
0.080000
  1
R
 50
19.390493
  7
CG0010
  0
TEXT
  8
BOUNDARY
 62
 6 
 10
0.361985
 20
1.386908
 40
0.080000
  1
I
 50
0.076990
  7
CG0010
  0
TEXT
  8
BOUNDARY
 62
 6 
 10
0.388580
 20
1.385234
 40
0.080000
  1
D
 50
-7.280534
  7
CG0010
  0
ENDBLK
  8
0
  0
BLOCK
  8
0
  2
LEGEND1
 70
    64
 10
1.250000
 20
1.250000
  0
TEXT
  8
BOUNDARY
 62
 6 
 10
0.993854
 20
2.330188
 40
0.080000
  1
LEGEND
 50
0.000000
  7
CG0010
  0
TEXT
  8
BOUNDARY
 62
 6 
 10
0.124514
 20
2.128508
 40
0.080000
  1
P.O.B.   POINT OF BEGINNING
 50
0.000000
  7
CG0002
  0
TEXT
  8
BOUNDARY
 62
 6 
 10
0.127537
 20
2.003792
 40
0.080000
  1
IPF      IRON PIN FOUND
 50
0.000000
  7
CG0002
  0
TEXT
  8
BOUNDARY
 62
 6 
 10
0.124514
 20
1.879075
 40
0.080000
  1
IPP      IRON PIN PLACED
 50
0.000000
  7
CG0002
  0
TEXT
  8
BOUNDARY
 62
 6 
 10
0.124514
 20
1.754359
 40
0.080000
  1
RB       REBAR
 50
0.000000
  7
CG0002
  0
TEXT
  8
BOUNDARY
 62
 6 
 10
0.124348
 20
1.503642
 40
0.080000
  1
OTP      OPEN TOP PIPE
 50
0.000000
  7
CG0002
  0
TEXT
  8
BOUNDARY
 62
 6 
 10
0.124514
 20
1.625863
 40
0.080000
  1
MTP      MASH TOP PIPE
 50
0.000000
  7
CG0002
  0
TEXT
  8
BOUNDARY
 62
 6 
 10
0.124348
 20
1.378997
 40
0.080000
  1
R/W      RIGHT-OF-WAY
 50
0.000000
  7
CG0002
  0
TEXT
  8
BOUNDARY
 62
 6 
 10
0.124348
 20
1.254352
 40
0.080000
  1
B/L      BUILDING LINE
 50
0.000000
  7
CG0002
  0
TEXT
  8
BOUNDARY
 62
 6 
 10
0.124348
 20
1.126427
 40
0.080000
  1
N/F      NOW OR FORMERLY
 50
0.000000
  7
CG0002
  0
TEXT
  8
BOUNDARY
 62
 6 
 10
0.124348
 20
1.001782
 40
0.080000
  1
DB       DEED BOOK
 50
0.000000
  7
CG0002
  0
TEXT
  8
BOUNDARY
 62
 6 
 10
0.125286
 20
0.878862
 40
0.080000
  1
PB       PLAT BOOK
 50
0.000000
  7
CG0002
  0
TEXT
  8
BOUNDARY
 62
 6 
 10
0.125286
 20
0.754787
 40
0.080000
  1
PG       PAGE
 50
0.000000
  7
CG0002
  0
TEXT
  8
BOUNDARY
 62
 6 
 10
0.125286
 20
0.625543
 40
0.080000
  1
L.L.     LAND LOT
 50
0.000000
  7
CG0002
  0
TEXT
  8
BOUNDARY
 62
 6 
 10
0.125286
 20
0.501468
 40
0.080000
  1
L.L.L.   LAND LOT LINE
 50
0.000000
  7
CG0002
  0
TEXT
  8
BOUNDARY
 62
 6 
 10
0.125286
 20
0.377393
 40
0.080000
  1
P/L      PROPERTY LINE
 50
0.000000
  7
CG0002
  0
TEXT
  8
BOUNDARY
 62
 6 
 10
0.120845
 20
0.254909
 40
0.080000
  1
C/L      CENTER LINE
 50
0.000000
  7
CG0002
  0
LINE
  8
BOUNDARY
  6
CONTINUOUS
 62
 6 
 10
0.000000
 20
2.501888
 11
0.000000
 21
0.000000
  0
LINE
  8
BOUNDARY
  6
CONTINUOUS
 62
 6 
 10
2.500000
 20
0.000000
 11
2.500000
 21
2.501888
  0
LINE
  8
BOUNDARY
  6
CONTINUOUS
 62
 6 
 10
2.500000
 20
2.501888
 11
0.000000
 21
2.501888
  0
TEXT
  8
BOUNDARY
 62
 6 
 10
0.098113
 20
0.132075
 40
0.080000
  1
P/C
 50
0.000000
  7
CG0010
  0
TEXT
  8
BOUNDARY
 62
 6 
 10
0.845283
 20
0.122641
 40
0.080000
  1
PROPERTY CORNER
 50
0.000000
  7
CG0010
  0
ENDBLK
  8
0
  0
BLOCK
  8
0
  2
MADE_FOR
 70
    64
 10
2.250000
 20
1.000000
  0
TEXT
  8
BOUNDARY
 62
 1 
 10
1.250570
 20
1.053439
 40
0.140000
  1
PROPERTY LOCATED IN:
 50
0.000000
  7
CG0005
  0
TEXT
  8
BOUNDARY
 62
 1 
 10
1.498543
 20
1.776699
 40
0.140000
  1
SURVEY MADE FOR:
 50
0.000000
  7
CG0005
  0
TEXT
  8
BOUNDARY
 62
 1 
 10
0.280000
 20
0.207524
 40
0.140000
  1
Scale: 1"=     *
 50
0.000000
  7
CG0005
  0
TEXT
  8
BOUNDARY
 62
 1 
 10
0.110388
 20
0.798890
 40
0.140000
  1
LAND LOT               DISTRICT
 50
0.000000
  7
CG0005
  0
TEXT
  8
BOUNDARY
 62
 1 
 10
1.945566
 20
0.489704
 40
0.140000
  1
COUNTY,    GEORGIA
 50
0.000000
  7
CG0005
  0
ENDBLK
  8
0
  0
BLOCK
  8
0
  2
MAPCLOSU
 70
    64
 10
1.376500
 20
0.375000
  0
TEXT
  8
BOUNDARY
 62
 6 
 10
0.022633
 20
0.578565
 40
0.080000
  1
THIS MAP OR PLAT HAS BEEN
 50
0.000000
  7
CG0002
  0
TEXT
  8
BOUNDARY
 62
 6 
 10
0.060281
 20
0.396134
 40
0.080000
  1
CALCULATED FOR CLOSURE AND
 50
0.000000
  7
CG0002
  0
TEXT
  8
BOUNDARY
 62
 6 
 10
0.016068
 20
0.229544
 40
0.080000
  1
IS FOUND TO BE ACCURATE WITHIN
 50
0.000000
  7
CG0002
  0
TEXT
  8
BOUNDARY
 62
 6 
 10
0.042848
 20
0.053560
 40
0.080000
  1
ONE FOOT IN __________ FEET.
 50
0.000000
  7
CG0002
  0
ENDBLK
  8
0
  0
BLOCK
  8
0
  2
MB
 70
    64
 10
0.500000
 20
0.500000
  0
LINE
  8
BOUNDARY
  6
CONTINUOUS
 62
 6 
 10
0.000000
 20
0.000000
 11
1.000000
 21
0.000000
  0
LINE
  8
BOUNDARY
  6
CONTINUOUS
 62
 6 
 10
1.000000
 20
0.000000
 11
1.000000
 21
1.000000
  0
LINE
  8
BOUNDARY
  6
CONTINUOUS
 62
 6 
 10
1.000000
 20
1.000000
 11
0.000000
 21
1.000000
  0
LINE
  8
BOUNDARY
  6
CONTINUOUS
 62
 6 
 10
0.000000
 20
1.000000
 11
0.000000
 21
0.000000
  0
ENDBLK
  8
0
  0
BLOCK
  8
0
  2
NOTITLE
 70
    64
 10
2.500000
 20
1.000000
  0
TEXT
  8
BOUNDARY
 62
 6 
 10
0.768062
 20
1.723301
 40
0.080000
  1
THIS SURVEY WAS PREPARED WITHOUT THE
 50
0.000000
  7
CG0002
  0
TEXT
  8
BOUNDARY
 62
 6 
 10
0.757281
 20
1.577669
 40
0.080000
  1
THE BENEFIT OF A TITLE COMMITMENT,
 50
0.000000
  7
CG0002
  0
TEXT
  8
BOUNDARY
 62
 6 
 10
0.756894
 20
1.436884
 40
0.080000
  1
THEREFORE, ALL EASEMENTS AND MATTERS
 50
0.000000
  7
CG0002
  0
TEXT
  8
BOUNDARY
 62
 6 
 10
0.764806
 20
1.298418
 40
0.080000
  1
OF RECORD MAY NOT BE SHOWN HEREON.
 50
0.000000
  7
CG0002
  0
ENDBLK
  8
0
  0
BLOCK
  8
0
  2
OUTSIDE
 70
    64
 10
1.250000
 20
0.750000
  0
TEXT
  8
BOUNDARY
 62
 6 
 10
0.033980
 20
1.397631
 40
0.080000
  1
BASED ON THE INFORMATION SHOWN ON
 50
0.000000
  7
CG0002
  0
TEXT
  8
BOUNDARY
 62
 6 
 10
0.004854
 20
1.237597
 40
0.080000
  1
THE FLOOD HAZARD BOUNDARY MAPS
 50
0.000000
  7
CG0002
  0
TEXT
  8
BOUNDARY
 62
 6 
 10
0.019417
 20
1.088232
 40
0.080000
  1
FURNISHED BY THE FEDERAL EMERGENCY
 50
0.000000
  7
CG0002
  0
TEXT
  8
BOUNDARY
 62
 6 
 10
0.009708
 20
0.960204
 40
0.080000
  1
MANAGEMENT AGENCY.  IT IS MY OPINION
 50
0.000000
  7
CG0002
  0
TEXT
  8
BOUNDARY
 62
 6 
 10
0.041904
 20
0.832177
 40
0.080000
  1
THAT THIS PROPERTY IS OUTSIDE OF
 50
0.000000
  7
CG0002
  0
TEXT
  8
BOUNDARY
 62
 6 
 10
-0.006019
 20
0.527961
 40
0.080000
  1
PANEL #
 50
0.000000
  7
CG0010
  0
LINE
  8
BOUNDARY
  6
CONTINUOUS
 62
 6 
 10
0.655339
 20
0.533980
 11
2.451456
 21
0.533980
  0
TEXT
  8
BOUNDARY
 62
 6 
 10
0.029126
 20
0.697815
 40
0.080000
  1
THE 100 YR FLOOD HAZARD AREA.
 50
0.000000
  7
CG0002
  0
ENDBLK
  8
0
  0
BLOCK
  8
0
  2
RETRACE
 70
    64
 10
2.500000
 20
2.000000
  0
TEXT
  8
BOUNDARY
 62
 6 
 10
0.188961
 20
3.890710
 40
0.080000
  1
THIS PLAT IS A RETRACEMENT OF AN EXISTING PARCEL OR
 50
-0.138992
  7
CG0010
  0
TEXT
  8
BOUNDARY
 62
 6 
 10
0.218797
 20
3.704918
 40
0.080000
  1
PARCELS OF LAND AND DOES NOT SUBDIVIDE OR CREATE A
 50
-0.138680
  7
CG0010
  0
TEXT
  8
BOUNDARY
 62
 6 
 10
0.226661
 20
3.539227
 40
0.080000
  1
NEW PARCEL OR MAKE ANY CHANGES TO ANY REAL PROPERTY
 50
0.000000
  7
CG0010
  0
TEXT
  8
BOUNDARY
 62
 6 
 10
0.221980
 20
3.163739
 40
0.080000
  1
DOCUMENTS, MAPS, PLATS, OR OTHER INSTRUMENTS WHICH
 50
0.000000
  7
CG0010
  0
TEXT
  8
BOUNDARY
 62
 6 
 10
0.217299
 20
2.999142
 40
0.080000
  1
CREATED THE PARCEL OR PARCELS ARE STATED HEREON.
 50
0.138686
  7
CG0010
  0
TEXT
  8
BOUNDARY
 62
 6 
 10
0.226661
 20
2.844833
 40
0.080000
  1
RECORDATION OF THIS PLAT DOES NOT IMPLY APPROVAL
 50
0.000000
  7
CG0010
  0
TEXT
  8
BOUNDARY
 62
 6 
 10
0.223733
 20
2.501339
 40
0.080000
  1
COMPLIANCE WITH LOCAL REGULATIONS OR REQUIREMENTS,
 50
0.000000
  7
CG0010
  0
TEXT
  8
BOUNDARY
 62
 6 
 10
0.228802
 20
2.339791
 40
0.080000
  1
OR SUITABILITY FOR ANY USE OR PURPOSE OF THE LAND.
 50
0.000000
  7
CG0010
  0
TEXT
  8
BOUNDARY
 62
 6 
 10
0.228802
 20
2.167102
 40
0.080000
  1
FURTHERMORE, THE UNDERSIGNED LAND SURVEYOR CERTIFIES
 50
0.000000
  7
CG0010
  0
TEXT
  8
BOUNDARY
 62
 6 
 10
0.200401
 20
1.964987
 40
0.080000
  1
THAT THIS PLAT COMPLIES WITH THE MINIMUM TECHNICAL
 50
0.000000
  7
CG0010
  0
TEXT
  8
BOUNDARY
 62
 6 
 10
0.220269
 20
1.761211
 40
0.080000
  1
STANDARDS FOR PROPERTY SURVEYS IN GEORGIA AS SET
 50
0.000000
  7
CG0010
  0
TEXT
  8
BOUNDARY
 62
 6 
 10
0.233515
 20
1.557434
 40
0.080000
  1
FORTH IN THE RULES AND REGULATIONS OF THE GEORGIA
 50
0.000000
  7
CG0010
  0
TEXT
  8
BOUNDARY
 62
 6 
 10
0.226892
 20
1.346380
 40
0.080000
  1
BOARD OF REGISTRATION FOR PROFESSIONAL ENGINEERS AND
 50
0.000000
  7
CG0010
  0
TEXT
  8
BOUNDARY
 62
 6 
 10
0.231342
 20
3.348911
 40
0.080000
  1
BOUNDARIES.  THE RECORDING INFORMATION OF THE
 50
0.000000
  7
CG0010
  0
TEXT
  8
BOUNDARY
 62
 6 
 10
0.223733
 20
2.668457
 40
0.080000
  1
OF ANY LOCAL JURISDICTION, AVAILABILITY OF PERMITS,
 50
0.000000
  7
CG0010
  0
TEXT
  8
BOUNDARY
 62
 6 
 10
0.240138
 20
1.171714
 40
0.080000
  1
LAND SURVEYORS AND AS SET FORTH IN O.C.G.A. SECTION
 50
0.000000
  7
CG0010
  0
LINE
  8
BOUNDARY
  6
CONTINUOUS
 62
 6 
 10
0.249004
 20
0.503480
 11
4.452191
 21
0.503480
  0
POLYLINE
  8
BOUNDARY
  6
CONTINUOUS
 62
 1 
 66
  1
  0
VERTEX
  8
BOUNDARY
  6
CONTINUOUS
 62
 1 
 10
0.288844
 20
0.021910
  0
VERTEX
  8
BOUNDARY
  6
CONTINUOUS
 62
 1 
 10
0.288844
 20
0.021910
  0
VERTEX
  8
BOUNDARY
  6
CONTINUOUS
 62
 1 
 10
0.288844
 20
0.021909
  0
VERTEX
  8
BOUNDARY
  6
CONTINUOUS
 62
 1 
 10
0.288844
 20
0.021909
  0
VERTEX
  8
BOUNDARY
  6
CONTINUOUS
 62
 1 
 10
0.288844
 20
0.021908
  0
VERTEX
  8
BOUNDARY
  6
CONTINUOUS
 62
 1 
 10
0.288844
 20
0.021908
  0
VERTEX
  8
BOUNDARY
  6
CONTINUOUS
 62
 1 
 10
0.288844
 20
0.021907
  0
VERTEX
  8
BOUNDARY
  6
CONTINUOUS
 62
 1 
 10
0.288844
 20
0.021907
  0
VERTEX
  8
BOUNDARY
  6
CONTINUOUS
 62
 1 
 10
0.288844
 20
0.021906
  0
VERTEX
  8
BOUNDARY
  6
CONTINUOUS
 62
 1 
 10
0.288844
 20
0.021906
  0
VERTEX
  8
BOUNDARY
  6
CONTINUOUS
 62
 1 
 10
0.288844
 20
0.021905
  0
VERTEX
  8
BOUNDARY
  6
CONTINUOUS
 62
 1 
 10
0.288844
 20
0.021905
  0
VERTEX
  8
BOUNDARY
  6
CONTINUOUS
 62
 1 
 10
0.288844
 20
0.021904
  0
VERTEX
  8
BOUNDARY
  6
CONTINUOUS
 62
 1 
 10
0.288844
 20
0.021904
  0
VERTEX
  8
BOUNDARY
  6
CONTINUOUS
 62
 1 
 10
0.288844
 20
0.021903
  0
VERTEX
  8
BOUNDARY
  6
CONTINUOUS
 62
 1 
 10
0.288844
 20
0.021903
  0
VERTEX
  8
BOUNDARY
  6
CONTINUOUS
 62
 1 
 10
0.288844
 20
0.021902
  0
VERTEX
  8
BOUNDARY
  6
CONTINUOUS
 62
 1 
 10
0.288844
 20
0.021902
  0
VERTEX
  8
BOUNDARY
  6
CONTINUOUS
 62
 1 
 10
0.288844
 20
0.021901
  0
VERTEX
  8
BOUNDARY
  6
CONTINUOUS
 62
 1 
 10
0.288844
 20
0.021901
  0
VERTEX
  8
BOUNDARY
  6
CONTINUOUS
 62
 1 
 10
0.288844
 20
0.021900
  0
VERTEX
  8
BOUNDARY
  6
CONTINUOUS
 62
 1 
 10
0.288844
 20
0.021900
  0
VERTEX
  8
BOUNDARY
  6
CONTINUOUS
 62
 1 
 10
0.288844
 20
0.021900
  0
VERTEX
  8
BOUNDARY
  6
CONTINUOUS
 62
 1 
 10
0.288844
 20
0.021899
  0
VERTEX
  8
BOUNDARY
  6
CONTINUOUS
 62
 1 
 10
0.288844
 20
0.021899
  0
VERTEX
  8
BOUNDARY
  6
CONTINUOUS
 62
 1 
 10
0.288844
 20
0.021898
  0
VERTEX
  8
BOUNDARY
  6
CONTINUOUS
 62
 1 
 10
0.288844
 20
0.021898
  0
VERTEX
  8
BOUNDARY
  6
CONTINUOUS
 62
 1 
 10
0.288844
 20
0.021897
  0
VERTEX
  8
BOUNDARY
  6
CONTINUOUS
 62
 1 
 10
0.288844
 20
0.021897
  0
VERTEX
  8
BOUNDARY
  6
CONTINUOUS
 62
 1 
 10
0.288844
 20
0.021896
  0
VERTEX
  8
BOUNDARY
  6
CONTINUOUS
 62
 1 
 10
0.288844
 20
0.021896
  0
VERTEX
  8
BOUNDARY
  6
CONTINUOUS
 62
 1 
 10
0.288844
 20
0.021895
  0
VERTEX
  8
BOUNDARY
  6
CONTINUOUS
 62
 1 
 10
0.288844
 20
0.021895
  0
VERTEX
  8
BOUNDARY
  6
CONTINUOUS
 62
 1 
 10
0.288844
 20
0.021894
  0
VERTEX
  8
BOUNDARY
  6
CONTINUOUS
 62
 1 
 10
0.288844
 20
0.021894
  0
VERTEX
  8
BOUNDARY
  6
CONTINUOUS
 62
 1 
 10
0.288844
 20
0.021893
  0
VERTEX
  8
BOUNDARY
  6
CONTINUOUS
 62
 1 
 10
0.288844
 20
0.021893
  0
VERTEX
  8
BOUNDARY
  6
CONTINUOUS
 62
 1 
 10
0.288844
 20
0.021892
  0
VERTEX
  8
BOUNDARY
  6
CONTINUOUS
 62
 1 
 10
0.288844
 20
0.021892
  0
VERTEX
  8
BOUNDARY
  6
CONTINUOUS
 62
 1 
 10
0.288844
 20
0.021891
  0
VERTEX
  8
BOUNDARY
  6
CONTINUOUS
 62
 1 
 10
0.288844
 20
0.021891
  0
VERTEX
  8
BOUNDARY
  6
CONTINUOUS
 62
 1 
 10
0.288844
 20
0.021890
  0
VERTEX
  8
BOUNDARY
  6
CONTINUOUS
 62
 1 
 10
0.288844
 20
0.021890
  0
VERTEX
  8
BOUNDARY
  6
CONTINUOUS
 62
 1 
 10
0.288844
 20
0.020811
  0
VERTEX
  8
BOUNDARY
  6
CONTINUOUS
 62
 1 
 10
0.288844
 20
0.019731
  0
VERTEX
  8
BOUNDARY
  6
CONTINUOUS
 62
 1 
 10
0.288844
 20
0.018652
  0
VERTEX
  8
BOUNDARY
  6
CONTINUOUS
 62
 1 
 10
0.288844
 20
0.017572
  0
VERTEX
  8
BOUNDARY
  6
CONTINUOUS
 62
 1 
 10
0.288844
 20
0.016493
  0
VERTEX
  8
BOUNDARY
  6
CONTINUOUS
 62
 1 
 10
0.288844
 20
0.015413
  0
VERTEX
  8
BOUNDARY
  6
CONTINUOUS
 62
 1 
 10
0.288844
 20
0.014334
  0
VERTEX
  8
BOUNDARY
  6
CONTINUOUS
 62
 1 
 10
0.288844
 20
0.013254
  0
VERTEX
  8
BOUNDARY
  6
CONTINUOUS
 62
 1 
 10
0.288844
 20
0.012175
  0
VERTEX
  8
BOUNDARY
  6
CONTINUOUS
 62
 1 
 10
0.288844
 20
0.011095
  0
VERTEX
  8
BOUNDARY
  6
CONTINUOUS
 62
 1 
 10
0.288844
 20
0.010016
  0
VERTEX
  8
BOUNDARY
  6
CONTINUOUS
 62
 1 
 10
0.288844
 20
0.008936
  0
VERTEX
  8
BOUNDARY
  6
CONTINUOUS
 62
 1 
 10
0.288844
 20
0.007857
  0
VERTEX
  8
BOUNDARY
  6
CONTINUOUS
 62
 1 
 10
0.288844
 20
0.006777
  0
VERTEX
  8
BOUNDARY
  6
CONTINUOUS
 62
 1 
 10
0.288844
 20
0.005698
  0
VERTEX
  8
BOUNDARY
  6
CONTINUOUS
 62
 1 
 10
0.288844
 20
0.004619
  0
VERTEX
  8
BOUNDARY
  6
CONTINUOUS
 62
 1 
 10
0.288844
 20
0.003539
  0
VERTEX
  8
BOUNDARY
  6
CONTINUOUS
 62
 1 
 10
0.288844
 20
0.002460
  0
VERTEX
  8
BOUNDARY
  6
CONTINUOUS
 62
 1 
 10
0.288844
 20
0.001380
  0
VERTEX
  8
BOUNDARY
  6
CONTINUOUS
 62
 1 
 10
0.288844
 20
0.000301
  0
VERTEX
  8
BOUNDARY
  6
CONTINUOUS
 62
 1 
 10
0.288844
 20
0.000000
  0
SEQEND
  8
BOUNDARY
  6
CONTINUOUS
 62
 1 
  0
TEXT
  8
BOUNDARY
 62
 6 
 10
0.218470
 20
1.001111
 40
0.080000
  1
15-6-67.
 50
0.067302
  7
CG0010
  0
TEXT
  8
BOUNDARY
 62
 1 
 10
0.111187
 20
0.197014
 40
0.130000
  1
JONATHAN B. PRINCE , R.L.S. #3244
 50
0.000000
  7
CG0014
  0
ENDBLK
  8
0
  0
BLOCK
  8
0
  2
SCALE1
 70
    64
 10
1.000000
 20
1.250000
  0
LINE
  8
BOUNDARY
  6
CONTINUOUS
 62
 6 
 10
0.000000
 20
1.502732
 11
1.995286
 21
1.502732
  0
LINE
  8
BOUNDARY
  6
CONTINUOUS
 62
 6 
 10
1.995286
 20
1.502732
 11
1.995286
 21
1.372950
  0
LINE
  8
BOUNDARY
  6
CONTINUOUS
 62
 6 
 10
1.995286
 20
1.372950
 11
0.000000
 21
1.372950
  0
LINE
  8
BOUNDARY
  6
CONTINUOUS
 62
 6 
 10
0.000000
 20
1.372950
 11
0.000000
 21
1.502732
  0
TEXT
  8
BOUNDARY
 62
 6 
 10
0.452122
 20
1.211872
 40
0.080000
  1
Graphic Scale
 50
0.000000
  7
CG0010
  0
LINE
  8
BOUNDARY
  6
CONTINUOUS
 62
 6 
 10
0.000000
 20
1.441256
 11
1.995286
 21
1.441256
  0
LINE
  8
BOUNDARY
  6
CONTINUOUS
 62
 6 
 10
0.000000
 20
1.495722
 11
0.499126
 21
1.495722
  0
LINE
  8
BOUNDARY
  6
CONTINUOUS
 62
 6 
 10
0.499126
 20
1.495722
 11
0.499126
 21
1.483466
  0
LINE
  8
BOUNDARY
  6
CONTINUOUS
 62
 6 
 10
0.499126
 20
1.483466
 11
0.000000
 21
1.483466
  0
LINE
  8
BOUNDARY
  6
CONTINUOUS
 62
 6 
 10
0.000000
 20
1.483466
 11
0.000000
 21
1.471209
  0
LINE
  8
BOUNDARY
  6
CONTINUOUS
 62
 6 
 10
0.000000
 20
1.471209
 11
0.499126
 21
1.471209
  0
LINE
  8
BOUNDARY
  6
CONTINUOUS
 62
 6 
 10
0.499126
 20
1.471209
 11
0.499126
 21
1.465080
  0
LINE
  8
BOUNDARY
  6
CONTINUOUS
 62
 6 
 10
0.499126
 20
1.465080
 11
0.000000
 21
1.458952
  0
LINE
  8
BOUNDARY
  6
CONTINUOUS
 62
 6 
 10
0.000000
 20
1.458952
 11
0.000000
 21
1.452824
  0
LINE
  8
BOUNDARY
  6
CONTINUOUS
 62
 6 
 10
0.000000
 20
1.452824
 11
0.499126
 21
1.449760
  0
LINE
  8
BOUNDARY
  6
CONTINUOUS
 62
 6 
 10
0.499126
 20
1.449760
 11
0.000000
 21
1.455888
  0
LINE
  8
BOUNDARY
  6
CONTINUOUS
 62
 6 
 10
0.000000
 20
1.455888
 11
0.496338
 21
1.458952
  0
LINE
  8
BOUNDARY
  6
CONTINUOUS
 62
 6 
 10
0.496338
 20
1.458952
 11
0.493549
 21
1.477337
  0
LINE
  8
BOUNDARY
  6
CONTINUOUS
 62
 6 
 10
0.493549
 20
1.477337
 11
0.002788
 21
1.480401
  0
LINE
  8
BOUNDARY
  6
CONTINUOUS
 62
 6 
 10
0.002788
 20
1.480401
 11
0.002788
 21
1.492658
  0
LINE
  8
BOUNDARY
  6
CONTINUOUS
 62
 6 
 10
0.002788
 20
1.492658
 11
0.496338
 21
1.486530
  0
LINE
  8
BOUNDARY
  6
CONTINUOUS
 62
 6 
 10
0.496338
 20
1.486530
 11
0.499126
 21
1.446695
  0
LINE
  8
BOUNDARY
  6
CONTINUOUS
 62
 6 
 10
0.500316
 20
1.502944
 11
0.499813
 21
1.372835
  0
LINE
  8
BOUNDARY
  6
CONTINUOUS
 62
 6 
 10
0.499813
 20
1.445364
 11
0.000000
 21
1.458354
  0
LINE
  8
BOUNDARY
  6
CONTINUOUS
 62
 6 
 10
0.000000
 20
1.458354
 11
0.000000
 21
1.466863
  0
LINE
  8
BOUNDARY
  6
CONTINUOUS
 62
 6 
 10
0.000000
 20
1.466863
 11
0.485981
 21
1.465201
  0
LINE
  8
BOUNDARY
  6
CONTINUOUS
 62
 6 
 10
0.500985
 20
1.381822
 11
0.991081
 21
1.381822
  0
LINE
  8
BOUNDARY
  6
CONTINUOUS
 62
 6 
 10
0.991081
 20
1.381822
 11
0.999391
 21
1.381293
  0
LINE
  8
BOUNDARY
  6
CONTINUOUS
 62
 6 
 10
0.999391
 20
1.372852
 11
0.999842
 21
1.502942
  0
LINE
  8
BOUNDARY
  6
CONTINUOUS
 62
 6 
 10
0.998939
 20
1.388741
 11
0.498442
 21
1.396734
  0
LINE
  8
BOUNDARY
  6
CONTINUOUS
 62
 6 
 10
0.498442
 20
1.396734
 11
0.997137
 21
1.397829
  0
LINE
  8
BOUNDARY
  6
CONTINUOUS
 62
 6 
 10
0.997137
 20
1.397829
 11
0.997137
 21
1.406702
  0
LINE
  8
BOUNDARY
  6
CONTINUOUS
 62
 6 
 10
0.997137
 20
1.406702
 11
0.502576
 21
1.408920
  0
LINE
  8
BOUNDARY
  6
CONTINUOUS
 62
 6 
 10
0.502576
 20
1.408920
 11
0.500558
 21
1.420011
  0
LINE
  8
BOUNDARY
  6
CONTINUOUS
 62
 6 
 10
0.500558
 20
1.420011
 11
0.997137
 21
1.415575
  0
LINE
  8
BOUNDARY
  6
CONTINUOUS
 62
 6 
 10
0.997137
 20
1.415575
 11
0.997137
 21
1.422230
  0
LINE
  8
BOUNDARY
  6
CONTINUOUS
 62
 6 
 10
0.997137
 20
1.422230
 11
0.506613
 21
1.424448
  0
LINE
  8
BOUNDARY
  6
CONTINUOUS
 62
 6 
 10
0.506613
 20
1.424448
 11
0.502576
 21
1.433321
  0
LINE
  8
BOUNDARY
  6
CONTINUOUS
 62
 6 
 10
0.502576
 20
1.433321
 11
0.995118
 21
1.433321
  0
LINE
  8
BOUNDARY
  6
CONTINUOUS
 62
 6 
 10
0.995118
 20
1.433321
 11
0.504595
 21
1.428885
  0
LINE
  8
BOUNDARY
  6
CONTINUOUS
 62
 6 
 10
0.504595
 20
1.428885
 11
0.502576
 21
1.415575
  0
LINE
  8
BOUNDARY
  6
CONTINUOUS
 62
 6 
 10
0.502576
 20
1.415575
 11
0.991081
 21
1.411138
  0
LINE
  8
BOUNDARY
  6
CONTINUOUS
 62
 6 
 10
0.991081
 20
1.411138
 11
0.993099
 21
1.395611
  0
LINE
  8
BOUNDARY
  6
CONTINUOUS
 62
 6 
 10
0.993099
 20
1.395611
 11
0.504595
 21
1.404484
  0
LINE
  8
BOUNDARY
  6
CONTINUOUS
 62
 6 
 10
0.504595
 20
1.404484
 11
0.504595
 21
1.393392
  0
LINE
  8
BOUNDARY
  6
CONTINUOUS
 62
 6 
 10
0.504595
 20
1.393392
 11
0.993099
 21
1.386738
  0
LINE
  8
BOUNDARY
  6
CONTINUOUS
 62
 6 
 10
0.993099
 20
1.386738
 11
0.993099
 21
1.382301
  0
LINE
  8
BOUNDARY
  6
CONTINUOUS
 62
 6 
 10
0.993099
 20
1.382301
 11
0.506613
 21
1.382301
  0
LINE
  8
BOUNDARY
  6
CONTINUOUS
 62
 6 
 10
0.499744
 20
1.387866
 11
0.984423
 21
1.396734
  0
LINE
  8
BOUNDARY
  6
CONTINUOUS
 62
 6 
 10
0.501332
 20
1.437788
 11
0.984423
 21
1.437814
  0
LINE
  8
BOUNDARY
  6
CONTINUOUS
 62
 6 
 10
0.997816
 20
1.438099
 11
0.983375
 21
1.438099
  0
LINE
  8
BOUNDARY
  6
CONTINUOUS
 62
 6 
 10
0.983375
 20
1.438099
 11
0.997816
 21
1.428842
  0
LINE
  8
BOUNDARY
  6
CONTINUOUS
 62
 6 
 10
0.997816
 20
1.428842
 11
0.866043
 21
1.428181
  0
LINE
  8
BOUNDARY
  6
CONTINUOUS
 62
 6 
 10
1.000815
 20
1.496096
 11
1.497742
 21
1.493647
  0
LINE
  8
BOUNDARY
  6
CONTINUOUS
 62
 6 
 10
1.499973
 20
1.502895
 11
1.499527
 21
1.373160
  0
LINE
  8
BOUNDARY
  6
CONTINUOUS
 62
 6 
 10
1.001112
 20
1.491004
 11
1.275045
 21
1.488869
  0
LINE
  8
BOUNDARY
  6
CONTINUOUS
 62
 6 
 10
1.275045
 20
1.488869
 11
1.274074
 21
1.482465
  0
LINE
  8
BOUNDARY
  6
CONTINUOUS
 62
 6 
 10
1.274074
 20
1.482465
 11
1.001112
 21
1.484599
  0
LINE
  8
BOUNDARY
  6
CONTINUOUS
 62
 6 
 10
1.001112
 20
1.484599
 11
1.001112
 21
1.478195
  0
LINE
  8
BOUNDARY
  6
CONTINUOUS
 62
 6 
 10
1.001112
 20
1.478195
 11
1.274074
 21
1.477127
  0
LINE
  8
BOUNDARY
  6
CONTINUOUS
 62
 6 
 10
1.274074
 20
1.477127
 11
1.273103
 21
1.471790
  0
LINE
  8
BOUNDARY
  6
CONTINUOUS
 62
 6 
 10
1.273103
 20
1.471790
 11
1.002084
 21
1.471790
  0
LINE
  8
BOUNDARY
  6
CONTINUOUS
 62
 6 
 10
1.002084
 20
1.471790
 11
1.002084
 21
1.465385
  0
LINE
  8
BOUNDARY
  6
CONTINUOUS
 62
 6 
 10
1.002084
 20
1.465385
 11
1.275045
 21
1.465385
  0
LINE
  8
BOUNDARY
  6
CONTINUOUS
 62
 6 
 10
1.275045
 20
1.465385
 11
1.275045
 21
1.458980
  0
LINE
  8
BOUNDARY
  6
CONTINUOUS
 62
 6 
 10
1.275045
 20
1.458980
 11
1.002084
 21
1.458980
  0
LINE
  8
BOUNDARY
  6
CONTINUOUS
 62
 6 
 10
1.002084
 20
1.458980
 11
1.002084
 21
1.453643
  0
LINE
  8
BOUNDARY
  6
CONTINUOUS
 62
 6 
 10
1.002084
 20
1.453643
 11
1.274074
 21
1.453643
  0
LINE
  8
BOUNDARY
  6
CONTINUOUS
 62
 6 
 10
1.274074
 20
1.453643
 11
1.275045
 21
1.450441
  0
LINE
  8
BOUNDARY
  6
CONTINUOUS
 62
 6 
 10
1.275045
 20
1.450441
 11
1.002084
 21
1.449373
  0
LINE
  8
BOUNDARY
  6
CONTINUOUS
 62
 6 
 10
1.002084
 20
1.449373
 11
1.003055
 21
1.445103
  0
LINE
  8
BOUNDARY
  6
CONTINUOUS
 62
 6 
 10
1.003055
 20
1.445103
 11
1.275045
 21
1.445103
  0
LINE
  8
BOUNDARY
  6
CONTINUOUS
 62
 6 
 10
1.498704
 20
1.489593
 11
1.275220
 21
1.489593
  0
LINE
  8
BOUNDARY
  6
CONTINUOUS
 62
 6 
 10
1.275220
 20
1.489593
 11
1.274114
 21
1.484730
  0
LINE
  8
BOUNDARY
  6
CONTINUOUS
 62
 6 
 10
1.274114
 20
1.484730
 11
1.498704
 21
1.484730
  0
LINE
  8
BOUNDARY
  6
CONTINUOUS
 62
 6 
 10
1.498704
 20
1.484730
 11
1.498704
 21
1.481082
  0
LINE
  8
BOUNDARY
  6
CONTINUOUS
 62
 6 
 10
1.498704
 20
1.481082
 11
1.273007
 21
1.478651
  0
LINE
  8
BOUNDARY
  6
CONTINUOUS
 62
 6 
 10
1.273007
 20
1.478651
 11
1.273007
 21
1.472572
  0
LINE
  8
BOUNDARY
  6
CONTINUOUS
 62
 6 
 10
1.273007
 20
1.472572
 11
1.498704
 21
1.473788
  0
LINE
  8
BOUNDARY
  6
CONTINUOUS
 62
 6 
 10
1.498704
 20
1.473788
 11
1.498704
 21
1.470141
  0
LINE
  8
BOUNDARY
  6
CONTINUOUS
 62
 6 
 10
1.498704
 20
1.470141
 11
1.274114
 21
1.465277
  0
LINE
  8
BOUNDARY
  6
CONTINUOUS
 62
 6 
 10
1.274114
 20
1.465277
 11
1.276326
 21
1.461630
  0
LINE
  8
BOUNDARY
  6
CONTINUOUS
 62
 6 
 10
1.276326
 20
1.461630
 11
1.498704
 21
1.462846
  0
LINE
  8
BOUNDARY
  6
CONTINUOUS
 62
 6 
 10
1.498704
 20
1.462846
 11
1.498704
 21
1.457983
  0
LINE
  8
BOUNDARY
  6
CONTINUOUS
 62
 6 
 10
1.498704
 20
1.457983
 11
1.275220
 21
1.455551
  0
LINE
  8
BOUNDARY
  6
CONTINUOUS
 62
 6 
 10
1.275220
 20
1.455551
 11
1.274114
 21
1.450688
  0
LINE
  8
BOUNDARY
  6
CONTINUOUS
 62
 6 
 10
1.274114
 20
1.450688
 11
1.497598
 21
1.451904
  0
LINE
  8
BOUNDARY
  6
CONTINUOUS
 62
 6 
 10
1.497598
 20
1.451904
 11
1.497598
 21
1.445825
  0
LINE
  8
BOUNDARY
  6
CONTINUOUS
 62
 6 
 10
1.497598
 20
1.445825
 11
1.275220
 21
1.445825
  0
LINE
  8
BOUNDARY
  6
CONTINUOUS
 62
 6 
 10
1.498704
 20
1.499319
 11
1.193350
 21
1.499319
  0
LINE
  8
BOUNDARY
  6
CONTINUOUS
 62
 6 
 10
1.192983
 20
1.499439
 11
1.015576
 21
1.492588
  0
LINE
  8
BOUNDARY
  6
CONTINUOUS
 62
 6 
 10
1.271882
 20
1.492145
 11
1.082442
 21
1.493852
  0
LINE
  8
BOUNDARY
  6
CONTINUOUS
 62
 6 
 10
1.499431
 20
1.436263
 11
1.766018
 21
1.437259
  0
LINE
  8
BOUNDARY
  6
CONTINUOUS
 62
 6 
 10
1.766018
 20
1.437259
 11
1.765111
 21
1.432277
  0
LINE
  8
BOUNDARY
  6
CONTINUOUS
 62
 6 
 10
1.765111
 20
1.432277
 11
1.500338
 21
1.431281
  0
LINE
  8
BOUNDARY
  6
CONTINUOUS
 62
 6 
 10
1.500338
 20
1.431281
 11
1.500338
 21
1.426298
  0
LINE
  8
BOUNDARY
  6
CONTINUOUS
 62
 6 
 10
1.500338
 20
1.426298
 11
1.768738
 21
1.426298
  0
LINE
  8
BOUNDARY
  6
CONTINUOUS
 62
 6 
 10
1.768738
 20
1.426298
 11
1.767831
 21
1.420320
  0
LINE
  8
BOUNDARY
  6
CONTINUOUS
 62
 6 
 10
1.767831
 20
1.420320
 11
1.499431
 21
1.421316
  0
LINE
  8
BOUNDARY
  6
CONTINUOUS
 62
 6 
 10
1.499431
 20
1.421316
 11
1.499431
 21
1.415338
  0
LINE
  8
BOUNDARY
  6
CONTINUOUS
 62
 6 
 10
1.499431
 20
1.415338
 11
1.769645
 21
1.414341
  0
LINE
  8
BOUNDARY
  6
CONTINUOUS
 62
 6 
 10
1.769645
 20
1.414341
 11
1.769645
 21
1.409359
  0
LINE
  8
BOUNDARY
  6
CONTINUOUS
 62
 6 
 10
1.769645
 20
1.409359
 11
1.500338
 21
1.409359
  0
LINE
  8
BOUNDARY
  6
CONTINUOUS
 62
 6 
 10
1.500338
 20
1.409359
 11
1.499431
 21
1.403380
  0
LINE
  8
BOUNDARY
  6
CONTINUOUS
 62
 6 
 10
1.499431
 20
1.403380
 11
1.767831
 21
1.404377
  0
LINE
  8
BOUNDARY
  6
CONTINUOUS
 62
 6 
 10
1.767831
 20
1.404377
 11
1.769645
 21
1.397402
  0
LINE
  8
BOUNDARY
  6
CONTINUOUS
 62
 6 
 10
1.769645
 20
1.397402
 11
1.501245
 21
1.397402
  0
LINE
  8
BOUNDARY
  6
CONTINUOUS
 62
 6 
 10
1.501245
 20
1.397402
 11
1.501245
 21
1.392420
  0
LINE
  8
BOUNDARY
  6
CONTINUOUS
 62
 6 
 10
1.501245
 20
1.392420
 11
1.767831
 21
1.392420
  0
LINE
  8
BOUNDARY
  6
CONTINUOUS
 62
 6 
 10
1.767831
 20
1.392420
 11
1.769645
 21
1.387437
  0
LINE
  8
BOUNDARY
  6
CONTINUOUS
 62
 6 
 10
1.769645
 20
1.387437
 11
1.499431
 21
1.386441
  0
LINE
  8
BOUNDARY
  6
CONTINUOUS
 62
 6 
 10
1.499431
 20
1.386441
 11
1.769645
 21
1.382455
  0
LINE
  8
BOUNDARY
  6
CONTINUOUS
 62
 6 
 10
1.769645
 20
1.382455
 11
1.767831
 21
1.378469
  0
LINE
  8
BOUNDARY
  6
CONTINUOUS
 62
 6 
 10
1.767831
 20
1.378469
 11
1.500338
 21
1.380462
  0
LINE
  8
BOUNDARY
  6
CONTINUOUS
 62
 6 
 10
1.500338
 20
1.380462
 11
1.501245
 21
1.377473
  0
LINE
  8
BOUNDARY
  6
CONTINUOUS
 62
 6 
 10
1.501245
 20
1.377473
 11
1.769645
 21
1.375480
  0
LINE
  8
BOUNDARY
  6
CONTINUOUS
 62
 6 
 10
1.765180
 20
1.436403
 11
1.993750
 21
1.436403
  0
LINE
  8
BOUNDARY
  6
CONTINUOUS
 62
 6 
 10
1.993750
 20
1.436403
 11
1.993750
 21
1.432478
  0
LINE
  8
BOUNDARY
  6
CONTINUOUS
 62
 6 
 10
1.993750
 20
1.432478
 11
1.765180
 21
1.432478
  0
LINE
  8
BOUNDARY
  6
CONTINUOUS
 62
 6 
 10
1.765180
 20
1.432478
 11
1.766966
 21
1.426591
  0
LINE
  8
BOUNDARY
  6
CONTINUOUS
 62
 6 
 10
1.766966
 20
1.426591
 11
1.994642
 21
1.427572
  0
LINE
  8
BOUNDARY
  6
CONTINUOUS
 62
 6 
 10
1.994642
 20
1.427572
 11
1.993750
 21
1.421686
  0
LINE
  8
BOUNDARY
  6
CONTINUOUS
 62
 6 
 10
1.993750
 20
1.421686
 11
1.766966
 21
1.420704
  0
LINE
  8
BOUNDARY
  6
CONTINUOUS
 62
 6 
 10
1.766966
 20
1.420704
 11
1.768752
 21
1.414818
  0
LINE
  8
BOUNDARY
  6
CONTINUOUS
 62
 6 
 10
1.768752
 20
1.414818
 11
1.993750
 21
1.416780
  0
LINE
  8
BOUNDARY
  6
CONTINUOUS
 62
 6 
 10
1.993750
 20
1.416780
 11
1.992857
 21
1.409912
  0
LINE
  8
BOUNDARY
  6
CONTINUOUS
 62
 6 
 10
1.992857
 20
1.409912
 11
1.768752
 21
1.407949
  0
LINE
  8
BOUNDARY
  6
CONTINUOUS
 62
 6 
 10
1.768752
 20
1.407949
 11
1.768752
 21
1.405006
  0
LINE
  8
BOUNDARY
  6
CONTINUOUS
 62
 6 
 10
1.768752
 20
1.405006
 11
1.993750
 21
1.405987
  0
LINE
  8
BOUNDARY
  6
CONTINUOUS
 62
 6 
 10
1.993750
 20
1.405987
 11
1.992857
 21
1.399119
  0
LINE
  8
BOUNDARY
  6
CONTINUOUS
 62
 6 
 10
1.992857
 20
1.399119
 11
1.769645
 21
1.398138
  0
LINE
  8
BOUNDARY
  6
CONTINUOUS
 62
 6 
 10
1.769645
 20
1.398138
 11
1.768752
 21
1.393232
  0
LINE
  8
BOUNDARY
  6
CONTINUOUS
 62
 6 
 10
1.768752
 20
1.393232
 11
1.992857
 21
1.396176
  0
LINE
  8
BOUNDARY
  6
CONTINUOUS
 62
 6 
 10
1.992857
 20
1.396176
 11
1.993750
 21
1.392251
  0
LINE
  8
BOUNDARY
  6
CONTINUOUS
 62
 6 
 10
1.993750
 20
1.392251
 11
1.769645
 21
1.389308
  0
LINE
  8
BOUNDARY
  6
CONTINUOUS
 62
 6 
 10
1.769645
 20
1.389308
 11
1.771430
 21
1.385383
  0
LINE
  8
BOUNDARY
  6
CONTINUOUS
 62
 6 
 10
1.771430
 20
1.385383
 11
1.993750
 21
1.387345
  0
LINE
  8
BOUNDARY
  6
CONTINUOUS
 62
 6 
 10
1.993750
 20
1.387345
 11
1.993750
 21
1.382439
  0
LINE
  8
BOUNDARY
  6
CONTINUOUS
 62
 6 
 10
1.993750
 20
1.382439
 11
1.768752
 21
1.380477
  0
LINE
  8
BOUNDARY
  6
CONTINUOUS
 62
 6 
 10
1.768752
 20
1.380477
 11
1.768752
 21
1.377534
  0
LINE
  8
BOUNDARY
  6
CONTINUOUS
 62
 6 
 10
1.768752
 20
1.377534
 11
1.993750
 21
1.377534
  0
TEXT
  8
BOUNDARY
 62
 6 
 10
0.454828
 20
1.513128
 40
0.080000
  1
0'
 50
0.000000
  7
CG0010
  0
ENDBLK
  8
0
  0
ENDSEC
  0
SECTION
  2
ENTITIES
  0
ARC
  8
BOUNDARY
  6
CONTINUOUS
 62
 6 
 10
2384442.242100
 20
1222178.307900
 40
149.449994
 50
-26.408547
 51
-14.414877
  0
ARC
  8
BOUNDARY
  6
CONTINUOUS
 62
 6 
 10
2384442.242100
 20
1222178.307900
 40
89.449994
 50
-26.408547
 51
-14.414877
  0
ARC
  8
BOUNDARY
  6
CONTINUOUS
 62
 3 
 10
2384442.242100
 20
1222178.307900
 40
149.450039
 50
-14.414877
 51
60.343737
  0
ARC
  8
BOUNDARY
  6
CONTINUOUS
 62
 6 
 10
2384442.242100
 20
1222178.307900
 40
89.450039
 50
-14.414877
 51
60.343737
  0
ARC
  8
BOUNDARY
  6
CONTINUOUS
 62
 6 
 10
2384925.664400
 20
1221938.239300
 40
390.300047
 50
153.590691
 51
182.401714
  0
ARC
  8
BOUNDARY
  6
CONTINUOUS
 62
 6 
 10
2384925.664400
 20
1221938.239300
 40
450.300047
 50
153.590691
 51
182.401714
  0
LINE
  8
BOUNDARY
  6
CONTINUOUS
 62
 3 
 10
2384210.794661
 20
1221711.948887
 11
2384210.794661
 21
1222541.948889
  0
LINE
  8
BOUNDARY
  6
CONTINUOUS
 62
 3 
 10
2384210.794661
 20
1222541.948889
 11
2385340.794662
 21
1222541.948889
  0
LINE
  8
BOUNDARY
  6
CONTINUOUS
 62
 3 
 10
2385340.794662
 20
1222541.948889
 11
2385340.794662
 21
1221711.948887
  0
LINE
  8
BOUNDARY
  6
CONTINUOUS
 62
 3 
 10
2385340.794662
 20
1221711.948887
 11
2384210.794661
 21
1221711.948887
  0
TEXT
  8
BOUNDARY
 62
 6 
 10
2384733.279676
 20
1222243.096273
 40
4.800000
  1
N 56%%d38'20"E
 50
33.361203
  7
CG0001
  0
TEXT
  8
BOUNDARY
 62
 6 
 10
2384748.651101
 20
1222239.768987
 40
4.800000
  1
216.32'
 50
33.361203
  7
CG0001
  0
TEXT
  8
BOUNDARY
 62
 6 
 10
2384827.588422
 20
1222049.138145
 40
4.000000
  1
S 37%%d55'27"W
 50
0.000000
  7
CG0002
  0
TEXT
  8
BOUNDARY
 62
 6 
 10
2384827.588422
 20
1222042.458145
 40
4.000000
  1
30.00'
 50
0.000000
  7
CG0002
  0
TEXT
  8
BOUNDARY
 62
 6 
 10
2384841.111345
 20
1222097.758681
 40
4.800000
  1
S 37%%d51'25"W
 50
52.143130
  7
CG0001
  0
TEXT
  8
BOUNDARY
 62
 6 
 10
2384840.688166
 20
1222115.516607
 40
4.800000
  1
90.31'
 50
52.143130
  7
CG0001
  0
TEXT
  8
BOUNDARY
 62
 6 
 10
2384843.442885
 20
1222282.522219
 40
4.800000
  1
S 11%%d36'35"E
 50
-78.390187
  7
CG0001
  0
TEXT
  8
BOUNDARY
 62
 6 
 10
2384860.937465
 20
1222200.319570
 40
4.800000
  1
158.51'
 50
-78.390187
  7
CG0001
  0
TEXT
  8
BOUNDARY
 62
 6 
 10
2384854.301590
 20
1222305.061656
 40
4.000000
  1
14.31'
 50
46.015932
  7
CG0002
  0
TEXT
  8
BOUNDARY
 62
 6 
 10
2384837.636732
 20
1222391.959846
 40
4.800000
  1
N 00%%d18'32"W
 50
-89.691084
  7
CG0001
  0
TEXT
  8
BOUNDARY
 62
 6 
 10
2384848.931013
 20
1222380.438394
 40
4.800000
  1
106.30'
 50
-89.691084
  7
CG0001
  0
TEXT
  8
BOUNDARY
 62
 6 
 10
2384609.979455
 20
1222280.084657
 40
4.800000
  1
S 34%%d44'52"E
 50
-55.252218
  7
CG0001
  0
TEXT
  8
BOUNDARY
 62
 6 
 10
2384606.959740
 20
1222264.731444
 40
4.800000
  1
154.42'
 50
-55.252218
  7
CG0001
  0
TEXT
  8
BOUNDARY
 62
 6 
 10
2384870.589647
 20
1222207.611740
 40
4.000000
  1
144.19'
 50
-78.390187
  7
CG0002
  0
TEXT
  8
BOUNDARY
 62
 6 
 10
2384869.288098
 20
1222309.344584
 40
4.800000
  1
N 72%%d19'36"E
 50
17.673273
  7
CG0001
  0
TEXT
  8
BOUNDARY
 62
 6 
 10
2384885.372482
 20
1222302.681127
 40
4.800000
  1
94.27'
 50
17.673273
  7
CG0001
  0
TEXT
  8
BOUNDARY
 62
 6 
 10
2384629.312079
 20
1221866.914184
 40
4.800000
  1
S 47%%d51'39"W
 50
42.139123
  7
CG0001
  0
TEXT
  8
BOUNDARY
 62
 6 
 10
2384630.191988
 20
1221881.910937
 40
4.800000
  1
237.99'
 50
42.139123
  7
CG0001
  0
TEXT
  8
BOUNDARY
 62
 6 
 10
2384758.491524
 20
1221992.497962
 40
4.800000
  1
S 37%%d55'27"W
 50
52.075906
  7
CG0001
  0
TEXT
  8
BOUNDARY
 62
 6 
 10
2384756.770371
 20
1222007.421583
 40
4.800000
  1
120.61'
 50
52.075906
  7
CG0001
  0
TEXT
  8
BOUNDARY
 62
 6 
 10
2384766.197024
 20
1222096.554151
 40
4.800000
  1
N 52%%d30'43"W
 50
-37.488023
  7
CG0001
  0
TEXT
  8
BOUNDARY
 62
 6 
 10
2384769.474214
 20
1222079.378682
 40
4.800000
  1
52.78'
 50
-37.488023
  7
CG0001
  0
TEXT
  8
BOUNDARY
 62
 6 
 10
2384622.076262
 20
1222128.609732
 40
4.800000
  1
N 82%%d02'28"W
 50
-7.958918
  7
CG0001
  0
TEXT
  8
BOUNDARY
 62
 6 
 10
2384634.251471
 20
1222137.539935
 40
4.800000
  1
120.32'
 50
-7.958918
  7
CG0001
  0
TEXT
  8
BOUNDARY
 62
 6 
 10
2384709.709796
 20
1222114.136902
 40
4.800000
  1
N 62%%d37'37"W
 50
-27.372940
  7
CG0001
  0
TEXT
  8
BOUNDARY
 62
 6 
 10
2384726.063993
 20
1222117.527164
 40
4.800000
  1
63.16'
 50
-27.372940
  7
CG0001
  0
TEXT
  8
BOUNDARY
 62
 6 
 10
2384591.149364
 20
1222344.867112
 40
4.800000
  1
S 13%%d16'54"W
 50
76.718437
  7
CG0001
  0
TEXT
  8
BOUNDARY
 62
 6 
 10
2384582.852292
 20
1222358.608292
 40
4.800000
  1
102.39'
 50
76.718437
  7
CG0001
  0
TEXT
  8
BOUNDARY
 62
 6 
 10
2384510.348099
 20
1222368.820931
 40
4.800000
  1
N 58%%d14'40"E
 50
31.755632
  7
CG0001
  0
TEXT
  8
BOUNDARY
 62
 6 
 10
2384525.620262
 20
1222365.064260
 40
4.800000
  1
159.48'
 50
31.755632
  7
CG0001
  0
TEXT
  8
BOUNDARY
 62
 6 
 10
2384464.754552
 20
1222328.241771
 40
4.800000
  1
N 60%%d20'41"W
 50
-29.655189
  7
CG0001
  0
TEXT
  8
BOUNDARY
 62
 6 
 10
2384482.370135
 20
1222331.137194
 40
4.800000
  1
58.56'
 50
-29.655189
  7
CG0001
  0
TEXT
  8
BOUNDARY
 62
 6 
 10
2384530.768289
 20
1221880.237658
 40
4.000000
  1
N 02%%d24'07"W
 50
-87.597963
  7
CG0002
  0
TEXT
  8
BOUNDARY
 62
 6 
 10
2384540.523210
 20
1221871.019351
 40
4.000000
  1
124.90'
 50
-87.597963
  7
CG0002
  0
TEXT
  8
BOUNDARY
 62
 6 
 10
2384569.015512
 20
1221787.096472
 40
4.000000
  1
S 47%%d52'05"W
 50
0.000000
  7
CG0002
  0
TEXT
  8
BOUNDARY
 62
 6 
 10
2384569.015512
 20
1221780.416472
 40
4.000000
  1
16.95'
 50
0.000000
  7
CG0002
  0
TEXT
  8
BOUNDARY
 62
 6 
 10
2385076.379448
 20
1221784.944311
 40
4.800000
  1
362 AND PLAT BOOK 13 PAGE 497 OF BUTTS COUNTY,
 50
0.000000
  7
CG0001
  0
TEXT
  8
BOUNDARY
 62
 6 
 10
2384936.294673
 20
1221833.642125
 40
4.800000
  1
181.46'
 50
0.000000
  7
CG0001
  0
TEXT
  8
BOUNDARY
 62
 6 
 10
2384970.794674
 20
1221818.612124
 40
4.800000
  1
N 12%%d00'14"E
 50
0.000000
  7
CG0001
  0
TEXT
  8
BOUNDARY
 62
 6 
 10
2384831.294669
 20
1221818.612124
 40
4.800000
  1
28%%d48'40"
 50
0.000000
  7
CG0001
  0
TEXT
  8
BOUNDARY
 62
 6 
 10
2384895.655406
 20
1221982.134603
 40
4.000000
  1
L-1
 50
0.000000
  7
CG0002
  0
TEXT
  8
BOUNDARY
 62
 4 
 10
2384405.466379
 20
1222285.970247
 40
9.000000
  1
SPRING DRIVE
 50
-29.776253
  7
CG0003
  0
TEXT
  8
BOUNDARY
 62
 6 
 10
2384242.055384
 20
1222182.405845
 40
4.000000
  1
100
 50
0.000000
  7
CG0002
  0
TEXT
  8
BOUNDARY
 62
 6 
 10
2384974.105903
 20
1221967.295291
 40
4.000000
  1
125.08'
 50
0.000000
  7
CG0002
  0
TEXT
  8
BOUNDARY
 62
 6 
 10
2384885.104257
 20
1222080.454152
 40
4.000000
  1
ZONED R-3
 50
0.000000
  7
CG0002
  0
TEXT
  8
BOUNDARY
 62
 4 
 10
2384479.416902
 20
1222437.048668
 40
9.000000
  1
60' R/W
 50
31.468555
  7
CG0003
  0
TEXT
  8
BOUNDARY
 62
 6 
 10
2384873.228211
 20
1222371.938363
 40
4.000000
  1
WILLIS, ROBERT W. SR.
 50
0.000000
  7
CG0002
  0
TEXT
  8
BOUNDARY
 62
 6 
 10
2384906.042564
 20
1222215.821129
 40
4.000000
  1
ZONED R-3
 50
0.000000
  7
CG0002
  0
TEXT
  8
BOUNDARY
 62
 6 
 10
2384462.708178
 20
1222317.170866
 40
4.800000
  1
ASPHALT PAVING
 50
-42.393997
  7
CG0001
  0
TEXT
  8
BOUNDARY
 62
 1 
 10
2384424.696082
 20
1222261.703746
 40
6.000000
  1
60' R/W
 50
-29.969952
  7
CG0004
  0
TEXT
  8
BOUNDARY
 62
 6 
 10
2384831.294669
 20
1221833.642125
 40
4.800000
  1
74%%d45'31"
 50
0.000000
  7
CG0001
  0
TEXT
  8
BOUNDARY
 62
 6 
 10
2384674.261421
 20
1222310.600132
 40
4.000000
  1
THIS SURVEYOR WAS
 50
0.000000
  7
CG0002
  0
TEXT
  8
BOUNDARY
 62
 6 
 10
2384604.802253
 20
1222106.397542
 40
4.000000
  1
IPP 1/2" RB
 50
0.000000
  7
CG0002
  0
TEXT
  8
BOUNDARY
 62
 1 
 10
2384608.566836
 20
1222113.849343
 40
4.800000
  1
POINT "B"
 50
0.000000
  7
CG0001
  0
TEXT
  8
BOUNDARY
 62
 6 
 10
2384613.227983
 20
1221974.051021
 40
4.000000
  1
N/F
 50
0.000000
  7
CG0002
  0
TEXT
  8
BOUNDARY
 62
 6 
 10
2384925.878138
 20
1222001.920353
 40
4.000000
  1
CALL TABLE
 50
0.000000
  7
CG0002
  0
TEXT
  8
BOUNDARY
 62
 6 
 10
2384679.989089
 20
1222354.104508
 40
4.000000
  1
GA POWER COMPANY
 50
0.000000
  7
CG0002
  0
TEXT
  8
BOUNDARY
 62
 6 
 10
2384633.193242
 20
1222397.010572
 40
4.000000
  1
IPP 1/2" RB
 50
0.000000
  7
CG0002
  0
TEXT
  8
BOUNDARY
 62
 6 
 10
2385075.450210
 20
1221864.476051
 40
4.800000
  1
THE FIELD WORK WAS COMPLETED ON 10-03-2021
 50
0.000000
  7
CG0001
  0
TEXT
  8
BOUNDARY
 62
 6 
 10
2384576.910695
 20
1222062.829889
 40
4.800000
  1
*NOTE*
 50
0.000000
  7
CG0001
  0
TEXT
  8
BOUNDARY
 62
 6 
 10
2384940.580387
 20
1221826.127124
 40
4.800000
  1
31.23'
 50
0.000000
  7
CG0001
  0
TEXT
  8
BOUNDARY
 62
 6 
 10
2384576.019376
 20
1222008.863990
 40
4.800000
  1
CHASTAIN BASED ON THE PROPERTY LINE BETWEEN
 50
0.000000
  7
CG0001
  0
TEXT
  8
BOUNDARY
 62
 6 
 10
2384701.446218
 20
1222361.708835
 40
4.000000
  1
N/F
 50
0.000000
  7
CG0002
  0
TEXT
  8
BOUNDARY
 62
 6 
 10
2384403.384382
 20
1222328.020974
 40
4.000000
  1
IPP 1/2" RB
 50
26.481041
  7
CG0002
  0
TEXT
  8
BOUNDARY
 62
 6 
 10
2384955.856873
 20
1222347.392250
 40
4.000000
  1
IPF 1" OTP
 50
0.000000
  7
CG0002
  0
TEXT
  8
BOUNDARY
 62
 6 
 10
2384873.023053
 20
1222341.445816
 40
4.000000
  1
IPF 1/2" RB
 50
0.000000
  7
CG0002
  0
TEXT
  8
BOUNDARY
 62
 6 
 10
2384569.660579
 20
1221966.329042
 40
4.000000
  1
CHASTAIN, DOYLE E. & CAROLYN I.
 50
0.000000
  7
CG0002
  0
TEXT
  8
BOUNDARY
 62
 6 
 10
2385075.450210
 20
1221845.535348
 40
4.800000
  1
THE CURRENT PROPERTY OWNER IS MICHAEL & BROOKE
 50
0.000000
  7
CG0001
  0
TEXT
  8
BOUNDARY
 62
 6 
 10
2384654.346773
 20
1222099.777191
 40
4.000000
  1
IPP 1/2" RB
 50
0.000000
  7
CG0002
  0
TEXT
  8
BOUNDARY
 62
 6 
 10
2384728.738119
 20
1222398.864302
 40
4.000000
  1
ZONED R-3
 50
0.000000
  7
CG0002
  0
TEXT
  8
BOUNDARY
 62
 6 
 10
2385076.379448
 20
1221815.004313
 40
4.800000
  1
REFERENCE INFORMATION TAKEN FROM DEED BOOK
 50
0.000000
  7
CG0001
  0
TEXT
  8
BOUNDARY
 62
 6 
 10
2384971.866103
 20
1221833.642125
 40
4.800000
  1
N 22%%d57'52"W
 50
0.000000
  7
CG0001
  0
TEXT
  8
BOUNDARY
 62
 6 
 10
2384976.035013
 20
1221975.068264
 40
4.000000
  1
68.30'
 50
0.000000
  7
CG0002
  0
TEXT
  8
BOUNDARY
 62
 6 
 10
2384705.469466
 20
1222407.387618
 40
4.000000
  1
TAX ID #: 0070A-005-000
 50
0.000000
  7
CG0002
  0
TEXT
  8
BOUNDARY
 62
 6 
 10
2384739.366093
 20
1221818.612124
 40
4.800000
  1
100.25'
 50
0.000000
  7
CG0001
  0
TEXT
  8
BOUNDARY
 62
 6 
 10
2384576.019376
 20
1222046.438991
 40
4.800000
  1
ARE 30' SOUTH OF THE C/L OF WRIGHT DRIVE.
 50
0.000000
  7
CG0001
  0
TEXT
  8
BOUNDARY
 62
 1 
 10
2385155.973755
 20
1222423.896151
 40
7.000000
  1
50'      10-08-2021
 50
0.000000
  7
CG0005
  0
TEXT
  8
BOUNDARY
 62
 6 
 10
2384690.081465
 20
1222285.626258
 40
4.000000
  1
ZONED R-3
 50
0.000000
  7
CG0002
  0
TEXT
  8
BOUNDARY
 62
 6 
 10
2384301.839457
 20
1222058.185349
 40
4.000000
  1
181,804
 50
0.000000
  7
CG0002
  0
TEXT
  8
BOUNDARY
 62
 6 
 10
2384789.508953
 20
1221826.127124
 40
4.800000
  1
31.28'
 50
0.000000
  7
CG0001
  0
TEXT
  8
BOUNDARY
 62
 1 
 10
2385140.753470
 20
1222438.314761
 40
7.000000
  1
BUTTS
 50
0.000000
  7
CG0005
  0
TEXT
  8
BOUNDARY
 62
 1 
 10
2385063.252522
 20
1222070.062171
 40
7.000000
  1
DATE
 50
0.000000
  7
CG0005
  0
TEXT
  8
BOUNDARY
 62
 6 
 10
2384663.294662
 20
1221833.642125
 40
4.800000
  1
C-1
 50
0.000000
  7
CG0001
  0
TEXT
  8
BOUNDARY
 62
 6 
 10
2384576.019376
 20
1222031.408991
 40
4.800000
  1
HOWEVER, THE DEED DOES NOT REFERENCE METES
 50
0.000000
  7
CG0001
  0
TEXT
  8
BOUNDARY
 62
 6 
 10
2384674.261421
 20
1222337.320131
 40
4.000000
  1
IF THIS LOT HAS BEEN
 50
0.000000
  7
CG0002
  0
TEXT
  8
BOUNDARY
 62
 6 
 10
2384673.875580
 20
1222296.756674
 40
4.000000
  1
REFERENCING OWNERSHIP.
 50
0.000000
  7
CG0002
  0
TEXT
  8
BOUNDARY
 62
 6 
 10
2384601.984782
 20
1221947.796293
 40
4.000000
  1
ZONED R-3
 50
0.000000
  7
CG0002
  0
TEXT
  8
BOUNDARY
 62
 6 
 10
2384674.261421
 20
1222323.960131
 40
4.000000
  1
THIS LOT OWNED BY
 50
0.000000
  7
CG0002
  0
TEXT
  8
BOUNDARY
 62
 6 
 10
2384674.261421
 20
1222303.920132
 40
4.000000
  1
UNABLE TO FIND DEED
 50
0.000000
  7
CG0002
  0
TEXT
  8
BOUNDARY
 62
 6 
 10
2384884.437528
 20
1221818.612124
 40
4.800000
  1
14%%d40'48"
 50
0.000000
  7
CG0001
  0
TEXT
  8
BOUNDARY
 62
 6 
 10
2385108.860549
 20
1222412.922377
 40
4.800000
  1
REVISED 12-07-2021 TO CHANGE THE SOUTHERLY
 50
0.000000
  7
CG0001
  0
TEXT
  8
BOUNDARY
 62
 6 
 10
2384675.534236
 20
1222345.712319
 40
4.000000
  1
UNABLE TO DETERMINE
 50
0.000000
  7
CG0002
  0
TEXT
  8
BOUNDARY
 62
 6 
 10
2384819.508447
 20
1222022.625435
 40
4.000000
  1
IPP 1/2" RB
 50
0.000000
  7
CG0002
  0
TEXT
  8
BOUNDARY
 62
 6 
 10
2384887.446452
 20
1222356.047569
 40
4.000000
  1
ZONED R-3
 50
0.000000
  7
CG0002
  0
TEXT
  8
BOUNDARY
 62
 6 
 10
2384879.976245
 20
1222087.306406
 40
4.000000
  1
DB 483 PG 366
 50
0.000000
  7
CG0002
  0
TEXT
  8
BOUNDARY
 62
 6 
 10
2384895.012369
 20
1221967.295291
 40
4.000000
  1
L-3
 50
0.000000
  7
CG0002
  0
TEXT
  8
BOUNDARY
 62
 6 
 10
2384895.655406
 20
1221975.068264
 40
4.000000
  1
L-2
 50
0.000000
  7
CG0002
  0
TEXT
  8
BOUNDARY
 62
 6 
 10
2384695.866092
 20
1221833.642125
 40
4.800000
  1
149.45'
 50
0.000000
  7
CG0001
  0
TEXT
  8
BOUNDARY
 62
 6 
 10
2384808.264451
 20
1221859.661389
 40
4.000000
  1
CURVE TABLE
 50
0.000000
  7
CG0002
  0
TEXT
  8
BOUNDARY
 62
 6 
 10
2384728.813651
 20
1222182.505383
 40
4.000000
  1
IPP 1/2" RB
 50
0.000000
  7
CG0002
  0
TEXT
  8
BOUNDARY
 62
 6 
 10
2384785.223238
 20
1221818.612124
 40
4.800000
  1
196.26'
 50
0.000000
  7
CG0001
  0
TEXT
  8
BOUNDARY
 62
 6 
 10
2384711.318918
 20
1222077.011099
 40
4.000000
  1
IPP 1/2" RB
 50
0.000000
  7
CG0002
  0
TEXT
  8
BOUNDARY
 62
 6 
 10
2384723.136406
 20
1222424.434251
 40
4.000000
  1
DB 948 PG 349
 50
0.000000
  7
CG0002
  0
TEXT
  8
BOUNDARY
 62
 6 
 10
2384881.965019
 20
1222094.591292
 40
4.000000
  1
PEZELY, SUSAN
 50
0.000000
  7
CG0002
  0
TEXT
  8
BOUNDARY
 62
 6 
 10
2384663.294662
 20
1221826.127124
 40
4.800000
  1
C-2
 50
0.000000
  7
CG0001
  0
TEXT
  8
BOUNDARY
 62
 6 
 10
2385075.450210
 20
1221856.961050
 40
4.800000
  1
THE PLAT WAS COMPLETED ON 12-07-2021.
 50
0.000000
  7
CG0001
  0
TEXT
  8
BOUNDARY
 62
 6 
 10
2384613.386919
 20
1222309.463912
 40
4.000000
  1
IPF 1/2" RB
 50
0.000000
  7
CG0002
  0
TEXT
  8
BOUNDARY
 62
 6 
 10
2384970.794674
 20
1221826.127124
 40
4.800000
  1
N 20%%d24'42"E
 50
0.000000
  7
CG0001
  0
TEXT
  8
BOUNDARY
 62
 6 
 10
2384577.927207
 20
1222122.746738
 40
4.800000
  1
C
 50
67.731583
  7
CG0001
  0
TEXT
  8
BOUNDARY
 62
 6 
 10
2384579.618154
 20
1222127.070112
 40
4.800000
  1
-
 50
69.545755
  7
CG0001
  0
TEXT
  8
BOUNDARY
 62
 6 
 10
2384581.520727
 20
1222132.493546
 40
4.800000
  1
2
 50
71.791883
  7
CG0001
  0
TEXT
  8
BOUNDARY
 62
 6 
 10
2384721.388896
 20
1222175.570172
 40
4.000000
  1
DOES NOT AFFECT
 50
0.000000
  7
CG0002
  0
TEXT
  8
BOUNDARY
 62
 6 
 10
2384915.981586
 20
1222241.085608
 40
4.000000
  1
N/F
 50
0.000000
  7
CG0002
  0
TEXT
  8
BOUNDARY
 62
 6 
 10
2384674.261421
 20
1222317.280131
 40
4.000000
  1
ROBERT W. WILLIS SR.
 50
0.000000
  7
CG0002
  0
TEXT
  8
BOUNDARY
 62
 6 
 10
2384897.265857
 20
1222379.485505
 40
4.000000
  1
N/F
 50
0.000000
  7
CG0002
  0
TEXT
  8
BOUNDARY
 62
 4 
 10
2384670.584826
 20
1222143.598298
 40
6.000000
  1
WRIGHT
 50
-7.607860
  7
CG0004
  0
TEXT
  8
BOUNDARY
 62
 4 
 10
2384717.537599
 20
1222134.267024
 40
6.000000
  1
DRIVE
 50
-27.185808
  7
CG0004
  0
TEXT
  8
BOUNDARY
 62
 4 
 10
2384745.409347
 20
1222215.775638
 40
7.500000
  1
LOT "A-2"
 50
0.000000
  7
CG0006
  0
TEXT
  8
BOUNDARY
 62
 6 
 10
2384723.865168
 20
1222433.307526
 40
4.000000
  1
PB 12 PG 187
 50
0.000000
  7
CG0002
  0
TEXT
  8
BOUNDARY
 62
 6 
 10
2384976.678050
 20
1221982.841237
 40
4.000000
  1
58.28'
 50
0.000000
  7
CG0002
  0
TEXT
  8
BOUNDARY
 62
 1 
 10
2384494.054277
 20
1222385.777642
 40
4.800000
  1
ASPHALT PAVING
 50
31.468555
  7
CG0001
  0
TEXT
  8
BOUNDARY
 62
 6 
 10
2384576.019376
 20
1222053.953991
 40
4.800000
  1
THE PROPERTY LINES FROM POINT "A" TO POINT "B"
 50
0.000000
  7
CG0001
  0
TEXT
  8
BOUNDARY
 62
 6 
 10
2384570.374720
 20
1222263.884268
 40
4.800000
  1
C
 50
-56.262091
  7
CG0001
  0
TEXT
  8
BOUNDARY
 62
 6 
 10
2384573.083749
 20
1222259.682010
 40
4.800000
  1
-
 50
-58.121355
  7
CG0001
  0
TEXT
  8
BOUNDARY
 62
 6 
 10
2384576.246610
 20
1222254.361001
 40
4.800000
  1
1
 50
-60.423291
  7
CG0001
  0
TEXT
  8
BOUNDARY
 62
 6 
 10
2384731.783553
 20
1222168.227007
 40
4.000000
  1
BOUNDARY
 50
0.000000
  7
CG0002
  0
TEXT
  8
BOUNDARY
 62
 4 
 10
2384442.280853
 20
1222397.659160
 40
9.000000
  1
SHORT BRIDGE ROAD
 50
31.468555
  7
CG0003
  0
TEXT
  8
BOUNDARY
 62
 6 
 10
2385151.444770
 20
1221922.792496
 40
4.000000
  1
13035C 0085D
 50
0.000000
  7
CG0002
  0
TEXT
  8
BOUNDARY
 62
 6 
 10
2384922.019917
 20
1221967.295291
 40
4.000000
  1
N 82%%d03'58"W
 50
0.000000
  7
CG0002
  0
TEXT
  8
BOUNDARY
 62
 6 
 10
2384884.437528
 20
1221833.642125
 40
4.800000
  1
38%%d20'16"
 50
0.000000
  7
CG0001
  0
TEXT
  8
BOUNDARY
 62
 6 
 10
2384831.294669
 20
1221826.127124
 40
4.800000
  1
11%%d59'37"
 50
0.000000
  7
CG0001
  0
TEXT
  8
BOUNDARY
 62
 6 
 10
2384540.335654
 20
1222016.762305
 40
4.800000
  1
C
 50
78.481869
  7
CG0001
  0
TEXT
  8
BOUNDARY
 62
 6 
 10
2384541.259413
 20
1222021.166445
 40
4.800000
  1
-
 50
77.826223
  7
CG0001
  0
TEXT
  8
BOUNDARY
 62
 6 
 10
2384542.472841
 20
1222026.604081
 40
4.800000
  1
3
 50
77.014472
  7
CG0001
  0
TEXT
  8
BOUNDARY
 62
 6 
 10
2384695.866092
 20
1221826.127124
 40
4.800000
  1
149.45'
 50
0.000000
  7
CG0001
  0
TEXT
  8
BOUNDARY
 62
 6 
 10
2384877.185556
 20
1222281.066644
 40
4.000000
  1
IPF 1" OTP
 50
0.000000
  7
CG0002
  0
TEXT
  8
BOUNDARY
 62
 1 
 10
2384821.643281
 20
1222029.570662
 40
4.800000
  1
POINT "A"
 50
0.000000
  7
CG0001
  0
TEXT
  8
BOUNDARY
 62
 6 
 10
2384723.567307
 20
1222416.384452
 40
4.000000
  1
PB 14 PG 234
 50
0.000000
  7
CG0002
  0
TEXT
  8
BOUNDARY
 62
 6 
 10
2384739.366093
 20
1221833.642125
 40
4.800000
  1
114.18'
 50
0.000000
  7
CG0001
  0
TEXT
  8
BOUNDARY
 62
 4 
 10
2384707.352338
 20
1222457.821155
 40
7.500000
  1
1.129 ACRES
 50
0.000000
  7
CG0006
  0
TEXT
  8
BOUNDARY
 62
 6 
 10
2384882.058367
 20
1222363.852140
 40
4.000000
  1
DB 841 PG 362
 50
0.000000
  7
CG0002
  0
TEXT
  8
BOUNDARY
 62
 6 
 10
2384576.019376
 20
1222038.923991
 40
4.800000
  1
THIS IS BASED ON THE DEED BOOK 188 PAGE 374.
 50
0.000000
  7
CG0001
  0
TEXT
  8
BOUNDARY
 62
 6 
 10
2384405.717876
 20
1222323.212950
 40
4.000000
  1
R/W / R/W
 50
26.481041
  7
CG0002
  0
TEXT
  8
BOUNDARY
 62
 6 
 10
2384576.019376
 20
1222016.378990
 40
4.800000
  1
LINE AGREEMENT WITH DOYLE E. & CAROLYN I.
 50
0.000000
  7
CG0001
  0
TEXT
  8
BOUNDARY
 62
 6 
 10
2384902.060169
 20
1222223.951557
 40
4.000000
  1
DB 96 PG 409
 50
0.000000
  7
CG0002
  0
TEXT
  8
BOUNDARY
 62
 6 
 10
2384674.261421
 20
1222330.640131
 40
4.000000
  1
LEASED. PER TAX MAP
 50
0.000000
  7
CG0002
  0
TEXT
  8
BOUNDARY
 62
 6 
 10
2384739.651053
 20
1221912.653435
 40
4.800000
  1
IPF 1/2" RB
 50
0.000000
  7
CG0001
  0
TEXT
  8
BOUNDARY
 62
 6 
 10
2385076.379448
 20
1221807.489312
 40
4.800000
  1
948 PAGE 349, PLAT BOOK 14 PAGE 234 AND PLAT
 50
0.000000
  7
CG0001
  0
TEXT
  8
BOUNDARY
 62
 6 
 10
2384576.019376
 20
1222023.893990
 40
4.800000
  1
AND BOUNDS. IT IS NECESSARY FOR A BOUNDARY
 50
0.000000
  7
CG0001
  0
TEXT
  8
BOUNDARY
 62
 6 
 10
2384655.794662
 20
1221848.672125
 40
4.800000
  1
CURVE   RADIUS     TANGENT     LENGTH        DELTA         DEGREE       CHORD      CH.BEARING
 50
0.000000
  7
CG0001
  0
TEXT
  8
BOUNDARY
 62
 6 
 10
2385108.860549
 20
1222405.407377
 40
4.800000
  1
P/L THAT ADJOINS THE CHASTAIN PROPERTY.
 50
0.000000
  7
CG0001
  0
TEXT
  8
BOUNDARY
 62
 6 
 10
2385076.379448
 20
1221799.974312
 40
4.800000
  1
BOOK 12 PAGE 187, DEED BOOK 285 PAGE 348,
 50
0.000000
  7
CG0001
  0
TEXT
  8
BOUNDARY
 62
 6 
 10
2385132.292729
 20
1221915.364426
 40
4.000000
  1
EFFECTIVE DATE 06/07/2017
 50
0.000000
  7
CG0002
  0
TEXT
  8
BOUNDARY
 62
 6 
 10
2385076.379448
 20
1221777.429311
 40
4.800000
  1
GA., RECORDS.
 50
0.000000
  7
CG0001
  0
TEXT
  8
BOUNDARY
 62
 6 
 10
2384920.733843
 20
1221982.841237
 40
4.000000
  1
N 52%%d58'10"W
 50
0.000000
  7
CG0002
  0
TEXT
  8
BOUNDARY
 62
 6 
 10
2385075.877233
 20
1221828.249546
 40
4.800000
  1
COUNTY, GA., RECORDS.
 50
0.000000
  7
CG0001
  0
TEXT
  8
BOUNDARY
 62
 1 
 10
2384224.726700
 20
1221730.720359
 40
6.000000
  1
JOB #: 210309
 50
0.000000
  7
CG0004
  0
TEXT
  8
BOUNDARY
 62
 6 
 10
2384576.019376
 20
1222001.348989
 40
4.800000
  1
POINT "A" AND POINT "B" SHOWN ON THIS
 50
0.000000
  7
CG0001
  0
TEXT
  8
BOUNDARY
 62
 1 
 10
2385166.470503
 20
1222453.310116
 40
7.000000
  1
73   *   9TH
 50
0.000000
  7
CG0005
  0
TEXT
  8
BOUNDARY
 62
 6 
 10
2384663.294662
 20
1221818.612124
 40
4.800000
  1
C-3
 50
0.000000
  7
CG0001
  0
TEXT
  8
BOUNDARY
 62
 3 
 10
2385083.546193
 20
1222483.877569
 40
10.000000
  1
MICHAEL & BROOKE SVOBODA
 50
0.000000
  7
CG0007
  0
TEXT
  8
BOUNDARY
 62
 6 
 10
2384896.549360
 20
1222102.604666
 40
4.000000
  1
N/F
 50
0.000000
  7
CG0002
  0
TEXT
  8
BOUNDARY
 62
 6 
 10
2384920.733843
 20
1221975.068264
 40
4.000000
  1
N 62%%d37'37"W
 50
0.000000
  7
CG0002
  0
TEXT
  8
BOUNDARY
 62
 6 
 10
2384900.984218
 20
1222134.228546
 40
4.000000
  1
IPF 1/2" RB
 50
0.000000
  7
CG0002
  0
TEXT
  8
BOUNDARY
 62
 6 
 10
2384785.223238
 20
1221833.642125
 40
4.800000
  1
195.00'
 50
0.000000
  7
CG0001
  0
TEXT
  8
BOUNDARY
 62
 6 
 10
2384847.821808
 20
1222060.682977
 40
4.000000
  1
IPF 1/2" RB
 50
0.000000
  7
CG0002
  0
TEXT
  8
BOUNDARY
 62
 6 
 10
2384936.294673
 20
1221818.612124
 40
4.800000
  1
194.20'
 50
0.000000
  7
CG0001
  0
TEXT
  8
BOUNDARY
 62
 6 
 10
2384882.803204
 20
1222391.925540
 40
4.000000
  1
IPF 1" OTP
 50
0.000000
  7
CG0002
  0
TEXT
  8
BOUNDARY
 62
 6 
 10
2384760.947645
 20
1222138.086891
 40
4.000000
  1
GRAVEL ROAD
 50
-30.416518
  7
CG0002
  0
TEXT
  8
BOUNDARY
 62
 6 
 10
2384695.866092
 20
1221818.612124
 40
4.800000
  1
390.30'
 50
0.000000
  7
CG0001
  0
TEXT
  8
BOUNDARY
 62
 6 
 10
2385075.877233
 20
1221837.079702
 40
4.800000
  1
SVOBODA PER DEED BOOK 948 PAGE 349 OF BUTTS
 50
0.000000
  7
CG0001
  0
TEXT
  8
BOUNDARY
 62
 1 
 10
2385170.144365
 20
1222515.021766
 40
7.000000
  1
RETRACEMENT
 50
0.000000
  7
CG0005
  0
TEXT
  8
BOUNDARY
 62
 6 
 10
2385076.379448
 20
1221792.459312
 40
4.800000
  1
DEED BOOK 188 PAGE 374, DEED BOOK 841 PAGE
 50
0.000000
  7
CG0001
  0
TEXT
  8
BOUNDARY
 62
 6 
 10
2384676.974108
 20
1222251.367404
 40
4.000000
  1
IPF 1/2" RB
 50
0.000000
  7
CG0002
  0
TEXT
  8
BOUNDARY
 62
 6 
 10
2384255.628765
 20
1222119.635172
 40
4.000000
  1
0.05'
 50
0.000000
  7
CG0002
  0
TEXT
  8
BOUNDARY
 62
 6 
 10
2384410.676552
 20
1222340.201303
 40
4.000000
  1
P.O.B.
 50
26.481041
  7
CG0002
  0
TEXT
  8
BOUNDARY
 62
 4 
 10
2384716.818901
 20
1222472.558479
 40
7.500000
  1
LOT "A-2"
 50
0.000000
  7
CG0006
  0
TEXT
  8
BOUNDARY
 62
 6 
 10
2384888.582001
 20
1221993.440746
 40
4.000000
  1
COURSE     BEARING      DISTANCE
 50
0.000000
  7
CG0002
  0
TEXT
  8
BOUNDARY
 62
 6 
 10
2384884.437528
 20
1221826.127124
 40
4.800000
  1
38%%d20'16"
 50
0.000000
  7
CG0001
  0
TEXT
  8
BOUNDARY
 62
 6 
 10
2384595.660482
 20
1221957.062667
 40
4.000000
  1
DB 188 PG 374
 50
0.000000
  7
CG0002
  0
TEXT
  8
BOUNDARY
 62
 6 
 10
2384743.651808
 20
1221826.127124
 40
4.800000
  1
15.70'
 50
0.000000
  7
CG0001
  0
TEXT
  8
BOUNDARY
 62
 6 
 10
2384892.593606
 20
1222232.518582
 40
4.000000
  1
HATTAWAY, KENNETH
 50
0.000000
  7
CG0002
  0
TEXT
  8
BOUNDARY
 62
 4 
 10
2384704.985697
 20
1222444.817634
 40
7.500000
  1
49,200 SQ.FT.
 50
0.000000
  7
CG0006
  0
TEXT
  8
BOUNDARY
 62
 6 
 10
2384576.019376
 20
1221993.833989
 40
4.800000
  1
SURVEY.
 50
0.000000
  7
CG0001
  0
INSERT
  8
BOUNDARY
  2
BLAKE
 10
2385228.998519
 20
1222058.470281
 41
48.932041
 42
48.932041
 43
48.932041
 50
0.000000
  0
INSERT
  8
BOUNDARY
  2
COURT
 10
2384306.280105
 20
1222442.552221
 41
49.708740
 42
49.708740
 43
49.708740
 50
0.000000
  0
INSERT
  8
BOUNDARY
  2
DIG
 10
2384320.260680
 20
1221843.384389
 41
1.525850
 42
1.525850
 43
1.525850
 50
0.000000
  0
INSERT
  8
BOUNDARY
  2
GPSEQUIP
 10
2384329.581069
 20
1222127.605016
 41
50.097088
 42
50.097088
 43
50.097088
 50
0.000000
  0
INSERT
  8
BOUNDARY
  2
GRIDNORT
 10
2385303.561629
 20
1221894.595327
 41
49.708737
 42
49.708737
 43
49.708737
 50
0.000000
  0
INSERT
  8
BOUNDARY
  2
LEGEND1
 10
2384310.940291
 20
1221968.851171
 41
50.330099
 42
50.330099
 43
50.330099
 50
0.000000
  0
INSERT
  8
BOUNDARY
  2
MADE_FOR
 10
2385194.047103
 20
1222463.036596
 41
49.708740
 42
49.708740
 43
49.708740
 50
0.000000
  0
INSERT
  8
BOUNDARY
  2
MAPCLOSU
 10
2384310.940291
 20
1222073.833562
 41
50.783081
 42
50.783081
 43
50.783081
 50
0.000000
  0
INSERT
  8
BOUNDARY
  2
MB
 10
2384744.250533
 20
1222441.480870
 41
93.936416
 42
93.936416
 43
93.936416
 50
0.000000
  0
INSERT
  8
BOUNDARY
  2
NOTITLE
 10
2384975.017989
 20
1222468.157689
 41
50.330097
 42
50.330097
 43
50.330097
 50
0.000000
  0
INSERT
  8
BOUNDARY
  2
OUTSIDE
 10
2385161.425704
 20
1221933.003514
 41
50.330098
 42
50.330098
 43
50.330098
 50
0.000000
  0
INSERT
  8
BOUNDARY
  2
RETRACE
 10
2385175.406295
 20
1222219.784703
 41
50.330097
 42
50.330097
 43
50.330097
 50
0.000000
  0
INSERT
  8
BOUNDARY
  2
SCALE1
 10
2385208.027694
 20
1222373.417455
 41
48.932040
 42
48.932040
 43
48.932040
 50
0.000000
  0
LINE
  8
BOUNDARY
  6
CONTINUOUS
 62
 3 
 10
2384665.397100
 20
1222194.551400
 11
2384577.381956
 21
1222321.435188
  0
LINE
  8
BOUNDARY
  6
CONTINUOUS
 62
 3 
 10
2384822.555000
 20
1222086.946900
 11
2384877.974700
 21
1222158.247300
  0
LINE
  8
BOUNDARY
  6
CONTINUOUS
 62
 3 
 10
2384877.974700
 20
1222158.247300
 11
2384846.075800
 21
1222313.511600
  0
LINE
  8
BOUNDARY
  6
CONTINUOUS
 62
 3 
 10
2384846.075800
 20
1222313.511600
 11
2384665.397100
 21
1222194.551400
  0
LINE
  8
BOUNDARY
  6
HIDDEN
 62
 6 
 10
2384846.075800
 20
1222313.511600
 11
2384845.502702
 21
1222419.808906
  0
LINE
  8
BOUNDARY
  6
CONTINUOUS
 62
 3 
 10
2384577.381956
 20
1222321.435188
 11
2384600.905400
 21
1222421.089600
  0
LINE
  8
BOUNDARY
  6
HIDDEN
 62
 6 
 10
2384848.956313
 20
1222299.491027
 11
2384938.774062
 21
1222328.109375
  0
LINE
  8
BOUNDARY
  6
HIDDEN
 62
 6 
 10
2384729.985306
 20
1221968.138989
 11
2384553.512000
 21
1221808.464100
  0
LINE
  8
BOUNDARY
  6
CONTINUOUS
 62
 3 
 10
2384804.116491
 20
1222063.282128
 11
2384822.555000
 21
1222086.946900
  0
LINE
  8
BOUNDARY
  6
HIDDEN
 62
 6 
 10
2384804.116491
 20
1222063.282128
 11
2384729.985306
 21
1221968.138989
  0
LINE
  8
BOUNDARY
  6
CONTINUOUS
 62
 3 
 10
2384586.987193
 20
1222141.103618
 11
2384706.147413
 21
1222124.443858
  0
LINE
  8
BOUNDARY
  6
CONTINUOUS
 62
 3 
 10
2384706.147413
 20
1222124.443858
 11
2384762.237372
 21
1222095.403199
  0
LINE
  8
BOUNDARY
  6
CONTINUOUS
 62
 3 
 10
2384762.237372
 20
1222095.403199
 11
2384804.116491
 21
1222063.282128
  0
LINE
  8
BOUNDARY
  6
CONTINUOUS
 62
 3 
 10
2384600.905400
 20
1222421.089600
 11
2384465.299500
 21
1222337.155700
  0
LINE
  8
BOUNDARY
  6
CONTINUOUS
 62
 3 
 10
2384465.299500
 20
1222337.155700
 11
2384516.189300
 21
1222308.181400
  0
LINE
  8
BOUNDARY
  6
CONTINUOUS
 62
 6 
 10
2384535.707200
 20
1221921.883600
 11
2384540.941900
 21
1221797.093400
  0
LINE
  8
BOUNDARY
  6
CONTINUOUS
 62
 6 
 10
2384480.994619
 20
1221794.578731
 11
2384475.759919
 21
1221919.368931
  0
LINE
  8
BOUNDARY
  6
HIDDEN
 62
 6 
 10
2384540.941900
 20
1221797.093400
 11
2384553.512000
 21
1221808.464100
  0
INSERT
  8
BOUNDARY
 62
 6 
  2
SYM1
 10
2384730.130344
 20
1221968.204081
 41
3.999999
 42
3.999999
 43
3.999999
 50
90.000000
  0
INSERT
  8
BOUNDARY
 62
 6 
  2
SYM1
 10
2384516.376150
 20
1222308.232416
 41
3.999999
 42
3.999999
 43
3.999999
 50
90.000000
  0
INSERT
  8
BOUNDARY
 62
 6 
  2
SYM1
 10
2384586.932840
 20
1222141.160821
 41
3.999999
 42
3.999999
 43
3.999999
 50
90.000000
  0
INSERT
  8
BOUNDARY
 62
 6 
  2
SYM1
 10
2384804.001338
 20
1222063.317725
 41
3.999999
 42
3.999999
 43
3.999999
 50
90.000000
  0
INSERT
  8
BOUNDARY
 62
 6 
  2
SYM1
 10
2384762.169402
 20
1222095.270059
 41
3.999999
 42
3.999999
 43
3.999999
 50
90.000000
  0
INSERT
  8
BOUNDARY
 62
 6 
  2
SYM1
 10
2384706.123217
 20
1222124.435474
 41
3.999999
 42
3.999999
 43
3.999999
 50
90.000000
  0
INSERT
  8
BOUNDARY
 62
 6 
  2
SYM1
 10
2384715.355801
 20
1222153.692742
 41
3.999999
 42
3.999999
 43
3.999999
 50
90.000000
  0
INSERT
  8
BOUNDARY
 62
 6 
  2
SYM1
 10
2384877.798601
 20
1222158.098704
 41
4.800000
 42
4.800000
 43
4.800000
 50
90.000000
  0
INSERT
  8
BOUNDARY
 62
 6 
  2
SYM1
 10
2384938.792898
 20
1222328.031449
 41
4.800000
 42
4.800000
 43
4.800000
 50
90.000000
  0
INSERT
  8
BOUNDARY
 62
 6 
  2
SYM1
 10
2384600.944404
 20
1222420.987932
 41
4.800000
 42
4.800000
 43
4.800000
 50
90.000000
  0
INSERT
  8
BOUNDARY
 62
 6 
  2
SYM1
 10
2384535.681987
 20
1221921.725247
 41
4.800000
 42
4.800000
 43
4.800000
 50
90.000000
  0
INSERT
  8
BOUNDARY
 62
 6 
  2
SYM1
 10
2384577.559927
 20
1222321.372025
 41
4.800000
 42
4.800000
 43
4.800000
 50
90.000000
  0
INSERT
  8
BOUNDARY
 62
 6 
  2
SYM1
 10
2384553.523706
 20
1221808.283101
 41
4.800000
 42
4.800000
 43
4.800000
 50
90.000000
  0
INSERT
  8
BOUNDARY
 62
 6 
  2
SYM1
 10
2384541.166756
 20
1221796.856813
 41
4.800000
 42
4.800000
 43
4.800000
 50
90.000000
  0
INSERT
  8
BOUNDARY
 62
 6 
  2
SYM1
 10
2384848.962827
 20
1222299.330140
 41
4.800000
 42
4.800000
 43
4.800000
 50
90.000000
  0
INSERT
  8
BOUNDARY
 62
 6 
  2
SYM1
 10
2384665.403222
 20
1222194.537163
 41
4.800000
 42
4.800000
 43
4.800000
 50
90.000000
  0
INSERT
  8
BOUNDARY
 62
 6 
  2
SYM1
 10
2384846.195051
 20
1222313.528082
 41
4.800000
 42
4.800000
 43
4.800000
 50
90.000000
  0
INSERT
  8
BOUNDARY
 62
 6 
  2
SYM1
 10
2384845.616460
 20
1222419.767143
 41
4.800000
 42
4.800000
 43
4.800000
 50
90.000000
  0
INSERT
  8
BOUNDARY
 62
 6 
  2
SYM1
 10
2384465.219445
 20
1222337.054496
 41
4.800000
 42
4.800000
 43
4.800000
 50
90.000000
  0
INSERT
  8
BOUNDARY
 62
 6 
  2
SYM1
 10
2384822.638554
 20
1222086.890304
 41
4.800000
 42
4.800000
 43
4.800000
 50
90.000000
  0
INSERT
  8
BOUNDARY
 62
 6 
  2
SYM1
 10
2384576.057426
 20
1222111.689655
 41
4.800000
 42
4.800000
 43
4.800000
 50
90.000000
  0
POLYLINE
  8
BOUNDARY
  6
HIDDEN
 66
  1
  0
VERTEX
  8
BOUNDARY
  6
HIDDEN
 10
2384568.887980
 20
1222168.011100
  0
VERTEX
  8
BOUNDARY
  6
HIDDEN
 10
2384568.887990
 20
1222168.011100
  0
VERTEX
  8
BOUNDARY
  6
HIDDEN
 10
2384568.888000
 20
1222168.011100
  0
VERTEX
  8
BOUNDARY
  6
HIDDEN
 10
2384575.395036
 20
1222167.727400
  0
VERTEX
  8
BOUNDARY
  6
HIDDEN
 10
2384581.902073
 20
1222167.443700
  0
VERTEX
  8
BOUNDARY
  6
HIDDEN
 10
2384588.409109
 20
1222167.160000
  0
VERTEX
  8
BOUNDARY
  6
HIDDEN
 10
2384588.670600
 20
1222167.148600
  0
SEQEND
  8
BOUNDARY
  6
HIDDEN
  0
POLYLINE
  8
BOUNDARY
  6
CONTINUOUS
 66
  1
  0
VERTEX
  8
BOUNDARY
  6
CONTINUOUS
 10
2384506.030083
 20
1222403.021889
  0
VERTEX
  8
BOUNDARY
  6
CONTINUOUS
 10
2384506.030091
 20
1222403.021894
  0
VERTEX
  8
BOUNDARY
  6
CONTINUOUS
 10
2384506.030100
 20
1222403.021900
  0
VERTEX
  8
BOUNDARY
  6
CONTINUOUS
 10
2384512.145436
 20
1222406.994057
  0
VERTEX
  8
BOUNDARY
  6
CONTINUOUS
 10
2384518.260772
 20
1222410.966213
  0
VERTEX
  8
BOUNDARY
  6
CONTINUOUS
 10
2384524.376108
 20
1222414.938370
  0
VERTEX
  8
BOUNDARY
  6
CONTINUOUS
 10
2384530.491445
 20
1222418.910527
  0
VERTEX
  8
BOUNDARY
  6
CONTINUOUS
 10
2384536.606781
 20
1222422.882684
  0
VERTEX
  8
BOUNDARY
  6
CONTINUOUS
 10
2384542.722117
 20
1222426.854841
  0
VERTEX
  8
BOUNDARY
  6
CONTINUOUS
 10
2384548.837453
 20
1222430.826998
  0
VERTEX
  8
BOUNDARY
  6
CONTINUOUS
 10
2384554.952790
 20
1222434.799155
  0
VERTEX
  8
BOUNDARY
  6
CONTINUOUS
 10
2384561.068126
 20
1222438.771312
  0
VERTEX
  8
BOUNDARY
  6
CONTINUOUS
 10
2384567.183462
 20
1222442.743469
  0
VERTEX
  8
BOUNDARY
  6
CONTINUOUS
 10
2384573.298798
 20
1222446.715626
  0
VERTEX
  8
BOUNDARY
  6
CONTINUOUS
 10
2384579.414135
 20
1222450.687783
  0
VERTEX
  8
BOUNDARY
  6
CONTINUOUS
 10
2384585.529471
 20
1222454.659940
  0
VERTEX
  8
BOUNDARY
  6
CONTINUOUS
 10
2384591.644807
 20
1222458.632097
  0
VERTEX
  8
BOUNDARY
  6
CONTINUOUS
 10
2384594.293300
 20
1222460.352400
  0
SEQEND
  8
BOUNDARY
  6
CONTINUOUS
  0
POLYLINE
  8
BOUNDARY
  6
CONTINUOUS
 66
  1
  0
VERTEX
  8
BOUNDARY
  6
CONTINUOUS
 10
2384508.107083
 20
1222391.409389
  0
VERTEX
  8
BOUNDARY
  6
CONTINUOUS
 10
2384508.107091
 20
1222391.409394
  0
VERTEX
  8
BOUNDARY
  6
CONTINUOUS
 10
2384508.107100
 20
1222391.409400
  0
VERTEX
  8
BOUNDARY
  6
CONTINUOUS
 10
2384514.247087
 20
1222395.360682
  0
VERTEX
  8
BOUNDARY
  6
CONTINUOUS
 10
2384520.387074
 20
1222399.311965
  0
VERTEX
  8
BOUNDARY
  6
CONTINUOUS
 10
2384526.527062
 20
1222403.263248
  0
VERTEX
  8
BOUNDARY
  6
CONTINUOUS
 10
2384532.667049
 20
1222407.214530
  0
VERTEX
  8
BOUNDARY
  6
CONTINUOUS
 10
2384538.807037
 20
1222411.165813
  0
VERTEX
  8
BOUNDARY
  6
CONTINUOUS
 10
2384544.947024
 20
1222415.117096
  0
VERTEX
  8
BOUNDARY
  6
CONTINUOUS
 10
2384551.087012
 20
1222419.068379
  0
VERTEX
  8
BOUNDARY
  6
CONTINUOUS
 10
2384557.226999
 20
1222423.019661
  0
VERTEX
  8
BOUNDARY
  6
CONTINUOUS
 10
2384563.366987
 20
1222426.970944
  0
VERTEX
  8
BOUNDARY
  6
CONTINUOUS
 10
2384569.506974
 20
1222430.922227
  0
VERTEX
  8
BOUNDARY
  6
CONTINUOUS
 10
2384575.646961
 20
1222434.873509
  0
VERTEX
  8
BOUNDARY
  6
CONTINUOUS
 10
2384581.786949
 20
1222438.824792
  0
VERTEX
  8
BOUNDARY
  6
CONTINUOUS
 10
2384587.926936
 20
1222442.776075
  0
VERTEX
  8
BOUNDARY
  6
CONTINUOUS
 10
2384594.066924
 20
1222446.727357
  0
VERTEX
  8
BOUNDARY
  6
CONTINUOUS
 10
2384600.206911
 20
1222450.678640
  0
VERTEX
  8
BOUNDARY
  6
CONTINUOUS
 10
2384600.908600
 20
1222451.130200
  0
SEQEND
  8
BOUNDARY
  6
CONTINUOUS
  0
POLYLINE
  8
BOUNDARY
  6
CONTINUOUS
 62
 6 
 66
  1
  0
VERTEX
  8
BOUNDARY
  6
CONTINUOUS
 62
 6 
 10
2384466.717397
 20
1222333.056847
  0
VERTEX
  8
BOUNDARY
  6
CONTINUOUS
 62
 6 
 10
2384466.717390
 20
1222333.056854
  0
VERTEX
  8
BOUNDARY
  6
CONTINUOUS
 62
 6 
 10
2384466.717383
 20
1222333.056861
  0
VERTEX
  8
BOUNDARY
  6
CONTINUOUS
 62
 6 
 10
2384462.972260
 20
1222336.705882
  0
VERTEX
  8
BOUNDARY
  6
CONTINUOUS
 62
 6 
 10
2384461.770300
 20
1222337.877000
  0
SEQEND
  8
BOUNDARY
  6
CONTINUOUS
 62
 6 
  0
POLYLINE
  8
BOUNDARY
  6
CONTINUOUS
 66
  1
  0
VERTEX
  8
BOUNDARY
  6
CONTINUOUS
 10
2384379.495582
 20
1222331.038291
  0
VERTEX
  8
BOUNDARY
  6
CONTINUOUS
 10
2384379.495591
 20
1222331.038295
  0
VERTEX
  8
BOUNDARY
  6
CONTINUOUS
 10
2384379.495600
 20
1222331.038300
  0
VERTEX
  8
BOUNDARY
  6
CONTINUOUS
 10
2384385.901316
 20
1222334.458468
  0
VERTEX
  8
BOUNDARY
  6
CONTINUOUS
 10
2384392.299509
 20
1222337.892890
  0
VERTEX
  8
BOUNDARY
  6
CONTINUOUS
 10
2384398.690132
 20
1222341.341540
  0
VERTEX
  8
BOUNDARY
  6
CONTINUOUS
 10
2384405.073137
 20
1222344.804391
  0
VERTEX
  8
BOUNDARY
  6
CONTINUOUS
 10
2384411.448478
 20
1222348.281419
  0
VERTEX
  8
BOUNDARY
  6
CONTINUOUS
 10
2384417.816108
 20
1222351.772595
  0
VERTEX
  8
BOUNDARY
  6
CONTINUOUS
 10
2384424.175980
 20
1222355.277896
  0
VERTEX
  8
BOUNDARY
  6
CONTINUOUS
 10
2384430.528047
 20
1222358.797294
  0
VERTEX
  8
BOUNDARY
  6
CONTINUOUS
 10
2384436.872263
 20
1222362.330764
  0
VERTEX
  8
BOUNDARY
  6
CONTINUOUS
 10
2384443.208579
 20
1222365.878280
  0
VERTEX
  8
BOUNDARY
  6
CONTINUOUS
 10
2384449.536950
 20
1222369.439815
  0
VERTEX
  8
BOUNDARY
  6
CONTINUOUS
 10
2384455.857328
 20
1222373.015344
  0
VERTEX
  8
BOUNDARY
  6
CONTINUOUS
 10
2384459.525000
 20
1222375.098700
  0
VERTEX
  8
BOUNDARY
  6
CONTINUOUS
 10
2384465.691649
 20
1222378.632012
  0
VERTEX
  8
BOUNDARY
  6
CONTINUOUS
 10
2384471.836739
 20
1222382.203447
  0
VERTEX
  8
BOUNDARY
  6
CONTINUOUS
 10
2384477.959922
 20
1222385.812793
  0
VERTEX
  8
BOUNDARY
  6
CONTINUOUS
 10
2384484.060851
 20
1222389.459844
  0
VERTEX
  8
BOUNDARY
  6
CONTINUOUS
 10
2384490.139181
 20
1222393.144390
  0
VERTEX
  8
BOUNDARY
  6
CONTINUOUS
 10
2384496.194564
 20
1222396.866222
  0
VERTEX
  8
BOUNDARY
  6
CONTINUOUS
 10
2384502.226653
 20
1222400.625131
  0
VERTEX
  8
BOUNDARY
  6
CONTINUOUS
 10
2384506.030100
 20
1222403.021900
  0
SEQEND
  8
BOUNDARY
  6
CONTINUOUS
  0
POLYLINE
  8
BOUNDARY
  6
HIDDEN
 66
  1
  0
VERTEX
  8
BOUNDARY
  6
HIDDEN
 10
2384588.670600
 20
1222167.148600
  0
VERTEX
  8
BOUNDARY
  6
HIDDEN
 10
2384595.706850
 20
1222166.139827
  0
VERTEX
  8
BOUNDARY
  6
HIDDEN
 10
2384602.743045
 20
1222165.130622
  0
VERTEX
  8
BOUNDARY
  6
HIDDEN
 10
2384609.779388
 20
1222164.122431
  0
VERTEX
  8
BOUNDARY
  6
HIDDEN
 10
2384616.816080
 20
1222163.116703
  0
VERTEX
  8
BOUNDARY
  6
HIDDEN
 10
2384623.853324
 20
1222162.114885
  0
VERTEX
  8
BOUNDARY
  6
HIDDEN
 10
2384630.891323
 20
1222161.118424
  0
VERTEX
  8
BOUNDARY
  6
HIDDEN
 10
2384637.930277
 20
1222160.128768
  0
VERTEX
  8
BOUNDARY
  6
HIDDEN
 10
2384642.553910
 20
1222159.483185
  0
VERTEX
  8
BOUNDARY
  6
HIDDEN
 10
2384648.949120
 20
1222158.609739
  0
VERTEX
  8
BOUNDARY
  6
HIDDEN
 10
2384655.347092
 20
1222157.756489
  0
VERTEX
  8
BOUNDARY
  6
HIDDEN
 10
2384660.911644
 20
1222157.015943
  0
VERTEX
  8
BOUNDARY
  6
HIDDEN
 10
2384667.910639
 20
1222156.079660
  0
VERTEX
  8
BOUNDARY
  6
HIDDEN
 10
2384674.909641
 20
1222155.143426
  0
VERTEX
  8
BOUNDARY
  6
HIDDEN
 10
2384681.908647
 20
1222154.207229
  0
VERTEX
  8
BOUNDARY
  6
HIDDEN
 10
2384688.907657
 20
1222153.271053
  0
VERTEX
  8
BOUNDARY
  6
HIDDEN
 10
2384695.906668
 20
1222152.334886
  0
VERTEX
  8
BOUNDARY
  6
HIDDEN
 10
2384702.905677
 20
1222151.398712
  0
VERTEX
  8
BOUNDARY
  6
HIDDEN
 10
2384708.778200
 20
1222150.613200
  0
SEQEND
  8
BOUNDARY
  6
HIDDEN
  0
POLYLINE
  8
BOUNDARY
  6
CONTINUOUS
 66
  1
  0
VERTEX
  8
BOUNDARY
  6
CONTINUOUS
 10
2384571.332800
 20
1222185.171700
  0
VERTEX
  8
BOUNDARY
  6
CONTINUOUS
 10
2384570.440672
 20
1222189.596551
  0
VERTEX
  8
BOUNDARY
  6
CONTINUOUS
 10
2384569.942100
 20
1222192.417200
  0
VERTEX
  8
BOUNDARY
  6
CONTINUOUS
 10
2384568.924510
 20
1222199.228954
  0
VERTEX
  8
BOUNDARY
  6
CONTINUOUS
 10
2384568.186118
 20
1222206.102261
  0
VERTEX
  8
BOUNDARY
  6
CONTINUOUS
 10
2384567.384946
 20
1222212.955801
  0
VERTEX
  8
BOUNDARY
  6
CONTINUOUS
 10
2384566.179021
 20
1222219.708254
  0
VERTEX
  8
BOUNDARY
  6
CONTINUOUS
 10
2384564.736200
 20
1222224.856300
  0
VERTEX
  8
BOUNDARY
  6
CONTINUOUS
 10
2384562.159837
 20
1222231.321881
  0
VERTEX
  8
BOUNDARY
  6
CONTINUOUS
 10
2384558.990096
 20
1222237.539481
  0
VERTEX
  8
BOUNDARY
  6
CONTINUOUS
 10
2384555.346728
 20
1222243.532154
  0
VERTEX
  8
BOUNDARY
  6
CONTINUOUS
 10
2384551.349481
 20
1222249.322956
  0
VERTEX
  8
BOUNDARY
  6
CONTINUOUS
 10
2384547.118106
 20
1222254.934942
  0
VERTEX
  8
BOUNDARY
  6
CONTINUOUS
 10
2384544.388400
 20
1222258.386100
  0
VERTEX
  8
BOUNDARY
  6
CONTINUOUS
 10
2384539.981430
 20
1222263.671888
  0
VERTEX
  8
BOUNDARY
  6
CONTINUOUS
 10
2384535.382668
 20
1222268.797848
  0
VERTEX
  8
BOUNDARY
  6
CONTINUOUS
 10
2384530.617555
 20
1222273.774311
  0
VERTEX
  8
BOUNDARY
  6
CONTINUOUS
 10
2384525.711531
 20
1222278.611611
  0
VERTEX
  8
BOUNDARY
  6
CONTINUOUS
 10
2384521.490500
 20
1222282.583900
  0
VERTEX
  8
BOUNDARY
  6
CONTINUOUS
 10
2384516.280417
 20
1222287.352904
  0
VERTEX
  8
BOUNDARY
  6
CONTINUOUS
 10
2384511.037517
 20
1222292.085805
  0
VERTEX
  8
BOUNDARY
  6
CONTINUOUS
 10
2384505.770967
 20
1222296.792686
  0
VERTEX
  8
BOUNDARY
  6
CONTINUOUS
 10
2384500.489933
 20
1222301.483631
  0
VERTEX
  8
BOUNDARY
  6
CONTINUOUS
 10
2384495.203581
 20
1222306.168727
  0
VERTEX
  8
BOUNDARY
  6
CONTINUOUS
 10
2384489.921078
 20
1222310.858057
  0
VERTEX
  8
BOUNDARY
  6
CONTINUOUS
 10
2384485.334607
 20
1222314.949923
  0
SEQEND
  8
BOUNDARY
  6
CONTINUOUS
  0
POLYLINE
  8
BOUNDARY
  6
CONTINUOUS
 66
  1
  0
VERTEX
  8
BOUNDARY
  6
CONTINUOUS
 10
2384461.770300
 20
1222337.877000
  0
VERTEX
  8
BOUNDARY
  6
CONTINUOUS
 10
2384459.726896
 20
1222343.188977
  0
VERTEX
  8
BOUNDARY
  6
CONTINUOUS
 10
2384459.138800
 20
1222346.683800
  0
VERTEX
  8
BOUNDARY
  6
CONTINUOUS
 10
2384459.729235
 20
1222352.112523
  0
VERTEX
  8
BOUNDARY
  6
CONTINUOUS
 10
2384460.638700
 20
1222354.267800
  0
VERTEX
  8
BOUNDARY
  6
CONTINUOUS
 10
2384463.989758
 20
1222358.902778
  0
VERTEX
  8
BOUNDARY
  6
CONTINUOUS
 10
2384466.555800
 20
1222361.947200
  0
VERTEX
  8
BOUNDARY
  6
CONTINUOUS
 10
2384470.219019
 20
1222366.570990
  0
VERTEX
  8
BOUNDARY
  6
CONTINUOUS
 10
2384473.710400
 20
1222369.850900
  0
VERTEX
  8
BOUNDARY
  6
CONTINUOUS
 10
2384479.485085
 20
1222373.774799
  0
VERTEX
  8
BOUNDARY
  6
CONTINUOUS
 10
2384485.366236
 20
1222377.538594
  0
VERTEX
  8
BOUNDARY
  6
CONTINUOUS
 10
2384491.316820
 20
1222381.197973
  0
VERTEX
  8
BOUNDARY
  6
CONTINUOUS
 10
2384497.299809
 20
1222384.808622
  0
VERTEX
  8
BOUNDARY
  6
CONTINUOUS
 10
2384503.278170
 20
1222388.426229
  0
VERTEX
  8
BOUNDARY
  6
CONTINUOUS
 10
2384508.107100
 20
1222391.409400
  0
SEQEND
  8
BOUNDARY
  6
CONTINUOUS
  0
POLYLINE
  8
BOUNDARY
  6
HIDDEN
 66
  1
  0
VERTEX
  8
BOUNDARY
  6
HIDDEN
 10
2384708.778200
 20
1222150.613200
  0
VERTEX
  8
BOUNDARY
  6
HIDDEN
 10
2384714.985014
 20
1222147.882126
  0
VERTEX
  8
BOUNDARY
  6
HIDDEN
 10
2384721.177404
 20
1222145.118008
  0
VERTEX
  8
BOUNDARY
  6
HIDDEN
 10
2384727.349336
 20
1222142.308942
  0
VERTEX
  8
BOUNDARY
  6
HIDDEN
 10
2384733.494780
 20
1222139.443024
  0
VERTEX
  8
BOUNDARY
  6
HIDDEN
 10
2384734.545091
 20
1222138.945196
  0
VERTEX
  8
BOUNDARY
  6
HIDDEN
 10
2384740.357646
 20
1222136.111909
  0
VERTEX
  8
BOUNDARY
  6
HIDDEN
 10
2384746.118596
 20
1222133.173800
  0
VERTEX
  8
BOUNDARY
  6
HIDDEN
 10
2384751.272416
 20
1222130.449463
  0
VERTEX
  8
BOUNDARY
  6
HIDDEN
 10
2384757.132369
 20
1222127.281846
  0
VERTEX
  8
BOUNDARY
  6
HIDDEN
 10
2384762.952930
 20
1222124.041025
  0
VERTEX
  8
BOUNDARY
  6
HIDDEN
 10
2384768.699584
 20
1222120.674977
  0
VERTEX
  8
BOUNDARY
  6
HIDDEN
 10
2384771.922000
 20
1222118.684700
  0
VERTEX
  8
BOUNDARY
  6
HIDDEN
 10
2384777.370158
 20
1222115.095325
  0
VERTEX
  8
BOUNDARY
  6
HIDDEN
 10
2384782.710466
 20
1222111.343280
  0
VERTEX
  8
BOUNDARY
  6
HIDDEN
 10
2384787.987850
 20
1222107.502698
  0
VERTEX
  8
BOUNDARY
  6
HIDDEN
 10
2384788.387236
 20
1222107.209580
  0
VERTEX
  8
BOUNDARY
  6
HIDDEN
 10
2384793.568459
 20
1222103.382614
  0
VERTEX
  8
BOUNDARY
  6
HIDDEN
 10
2384798.731272
 20
1222099.530763
  0
VERTEX
  8
BOUNDARY
  6
HIDDEN
 10
2384803.026037
 20
1222096.306443
  0
VERTEX
  8
BOUNDARY
  6
HIDDEN
 10
2384808.393900
 20
1222092.266205
  0
VERTEX
  8
BOUNDARY
  6
HIDDEN
 10
2384813.760209
 20
1222088.223904
  0
VERTEX
  8
BOUNDARY
  6
HIDDEN
 10
2384819.125962
 20
1222084.180862
  0
VERTEX
  8
BOUNDARY
  6
HIDDEN
 10
2384823.625400
 20
1222080.791200
  0
SEQEND
  8
BOUNDARY
  6
HIDDEN
  0
POLYLINE
  8
BOUNDARY
  6
HIDDEN
 66
  1
  0
VERTEX
  8
BOUNDARY
  6
HIDDEN
 10
2384571.332800
 20
1222185.171700
  0
VERTEX
  8
BOUNDARY
  6
HIDDEN
 10
2384571.181329
 20
1222182.621733
  0
VERTEX
  8
BOUNDARY
  6
HIDDEN
 10
2384579.175308
 20
1222178.906450
  0
VERTEX
  8
BOUNDARY
  6
HIDDEN
 10
2384588.649541
 20
1222176.010967
  0
VERTEX
  8
BOUNDARY
  6
HIDDEN
 10
2384590.466000
 20
1222175.648200
  0
VERTEX
  8
BOUNDARY
  6
HIDDEN
 10
2384597.689433
 20
1222174.483584
  0
VERTEX
  8
BOUNDARY
  6
HIDDEN
 10
2384604.917907
 20
1222173.351009
  0
VERTEX
  8
BOUNDARY
  6
HIDDEN
 10
2384612.151092
 20
1222172.248623
  0
VERTEX
  8
BOUNDARY
  6
HIDDEN
 10
2384619.388655
 20
1222171.174580
  0
VERTEX
  8
BOUNDARY
  6
HIDDEN
 10
2384626.630266
 20
1222170.127030
  0
VERTEX
  8
BOUNDARY
  6
HIDDEN
 10
2384633.875594
 20
1222169.104124
  0
VERTEX
  8
BOUNDARY
  6
HIDDEN
 10
2384641.124307
 20
1222168.104015
  0
VERTEX
  8
BOUNDARY
  6
HIDDEN
 10
2384648.376074
 20
1222167.124853
  0
VERTEX
  8
BOUNDARY
  6
HIDDEN
 10
2384655.630565
 20
1222166.164790
  0
VERTEX
  8
BOUNDARY
  6
HIDDEN
 10
2384662.887447
 20
1222165.221977
  0
VERTEX
  8
BOUNDARY
  6
HIDDEN
 10
2384670.146389
 20
1222164.294565
  0
VERTEX
  8
BOUNDARY
  6
HIDDEN
 10
2384677.407061
 20
1222163.380707
  0
VERTEX
  8
BOUNDARY
  6
HIDDEN
 10
2384684.669132
 20
1222162.478553
  0
VERTEX
  8
BOUNDARY
  6
HIDDEN
 10
2384691.932269
 20
1222161.586254
  0
VERTEX
  8
BOUNDARY
  6
HIDDEN
 10
2384699.196143
 20
1222160.701963
  0
VERTEX
  8
BOUNDARY
  6
HIDDEN
 10
2384706.460421
 20
1222159.823830
  0
VERTEX
  8
BOUNDARY
  6
HIDDEN
 10
2384709.178602
 20
1222159.496457
  0
VERTEX
  8
BOUNDARY
  6
HIDDEN
 10
2384714.155474
 20
1222159.039813
  0
VERTEX
  8
BOUNDARY
  6
HIDDEN
 10
2384715.110168
 20
1222158.844637
  0
VERTEX
  8
BOUNDARY
  6
HIDDEN
 10
2384720.004949
 20
1222157.182322
  0
VERTEX
  8
BOUNDARY
  6
HIDDEN
 10
2384721.338312
 20
1222156.563265
  0
VERTEX
  8
BOUNDARY
  6
HIDDEN
 10
2384726.801765
 20
1222153.586810
  0
VERTEX
  8
BOUNDARY
  6
HIDDEN
 10
2384732.181873
 20
1222150.451327
  0
VERTEX
  8
BOUNDARY
  6
HIDDEN
 10
2384734.091180
 20
1222149.393240
  0
VERTEX
  8
BOUNDARY
  6
HIDDEN
 10
2384739.458899
 20
1222146.839195
  0
VERTEX
  8
BOUNDARY
  6
HIDDEN
 10
2384744.471420
 20
1222144.504587
  0
VERTEX
  8
BOUNDARY
  6
HIDDEN
 10
2384750.815582
 20
1222141.223893
  0
VERTEX
  8
BOUNDARY
  6
HIDDEN
 10
2384757.140506
 20
1222137.898711
  0
VERTEX
  8
BOUNDARY
  6
HIDDEN
 10
2384763.436746
 20
1222134.516670
  0
VERTEX
  8
BOUNDARY
  6
HIDDEN
 10
2384769.694854
 20
1222131.065402
  0
VERTEX
  8
BOUNDARY
  6
HIDDEN
 10
2384775.905382
 20
1222127.532538
  0
VERTEX
  8
BOUNDARY
  6
HIDDEN
 10
2384782.058884
 20
1222123.905708
  0
VERTEX
  8
BOUNDARY
  6
HIDDEN
 10
2384788.145911
 20
1222120.172544
  0
VERTEX
  8
BOUNDARY
  6
HIDDEN
 10
2384794.157016
 20
1222116.320676
  0
VERTEX
  8
BOUNDARY
  6
HIDDEN
 10
2384796.096900
 20
1222115.038400
  0
VERTEX
  8
BOUNDARY
  6
HIDDEN
 10
2384801.800964
 20
1222111.008970
  0
VERTEX
  8
BOUNDARY
  6
HIDDEN
 10
2384807.321623
 20
1222106.728823
  0
VERTEX
  8
BOUNDARY
  6
HIDDEN
 10
2384812.721735
 20
1222102.283887
  0
VERTEX
  8
BOUNDARY
  6
HIDDEN
 10
2384818.064159
 20
1222097.760090
  0
VERTEX
  8
BOUNDARY
  6
HIDDEN
 10
2384823.411753
 20
1222093.243359
  0
VERTEX
  8
BOUNDARY
  6
HIDDEN
 10
2384828.153500
 20
1222089.357400
  0
SEQEND
  8
BOUNDARY
  6
HIDDEN
  0
POLYLINE
  8
BOUNDARY
  6
CONTINUOUS
 66
  1
  0
VERTEX
  8
BOUNDARY
  6
CONTINUOUS
 10
2384383.201600
 20
1222310.867400
  0
VERTEX
  8
BOUNDARY
  6
CONTINUOUS
 10
2384388.698807
 20
1222314.225280
  0
VERTEX
  8
BOUNDARY
  6
CONTINUOUS
 10
2384394.343023
 20
1222317.329771
  0
VERTEX
  8
BOUNDARY
  6
CONTINUOUS
 10
2384399.072000
 20
1222319.574400
  0
VERTEX
  8
BOUNDARY
  6
CONTINUOUS
 10
2384404.825538
 20
1222321.784682
  0
VERTEX
  8
BOUNDARY
  6
CONTINUOUS
 10
2384410.745383
 20
1222323.515976
  0
VERTEX
  8
BOUNDARY
  6
CONTINUOUS
 10
2384412.158000
 20
1222323.858000
  0
VERTEX
  8
BOUNDARY
  6
CONTINUOUS
 10
2384417.912637
 20
1222324.941451
  0
VERTEX
  8
BOUNDARY
  6
CONTINUOUS
 10
2384422.590000
 20
1222325.217300
  0
VERTEX
  8
BOUNDARY
  6
CONTINUOUS
 10
2384428.556086
 20
1222324.559909
  0
VERTEX
  8
BOUNDARY
  6
CONTINUOUS
 10
2384434.446787
 20
1222323.292085
  0
VERTEX
  8
BOUNDARY
  6
CONTINUOUS
 10
2384434.493700
 20
1222323.281300
  0
VERTEX
  8
BOUNDARY
  6
CONTINUOUS
 10
2384440.491294
 20
1222321.669847
  0
VERTEX
  8
BOUNDARY
  6
CONTINUOUS
 10
2384446.206926
 20
1222319.305397
  0
VERTEX
  8
BOUNDARY
  6
CONTINUOUS
 10
2384447.593000
 20
1222318.517500
  0
VERTEX
  8
BOUNDARY
  6
CONTINUOUS
 10
2384453.134968
 20
1222314.725128
  0
VERTEX
  8
BOUNDARY
  6
CONTINUOUS
 10
2384458.375756
 20
1222310.500658
  0
VERTEX
  8
BOUNDARY
  6
CONTINUOUS
 10
2384463.466462
 20
1222306.069624
  0
VERTEX
  8
BOUNDARY
  6
CONTINUOUS
 10
2384467.921700
 20
1222302.195900
  0
VERTEX
  8
BOUNDARY
  6
CONTINUOUS
 10
2384473.322023
 20
1222297.593736
  0
VERTEX
  8
BOUNDARY
  6
CONTINUOUS
 10
2384478.707351
 20
1222292.973047
  0
VERTEX
  8
BOUNDARY
  6
CONTINUOUS
 10
2384484.071946
 20
1222288.328033
  0
VERTEX
  8
BOUNDARY
  6
CONTINUOUS
 10
2384489.410066
 20
1222283.652895
  0
VERTEX
  8
BOUNDARY
  6
CONTINUOUS
 10
2384494.715973
 20
1222278.941833
  0
VERTEX
  8
BOUNDARY
  6
CONTINUOUS
 10
2384499.983928
 20
1222274.189048
  0
VERTEX
  8
BOUNDARY
  6
CONTINUOUS
 10
2384505.208190
 20
1222269.388741
  0
VERTEX
  8
BOUNDARY
  6
CONTINUOUS
 10
2384507.304800
 20
1222267.434900
  0
VERTEX
  8
BOUNDARY
  6
CONTINUOUS
 10
2384512.238880
 20
1222262.676200
  0
VERTEX
  8
BOUNDARY
  6
CONTINUOUS
 10
2384517.020861
 20
1222257.755823
  0
VERTEX
  8
BOUNDARY
  6
CONTINUOUS
 10
2384521.622226
 20
1222252.667133
  0
VERTEX
  8
BOUNDARY
  6
CONTINUOUS
 10
2384526.014458
 20
1222247.403495
  0
VERTEX
  8
BOUNDARY
  6
CONTINUOUS
 10
2384528.572900
 20
1222244.111800
  0
VERTEX
  8
BOUNDARY
  6
CONTINUOUS
 10
2384532.582408
 20
1222238.536535
  0
VERTEX
  8
BOUNDARY
  6
CONTINUOUS
 10
2384536.312198
 20
1222232.750511
  0
VERTEX
  8
BOUNDARY
  6
CONTINUOUS
 10
2384539.703173
 20
1222226.762596
  0
VERTEX
  8
BOUNDARY
  6
CONTINUOUS
 10
2384542.696239
 20
1222220.581656
  0
VERTEX
  8
BOUNDARY
  6
CONTINUOUS
 10
2384544.339200
 20
1222216.622900
  0
VERTEX
  8
BOUNDARY
  6
CONTINUOUS
 10
2384546.632606
 20
1222210.121606
  0
VERTEX
  8
BOUNDARY
  6
CONTINUOUS
 10
2384548.489184
 20
1222203.446455
  0
VERTEX
  8
BOUNDARY
  6
CONTINUOUS
 10
2384549.813878
 20
1222196.653482
  0
VERTEX
  8
BOUNDARY
  6
CONTINUOUS
 10
2384550.511633
 20
1222189.798721
  0
VERTEX
  8
BOUNDARY
  6
CONTINUOUS
 10
2384550.578600
 20
1222185.093000
  0
VERTEX
  8
BOUNDARY
  6
CONTINUOUS
 10
2384550.090002
 20
1222178.318927
  0
VERTEX
  8
BOUNDARY
  6
CONTINUOUS
 10
2384549.121862
 20
1222171.584482
  0
VERTEX
  8
BOUNDARY
  6
CONTINUOUS
 10
2384547.930745
 20
1222164.868463
  0
VERTEX
  8
BOUNDARY
  6
CONTINUOUS
 10
2384546.773217
 20
1222158.149668
  0
VERTEX
  8
BOUNDARY
  6
CONTINUOUS
 10
2384546.467400
 20
1222156.105900
  0
SEQEND
  8
BOUNDARY
  6
CONTINUOUS
  0
LINE
  8
BOUNDARY
  6
CONTINUOUS
 10
2384571.278213
 20
1222184.717404
 11
2384569.610720
 21
1222167.963959
  0
LINE
  8
BOUNDARY
  6
CONTINUOUS
 62
 6 
 10
2384343.802294
 20
1222331.878595
 11
2384627.995957
 21
1222508.358229
  0
LINE
  8
BOUNDARY
  6
CONTINUOUS
 62
 6 
 10
2384725.843749
 20
1222185.361059
 11
2384714.706616
 21
1222185.361059
  0
LINE
  8
BOUNDARY
  6
CONTINUOUS
 62
 6 
 10
2384714.706616
 20
1222185.361059
 11
2384715.820326
 21
1222157.212261
  0
LINE
  8
BOUNDARY
  6
CONTINUOUS
 62
 6 
 10
2384715.820326
 20
1222157.212261
 11
2384717.601524
 21
1222162.781988
  0
LINE
  8
BOUNDARY
  6
CONTINUOUS
 62
 6 
 10
2384717.601524
 20
1222162.781988
 11
2384713.604651
 21
1222162.623851
  0
LINE
  8
BOUNDARY
  6
CONTINUOUS
 62
 6 
 10
2384713.604651
 20
1222162.623851
 11
2384715.820326
 21
1222157.212261
  0
LINE
  8
BOUNDARY
  6
CONTINUOUS
 62
 6 
 10
2384756.396038
 20
1222080.025790
 11
2384760.830009
 21
1222093.251137
  0
LINE
  8
BOUNDARY
  6
CONTINUOUS
 62
 6 
 10
2384760.830009
 20
1222093.251137
 11
2384757.187040
 21
1222088.676937
  0
LINE
  8
BOUNDARY
  6
CONTINUOUS
 62
 6 
 10
2384757.187040
 20
1222088.676937
 11
2384760.979571
 21
1222087.405441
  0
LINE
  8
BOUNDARY
  6
CONTINUOUS
 62
 6 
 10
2384760.979571
 20
1222087.405441
 11
2384760.830009
 21
1222093.251137
  0
LINE
  8
BOUNDARY
  6
CONTINUOUS
 62
 6 
 10
2384751.645354
 20
1222080.025790
 11
2384756.396038
 21
1222080.025790
  0
LINE
  8
BOUNDARY
  6
CONTINUOUS
 62
 6 
 10
2384673.274989
 20
1222254.529045
 11
2384666.287763
 21
1222254.980707
  0
LINE
  8
BOUNDARY
  6
CONTINUOUS
 62
 6 
 10
2384868.028048
 20
1222283.811152
 11
2384850.961782
 21
1222297.991107
  0
LINE
  8
BOUNDARY
  6
CONTINUOUS
 62
 6 
 10
2384850.961782
 20
1222297.991107
 11
2384853.910089
 21
1222292.941156
  0
LINE
  8
BOUNDARY
  6
CONTINUOUS
 62
 6 
 10
2384853.910089
 20
1222292.941156
 11
2384856.466362
 21
1222296.017755
  0
LINE
  8
BOUNDARY
  6
CONTINUOUS
 62
 6 
 10
2384856.466362
 20
1222296.017755
 11
2384850.961782
 21
1222297.991107
  0
LINE
  8
BOUNDARY
  6
CONTINUOUS
 62
 6 
 10
2384248.145307
 20
1221905.970670
 11
2384373.861958
 21
1221905.970665
  0
LINE
  8
BOUNDARY
  6
CONTINUOUS
 62
 6 
 10
2384350.515783
 20
1222266.052844
 11
2384407.099776
 21
1222301.139973
  0
LINE
  8
BOUNDARY
  6
CONTINUOUS
 62
 6 
 10
2385062.271393
 20
1222083.000128
 11
2385133.403201
 21
1222083.000125
  0
LINE
  8
BOUNDARY
  6
CONTINUOUS
 62
 6 
 10
2384429.123092
 20
1222348.536669
 11
2384439.504491
 21
1222352.761904
  0
LINE
  8
BOUNDARY
  6
CONTINUOUS
 62
 6 
 10
2384864.698046
 20
1222344.190324
 11
2384848.464279
 21
1222315.830411
  0
LINE
  8
BOUNDARY
  6
CONTINUOUS
 62
 6 
 10
2384848.464279
 20
1222315.830411
 11
2384852.929846
 21
1222319.605756
  0
LINE
  8
BOUNDARY
  6
CONTINUOUS
 62
 6 
 10
2384852.929846
 20
1222319.605756
 11
2384849.458357
 21
1222321.592904
  0
LINE
  8
BOUNDARY
  6
CONTINUOUS
 62
 6 
 10
2384849.458357
 20
1222321.592904
 11
2384848.464279
 21
1222315.830411
  0
LINE
  8
BOUNDARY
  6
CONTINUOUS
 62
 6 
 10
2384868.860549
 20
1222344.190324
 11
2384864.698046
 21
1222344.190324
  0
LINE
  8
BOUNDARY
  6
CONTINUOUS
 62
 6 
 10
2384845.098083
 20
1222064.531254
 11
2384839.650633
 21
1222064.531254
  0
LINE
  8
BOUNDARY
  6
CONTINUOUS
 62
 6 
 10
2384839.650633
 20
1222064.531254
 11
2384824.475592
 21
1222084.627812
  0
LINE
  8
BOUNDARY
  6
CONTINUOUS
 62
 6 
 10
2384824.475592
 20
1222084.627812
 11
2384826.190799
 21
1222079.037410
  0
LINE
  8
BOUNDARY
  6
CONTINUOUS
 62
 6 
 10
2384826.190799
 20
1222079.037410
 11
2384829.382958
 21
1222081.447830
  0
LINE
  8
BOUNDARY
  6
CONTINUOUS
 62
 6 
 10
2384829.382958
 20
1222081.447830
 11
2384824.475592
 21
1222084.627812
  0
LINE
  8
BOUNDARY
  6
CONTINUOUS
 62
 6 
 10
2384407.099777
 20
1222301.139976
 11
2384473.935800
 21
1222263.164748
  0
LINE
  8
BOUNDARY
  6
CONTINUOUS
 62
 6 
 10
2384889.745458
 20
1222136.973054
 11
2384879.755453
 21
1222155.155420
  0
LINE
  8
BOUNDARY
  6
CONTINUOUS
 62
 6 
 10
2384879.755453
 20
1222155.155420
 11
2384880.648630
 21
1222149.376426
  0
LINE
  8
BOUNDARY
  6
CONTINUOUS
 62
 6 
 10
2384880.648630
 20
1222149.376426
 11
2384884.154332
 21
1222151.302577
  0
LINE
  8
BOUNDARY
  6
CONTINUOUS
 62
 6 
 10
2384884.154332
 20
1222151.302577
 11
2384879.755453
 21
1222155.155420
  0
LINE
  8
BOUNDARY
  6
CONTINUOUS
 62
 6 
 10
2384898.174528
 20
1222136.973054
 11
2384889.745458
 21
1222136.973054
  0
LINE
  8
BOUNDARY
  6
CONTINUOUS
 62
 6 
 10
2384666.287764
 20
1222254.980707
 11
2384666.287759
 21
1222197.167856
  0
LINE
  8
BOUNDARY
  6
CONTINUOUS
 62
 6 
 10
2384666.287759
 20
1222197.167856
 11
2384668.287759
 21
1222202.662810
  0
LINE
  8
BOUNDARY
  6
CONTINUOUS
 62
 6 
 10
2384668.287759
 20
1222202.662810
 11
2384664.287759
 21
1222202.662811
  0
LINE
  8
BOUNDARY
  6
CONTINUOUS
 62
 6 
 10
2384664.287759
 20
1222202.662811
 11
2384666.287759
 21
1222197.167856
  0
LINE
  8
BOUNDARY
  6
CONTINUOUS
 62
 6 
 10
2384439.504491
 20
1222352.761903
 11
2384462.189773
 21
1222337.551064
  0
LINE
  8
BOUNDARY
  6
CONTINUOUS
 62
 6 
 10
2384462.189773
 20
1222337.551064
 11
2384458.739642
 21
1222342.272411
  0
LINE
  8
BOUNDARY
  6
CONTINUOUS
 62
 6 
 10
2384458.739642
 20
1222342.272411
 11
2384456.511996
 21
1222338.950124
  0
LINE
  8
BOUNDARY
  6
CONTINUOUS
 62
 6 
 10
2384456.511996
 20
1222338.950124
 11
2384462.189773
 21
1222337.551064
  0
LINE
  8
BOUNDARY
  6
CONTINUOUS
 62
 6 
 10
2384630.269744
 20
1222399.509288
 11
2384620.849586
 21
1222399.509288
  0
LINE
  8
BOUNDARY
  6
CONTINUOUS
 62
 6 
 10
2384620.849586
 20
1222399.509288
 11
2384603.633429
 21
1222419.142052
  0
LINE
  8
BOUNDARY
  6
CONTINUOUS
 62
 6 
 10
2384603.633429
 20
1222419.142052
 11
2384605.752619
 21
1222413.691954
  0
LINE
  8
BOUNDARY
  6
CONTINUOUS
 62
 6 
 10
2384605.752619
 20
1222413.691954
 11
2384608.760078
 21
1222416.329224
  0
LINE
  8
BOUNDARY
  6
CONTINUOUS
 62
 6 
 10
2384608.760078
 20
1222416.329224
 11
2384603.633429
 21
1222419.142052
  0
LINE
  8
BOUNDARY
  6
CONTINUOUS
 62
 6 
 10
2384473.944620
 20
1222263.128831
 11
2384486.478429
 21
1222256.052437
  0
LINE
  8
BOUNDARY
  6
CONTINUOUS
 62
 6 
 10
2384566.327982
 20
1221785.619807
 11
2384559.609159
 21
1221785.619807
  0
LINE
  8
BOUNDARY
  6
CONTINUOUS
 62
 6 
 10
2384559.609159
 20
1221785.619807
 11
2384547.515275
 21
1221800.878673
  0
LINE
  8
BOUNDARY
  6
CONTINUOUS
 62
 6 
 10
2384547.515275
 20
1221800.878673
 11
2384549.361035
 21
1221795.330006
  0
LINE
  8
BOUNDARY
  6
CONTINUOUS
 62
 6 
 10
2384549.361035
 20
1221795.330006
 11
2384552.495823
 21
1221797.814579
  0
LINE
  8
BOUNDARY
  6
CONTINUOUS
 62
 6 
 10
2384552.495823
 20
1221797.814579
 11
2384547.515275
 21
1221800.878673
  0
LINE
  8
BOUNDARY
  6
CONTINUOUS
 62
 6 
 10
2384824.475593
 20
1222047.855386
 11
2384818.249935
 21
1222047.855386
  0
LINE
  8
BOUNDARY
  6
CONTINUOUS
 62
 6 
 10
2384818.249935
 20
1222047.855386
 11
2384812.802490
 21
1222072.655396
  0
LINE
  8
BOUNDARY
  6
CONTINUOUS
 62
 6 
 10
2384812.802490
 20
1222072.655396
 11
2384812.027950
 21
1222066.859310
  0
LINE
  8
BOUNDARY
  6
CONTINUOUS
 62
 6 
 10
2384812.027950
 20
1222066.859310
 11
2384815.934810
 21
1222067.717471
  0
LINE
  8
BOUNDARY
  6
CONTINUOUS
 62
 6 
 10
2384815.934810
 20
1222067.717471
 11
2384812.802490
 21
1222072.655396
  0
LINE
  8
BOUNDARY
  6
CONTINUOUS
 62
 6 
 10
2384817.206542
 20
1222025.787392
 11
2384807.250316
 21
1222025.862485
  0
LINE
  8
BOUNDARY
  6
CONTINUOUS
 62
 6 
 10
2384610.344096
 20
1222311.693087
 11
2384602.567990
 21
1222311.693087
  0
LINE
  8
BOUNDARY
  6
CONTINUOUS
 62
 6 
 10
2384602.567990
 20
1222311.693087
 11
2384580.592037
 21
1222321.352841
  0
LINE
  8
BOUNDARY
  6
CONTINUOUS
 62
 6 
 10
2384580.592037
 20
1222321.352841
 11
2384584.817665
 21
1222317.310737
  0
LINE
  8
BOUNDARY
  6
CONTINUOUS
 62
 6 
 10
2384584.817665
 20
1222317.310737
 11
2384586.427270
 21
1222320.972591
  0
LINE
  8
BOUNDARY
  6
CONTINUOUS
 62
 6 
 10
2384586.427270
 20
1222320.972591
 11
2384580.592037
 21
1222321.352841
  0
LINE
  8
BOUNDARY
  6
CONTINUOUS
 62
 6 
 10
2384736.447023
 20
1221915.734232
 11
2384728.436949
 21
1221915.734232
  0
LINE
  8
BOUNDARY
  6
CONTINUOUS
 62
 6 
 10
2384728.436949
 20
1221915.734232
 11
2384730.839971
 21
1221965.467106
  0
LINE
  8
BOUNDARY
  6
CONTINUOUS
 62
 6 
 10
2384730.839971
 20
1221965.467106
 11
2384728.577103
 21
1221960.075079
  0
LINE
  8
BOUNDARY
  6
CONTINUOUS
 62
 6 
 10
2384728.577103
 20
1221960.075079
 11
2384732.572442
 21
1221959.882030
  0
LINE
  8
BOUNDARY
  6
CONTINUOUS
 62
 6 
 10
2384732.572442
 20
1221959.882030
 11
2384730.839971
 21
1221965.467106
  0
LINE
  8
BOUNDARY
  6
CONTINUOUS
 62
 6 
 10
2384951.694369
 20
1222350.594176
 11
2384945.450614
 21
1222350.594176
  0
LINE
  8
BOUNDARY
  6
CONTINUOUS
 62
 6 
 10
2384945.450614
 20
1222350.594176
 11
2384940.039358
 21
1222331.382621
  0
LINE
  8
BOUNDARY
  6
CONTINUOUS
 62
 6 
 10
2384940.039358
 20
1222331.382621
 11
2384943.454227
 21
1222336.129535
  0
LINE
  8
BOUNDARY
  6
CONTINUOUS
 62
 6 
 10
2384943.454227
 20
1222336.129535
 11
2384939.604042
 21
1222337.214004
  0
LINE
  8
BOUNDARY
  6
CONTINUOUS
 62
 6 
 10
2384939.604042
 20
1222337.214004
 11
2384940.039358
 21
1222331.382621
  0
LINE
  8
BOUNDARY
  6
CONTINUOUS
 10
2384569.610722
 20
1222167.963958
 11
2384566.752164
 21
1222150.686968
  0
LINE
  8
BOUNDARY
  6
CONTINUOUS
 62
 6 
 10
2384486.478429
 20
1222256.052437
 11
2384486.500227
 21
1222256.042777
  0
LINE
  8
BOUNDARY
  6
CONTINUOUS
 62
 6 
 10
2384694.003729
 20
1222102.300057
 11
2384701.288111
 21
1222102.300056
  0
LINE
  8
BOUNDARY
  6
CONTINUOUS
 62
 6 
 10
2384701.288111
 20
1222102.300057
 11
2384705.405369
 21
1222122.486110
  0
LINE
  8
BOUNDARY
  6
CONTINUOUS
 62
 6 
 10
2384705.405369
 20
1222122.486110
 11
2384702.347546
 21
1222117.501711
  0
LINE
  8
BOUNDARY
  6
CONTINUOUS
 62
 6 
 10
2384702.347546
 20
1222117.501711
 11
2384706.266851
 21
1222116.702307
  0
LINE
  8
BOUNDARY
  6
CONTINUOUS
 62
 6 
 10
2384706.266851
 20
1222116.702307
 11
2384705.405369
 21
1222122.486110
  0
LINE
  8
BOUNDARY
  6
CONTINUOUS
 62
 6 
 10
2384598.365686
 20
1222114.869356
 11
2384588.484267
 21
1222138.913632
  0
LINE
  8
BOUNDARY
  6
CONTINUOUS
 62
 6 
 10
2384588.484267
 20
1222138.913632
 11
2384588.723131
 21
1222133.070904
  0
LINE
  8
BOUNDARY
  6
CONTINUOUS
 62
 6 
 10
2384588.723131
 20
1222133.070904
 11
2384592.422881
 21
1222134.591382
  0
LINE
  8
BOUNDARY
  6
CONTINUOUS
 62
 6 
 10
2384592.422881
 20
1222134.591382
 11
2384588.484267
 21
1222138.913632
  0
LINE
  8
BOUNDARY
  6
CONTINUOUS
 62
 6 
 10
2384602.953489
 20
1222114.869356
 11
2384598.365686
 21
1222114.869356
  0
LINE
  8
BOUNDARY
  6
CONTINUOUS
 62
 6 
 10
2384807.250317
 20
1222025.862485
 11
2384803.812069
 21
1222061.378420
  0
LINE
  8
BOUNDARY
  6
CONTINUOUS
 62
 6 
 10
2384803.812069
 20
1222061.378420
 11
2384802.350859
 21
1222055.716318
  0
LINE
  8
BOUNDARY
  6
CONTINUOUS
 62
 6 
 10
2384802.350859
 20
1222055.716318
 11
2384806.332246
 21
1222056.101751
  0
LINE
  8
BOUNDARY
  6
CONTINUOUS
 62
 6 
 10
2384806.332246
 20
1222056.101751
 11
2384803.812069
 21
1222061.378420
  0
LINE
  8
BOUNDARY
  6
CONTINUOUS
 62
 6 
 10
2384880.058696
 20
1222394.941482
 11
2384873.959790
 21
1222394.941482
  0
LINE
  8
BOUNDARY
  6
CONTINUOUS
 62
 6 
 10
2384873.959790
 20
1222394.941482
 11
2384847.734492
 21
1222419.069022
  0
LINE
  8
BOUNDARY
  6
CONTINUOUS
 62
 6 
 10
2384847.734492
 20
1222419.069022
 11
2384850.424258
 21
1222413.876751
  0
LINE
  8
BOUNDARY
  6
CONTINUOUS
 62
 6 
 10
2384850.424258
 20
1222413.876751
 11
2384853.132500
 21
1222416.820460
  0
LINE
  8
BOUNDARY
  6
CONTINUOUS
 62
 6 
 10
2384853.132500
 20
1222416.820460
 11
2384847.734492
 21
1222419.069022
  0
LINE
  8
BOUNDARY
  6
CONTINUOUS
 62
 6 
 10
2384874.271804
 20
1222283.353734
 11
2384868.028048
 21
1222283.811153
  0
LINE
  8
BOUNDARY
  6
HIDDEN
 62
 6 
 10
2384877.974700
 20
1222158.247300
 11
2384929.076590
 21
1222150.383294
  0
LINE
  8
BOUNDARY
  6
CONTINUOUS
 62
 6 
 10
2384600.905400
 20
1222421.089600
 11
2384651.923432
 21
1222452.667450
  0
ENDSEC
  0
EOF
